G04 #@! TF.GenerationSoftware,KiCad,Pcbnew,8.0.1*
G04 #@! TF.CreationDate,2024-04-29T21:46:06+02:00*
G04 #@! TF.ProjectId,P1-lezer,50312d6c-657a-4657-922e-6b696361645f,rev?*
G04 #@! TF.SameCoordinates,Original*
G04 #@! TF.FileFunction,Copper,L1,Top*
G04 #@! TF.FilePolarity,Positive*
%FSLAX46Y46*%
G04 Gerber Fmt 4.6, Leading zero omitted, Abs format (unit mm)*
G04 Created by KiCad (PCBNEW 8.0.1) date 2024-04-29 21:46:06*
%MOMM*%
%LPD*%
G01*
G04 APERTURE LIST*
G04 Aperture macros list*
%AMRoundRect*
0 Rectangle with rounded corners*
0 $1 Rounding radius*
0 $2 $3 $4 $5 $6 $7 $8 $9 X,Y pos of 4 corners*
0 Add a 4 corners polygon primitive as box body*
4,1,4,$2,$3,$4,$5,$6,$7,$8,$9,$2,$3,0*
0 Add four circle primitives for the rounded corners*
1,1,$1+$1,$2,$3*
1,1,$1+$1,$4,$5*
1,1,$1+$1,$6,$7*
1,1,$1+$1,$8,$9*
0 Add four rect primitives between the rounded corners*
20,1,$1+$1,$2,$3,$4,$5,0*
20,1,$1+$1,$4,$5,$6,$7,0*
20,1,$1+$1,$6,$7,$8,$9,0*
20,1,$1+$1,$8,$9,$2,$3,0*%
G04 Aperture macros list end*
G04 #@! TA.AperFunction,ComponentPad*
%ADD10C,1.600000*%
G04 #@! TD*
G04 #@! TA.AperFunction,ComponentPad*
%ADD11O,1.600000X1.600000*%
G04 #@! TD*
G04 #@! TA.AperFunction,ComponentPad*
%ADD12C,3.100000*%
G04 #@! TD*
G04 #@! TA.AperFunction,ConnectorPad*
%ADD13C,4.500000*%
G04 #@! TD*
G04 #@! TA.AperFunction,ComponentPad*
%ADD14R,1.500000X1.050000*%
G04 #@! TD*
G04 #@! TA.AperFunction,ComponentPad*
%ADD15O,1.500000X1.050000*%
G04 #@! TD*
G04 #@! TA.AperFunction,ComponentPad*
%ADD16R,2.000000X2.000000*%
G04 #@! TD*
G04 #@! TA.AperFunction,ComponentPad*
%ADD17O,1.600000X2.000000*%
G04 #@! TD*
G04 #@! TA.AperFunction,ComponentPad*
%ADD18RoundRect,0.250000X-0.510000X0.510000X-0.510000X-0.510000X0.510000X-0.510000X0.510000X0.510000X0*%
G04 #@! TD*
G04 #@! TA.AperFunction,ComponentPad*
%ADD19C,1.520000*%
G04 #@! TD*
G04 #@! TA.AperFunction,ComponentPad*
%ADD20R,1.600000X1.600000*%
G04 #@! TD*
G04 #@! TA.AperFunction,ComponentPad*
%ADD21R,2.200000X2.200000*%
G04 #@! TD*
G04 #@! TA.AperFunction,ComponentPad*
%ADD22O,2.200000X2.200000*%
G04 #@! TD*
G04 APERTURE END LIST*
D10*
X103100000Y-70700000D03*
D11*
X103100000Y-80860000D03*
D12*
X69000000Y-93700000D03*
D13*
X69000000Y-93700000D03*
D10*
X98200000Y-78300000D03*
D11*
X98200000Y-88460000D03*
D14*
X96160000Y-74570000D03*
D15*
X96160000Y-73300000D03*
X96160000Y-72030000D03*
D16*
X133260000Y-70700000D03*
D17*
X130720000Y-70700000D03*
X128180000Y-70700000D03*
X125640000Y-70700000D03*
X123100000Y-70700000D03*
X120560000Y-70700000D03*
X118020000Y-70700000D03*
X115480000Y-70700000D03*
X115480000Y-93560000D03*
X118020000Y-93560000D03*
X120560000Y-93560000D03*
X123100000Y-93560000D03*
X125640000Y-93560000D03*
X128180000Y-93560000D03*
X130720000Y-93560000D03*
X133260000Y-93560000D03*
D10*
X87880000Y-91100000D03*
D11*
X77720000Y-91100000D03*
D18*
X81490000Y-78840000D03*
D19*
X78950000Y-80110000D03*
X81490000Y-81380000D03*
X78950000Y-82650000D03*
X81490000Y-83920000D03*
X78950000Y-85190000D03*
D10*
X81520000Y-73300000D03*
D11*
X91680000Y-73300000D03*
D20*
X92925000Y-78300000D03*
D11*
X90385000Y-78300000D03*
X87845000Y-78300000D03*
X87845000Y-85920000D03*
X90385000Y-85920000D03*
X92925000Y-85920000D03*
D21*
X101480000Y-92100000D03*
D22*
X91320000Y-92100000D03*
D12*
X132150000Y-82000000D03*
D13*
X132150000Y-82000000D03*
D12*
X69000000Y-70400000D03*
D13*
X69000000Y-70400000D03*
G04 #@! TA.AperFunction,Conductor*
G36*
X135242539Y-67320185D02*
G01*
X135288294Y-67372989D01*
X135299500Y-67424500D01*
X135299500Y-96575500D01*
X135279815Y-96642539D01*
X135227011Y-96688294D01*
X135175500Y-96699500D01*
X69062041Y-96699500D01*
X68995123Y-96679850D01*
X68965647Y-96696369D01*
X68937959Y-96699500D01*
X66024500Y-96699500D01*
X65957461Y-96679815D01*
X65911706Y-96627011D01*
X65900500Y-96575500D01*
X65900500Y-93700000D01*
X66244974Y-93700000D01*
X66265060Y-94032076D01*
X66325032Y-94359329D01*
X66423999Y-94676928D01*
X66424005Y-94676943D01*
X66560543Y-94980319D01*
X66560545Y-94980321D01*
X66732657Y-95265031D01*
X66732662Y-95265039D01*
X66885862Y-95460583D01*
X67287766Y-95058679D01*
X67349089Y-95025194D01*
X67418780Y-95030178D01*
X67466071Y-95061724D01*
X67597155Y-95202081D01*
X67597155Y-95202082D01*
X67630802Y-95229456D01*
X67670382Y-95287033D01*
X67672550Y-95356869D01*
X67640227Y-95413324D01*
X67239415Y-95814136D01*
X67239415Y-95814137D01*
X67434960Y-95967337D01*
X67434968Y-95967342D01*
X67719678Y-96139454D01*
X67719680Y-96139456D01*
X68023056Y-96275994D01*
X68023071Y-96276000D01*
X68340670Y-96374967D01*
X68667923Y-96434939D01*
X68945446Y-96451726D01*
X69002541Y-96472309D01*
X69027106Y-96456523D01*
X69054554Y-96451726D01*
X69332076Y-96434939D01*
X69659329Y-96374967D01*
X69976928Y-96276000D01*
X69976943Y-96275994D01*
X70280319Y-96139456D01*
X70280321Y-96139454D01*
X70565030Y-95967343D01*
X70760583Y-95814137D01*
X70760583Y-95814136D01*
X70359771Y-95413324D01*
X70326286Y-95352001D01*
X70331270Y-95282309D01*
X70369197Y-95229455D01*
X70402845Y-95202081D01*
X70533930Y-95061721D01*
X70594071Y-95026165D01*
X70663892Y-95028766D01*
X70712232Y-95058679D01*
X71114136Y-95460583D01*
X71114137Y-95460583D01*
X71267343Y-95265030D01*
X71439454Y-94980321D01*
X71439456Y-94980319D01*
X71575994Y-94676943D01*
X71576000Y-94676928D01*
X71674967Y-94359329D01*
X71734939Y-94032076D01*
X71745205Y-93862351D01*
X114179500Y-93862351D01*
X114211522Y-94064534D01*
X114274781Y-94259223D01*
X114367715Y-94441613D01*
X114488028Y-94607213D01*
X114632786Y-94751971D01*
X114787749Y-94864556D01*
X114798390Y-94872287D01*
X114914607Y-94931503D01*
X114980776Y-94965218D01*
X114980778Y-94965218D01*
X114980781Y-94965220D01*
X115078802Y-94997069D01*
X115175465Y-95028477D01*
X115276557Y-95044488D01*
X115377648Y-95060500D01*
X115377649Y-95060500D01*
X115582351Y-95060500D01*
X115582352Y-95060500D01*
X115784534Y-95028477D01*
X115979219Y-94965220D01*
X116161610Y-94872287D01*
X116254590Y-94804732D01*
X116327213Y-94751971D01*
X116327215Y-94751968D01*
X116327219Y-94751966D01*
X116471966Y-94607219D01*
X116471968Y-94607215D01*
X116471971Y-94607213D01*
X116592284Y-94441614D01*
X116592286Y-94441611D01*
X116592287Y-94441610D01*
X116639795Y-94348369D01*
X116687770Y-94297574D01*
X116755591Y-94280779D01*
X116821725Y-94303316D01*
X116860765Y-94348370D01*
X116908140Y-94441349D01*
X117028417Y-94606894D01*
X117028417Y-94606895D01*
X117173104Y-94751582D01*
X117338650Y-94871859D01*
X117520968Y-94964754D01*
X117715578Y-95027988D01*
X117770000Y-95036607D01*
X117770000Y-93993012D01*
X117827007Y-94025925D01*
X117954174Y-94060000D01*
X118085826Y-94060000D01*
X118212993Y-94025925D01*
X118270000Y-93993012D01*
X118270000Y-95036606D01*
X118324421Y-95027988D01*
X118519031Y-94964754D01*
X118701349Y-94871859D01*
X118866894Y-94751582D01*
X118866895Y-94751582D01*
X119011582Y-94606895D01*
X119011582Y-94606894D01*
X119131861Y-94441347D01*
X119179234Y-94348371D01*
X119227208Y-94297575D01*
X119295028Y-94280779D01*
X119361164Y-94303316D01*
X119400203Y-94348369D01*
X119447713Y-94441611D01*
X119568028Y-94607213D01*
X119712786Y-94751971D01*
X119867749Y-94864556D01*
X119878390Y-94872287D01*
X119994607Y-94931503D01*
X120060776Y-94965218D01*
X120060778Y-94965218D01*
X120060781Y-94965220D01*
X120158802Y-94997069D01*
X120255465Y-95028477D01*
X120356557Y-95044488D01*
X120457648Y-95060500D01*
X120457649Y-95060500D01*
X120662351Y-95060500D01*
X120662352Y-95060500D01*
X120864534Y-95028477D01*
X121059219Y-94965220D01*
X121241610Y-94872287D01*
X121334590Y-94804732D01*
X121407213Y-94751971D01*
X121407215Y-94751968D01*
X121407219Y-94751966D01*
X121551966Y-94607219D01*
X121551968Y-94607215D01*
X121551971Y-94607213D01*
X121672284Y-94441614D01*
X121672286Y-94441611D01*
X121672287Y-94441610D01*
X121719516Y-94348917D01*
X121767489Y-94298123D01*
X121835310Y-94281328D01*
X121901445Y-94303865D01*
X121940485Y-94348919D01*
X121987715Y-94441614D01*
X122108028Y-94607213D01*
X122252786Y-94751971D01*
X122407749Y-94864556D01*
X122418390Y-94872287D01*
X122534607Y-94931503D01*
X122600776Y-94965218D01*
X122600778Y-94965218D01*
X122600781Y-94965220D01*
X122698802Y-94997069D01*
X122795465Y-95028477D01*
X122896557Y-95044488D01*
X122997648Y-95060500D01*
X122997649Y-95060500D01*
X123202351Y-95060500D01*
X123202352Y-95060500D01*
X123404534Y-95028477D01*
X123599219Y-94965220D01*
X123781610Y-94872287D01*
X123874590Y-94804732D01*
X123947213Y-94751971D01*
X123947215Y-94751968D01*
X123947219Y-94751966D01*
X124091966Y-94607219D01*
X124091968Y-94607215D01*
X124091971Y-94607213D01*
X124212284Y-94441614D01*
X124212286Y-94441611D01*
X124212287Y-94441610D01*
X124259516Y-94348917D01*
X124307489Y-94298123D01*
X124375310Y-94281328D01*
X124441445Y-94303865D01*
X124480485Y-94348919D01*
X124527715Y-94441614D01*
X124648028Y-94607213D01*
X124792786Y-94751971D01*
X124947749Y-94864556D01*
X124958390Y-94872287D01*
X125074607Y-94931503D01*
X125140776Y-94965218D01*
X125140778Y-94965218D01*
X125140781Y-94965220D01*
X125238802Y-94997069D01*
X125335465Y-95028477D01*
X125436557Y-95044488D01*
X125537648Y-95060500D01*
X125537649Y-95060500D01*
X125742351Y-95060500D01*
X125742352Y-95060500D01*
X125944534Y-95028477D01*
X126139219Y-94965220D01*
X126321610Y-94872287D01*
X126414590Y-94804732D01*
X126487213Y-94751971D01*
X126487215Y-94751968D01*
X126487219Y-94751966D01*
X126631966Y-94607219D01*
X126631968Y-94607215D01*
X126631971Y-94607213D01*
X126752284Y-94441614D01*
X126752286Y-94441611D01*
X126752287Y-94441610D01*
X126799516Y-94348917D01*
X126847489Y-94298123D01*
X126915310Y-94281328D01*
X126981445Y-94303865D01*
X127020485Y-94348919D01*
X127067715Y-94441614D01*
X127188028Y-94607213D01*
X127332786Y-94751971D01*
X127487749Y-94864556D01*
X127498390Y-94872287D01*
X127614607Y-94931503D01*
X127680776Y-94965218D01*
X127680778Y-94965218D01*
X127680781Y-94965220D01*
X127778802Y-94997069D01*
X127875465Y-95028477D01*
X127976557Y-95044488D01*
X128077648Y-95060500D01*
X128077649Y-95060500D01*
X128282351Y-95060500D01*
X128282352Y-95060500D01*
X128484534Y-95028477D01*
X128679219Y-94965220D01*
X128861610Y-94872287D01*
X128954590Y-94804732D01*
X129027213Y-94751971D01*
X129027215Y-94751968D01*
X129027219Y-94751966D01*
X129171966Y-94607219D01*
X129171968Y-94607215D01*
X129171971Y-94607213D01*
X129292284Y-94441614D01*
X129292286Y-94441611D01*
X129292287Y-94441610D01*
X129339516Y-94348917D01*
X129387489Y-94298123D01*
X129455310Y-94281328D01*
X129521445Y-94303865D01*
X129560485Y-94348919D01*
X129607715Y-94441614D01*
X129728028Y-94607213D01*
X129872786Y-94751971D01*
X130027749Y-94864556D01*
X130038390Y-94872287D01*
X130154607Y-94931503D01*
X130220776Y-94965218D01*
X130220778Y-94965218D01*
X130220781Y-94965220D01*
X130318802Y-94997069D01*
X130415465Y-95028477D01*
X130516557Y-95044488D01*
X130617648Y-95060500D01*
X130617649Y-95060500D01*
X130822351Y-95060500D01*
X130822352Y-95060500D01*
X131024534Y-95028477D01*
X131219219Y-94965220D01*
X131401610Y-94872287D01*
X131494590Y-94804732D01*
X131567213Y-94751971D01*
X131567215Y-94751968D01*
X131567219Y-94751966D01*
X131711966Y-94607219D01*
X131711968Y-94607215D01*
X131711971Y-94607213D01*
X131832284Y-94441614D01*
X131832286Y-94441611D01*
X131832287Y-94441610D01*
X131879516Y-94348917D01*
X131927489Y-94298123D01*
X131995310Y-94281328D01*
X132061445Y-94303865D01*
X132100485Y-94348919D01*
X132147715Y-94441614D01*
X132268028Y-94607213D01*
X132412786Y-94751971D01*
X132567749Y-94864556D01*
X132578390Y-94872287D01*
X132694607Y-94931503D01*
X132760776Y-94965218D01*
X132760778Y-94965218D01*
X132760781Y-94965220D01*
X132858802Y-94997069D01*
X132955465Y-95028477D01*
X133056557Y-95044488D01*
X133157648Y-95060500D01*
X133157649Y-95060500D01*
X133362351Y-95060500D01*
X133362352Y-95060500D01*
X133564534Y-95028477D01*
X133759219Y-94965220D01*
X133941610Y-94872287D01*
X134034590Y-94804732D01*
X134107213Y-94751971D01*
X134107215Y-94751968D01*
X134107219Y-94751966D01*
X134251966Y-94607219D01*
X134251968Y-94607215D01*
X134251971Y-94607213D01*
X134316184Y-94518830D01*
X134372287Y-94441610D01*
X134465220Y-94259219D01*
X134528477Y-94064534D01*
X134560500Y-93862352D01*
X134560500Y-93257648D01*
X134545018Y-93159901D01*
X134528477Y-93055465D01*
X134499127Y-92965137D01*
X134465220Y-92860781D01*
X134465218Y-92860778D01*
X134465218Y-92860776D01*
X134372419Y-92678650D01*
X134372287Y-92678390D01*
X134338659Y-92632104D01*
X134251971Y-92512786D01*
X134107213Y-92368028D01*
X133941613Y-92247715D01*
X133941612Y-92247714D01*
X133941610Y-92247713D01*
X133884653Y-92218691D01*
X133759223Y-92154781D01*
X133564534Y-92091522D01*
X133389995Y-92063878D01*
X133362352Y-92059500D01*
X133157648Y-92059500D01*
X133133329Y-92063351D01*
X132955465Y-92091522D01*
X132760776Y-92154781D01*
X132578386Y-92247715D01*
X132412786Y-92368028D01*
X132268028Y-92512786D01*
X132147715Y-92678386D01*
X132100485Y-92771080D01*
X132052510Y-92821876D01*
X131984689Y-92838671D01*
X131918554Y-92816134D01*
X131879515Y-92771080D01*
X131832419Y-92678650D01*
X131832287Y-92678390D01*
X131798659Y-92632104D01*
X131711971Y-92512786D01*
X131567213Y-92368028D01*
X131401613Y-92247715D01*
X131401612Y-92247714D01*
X131401610Y-92247713D01*
X131344653Y-92218691D01*
X131219223Y-92154781D01*
X131024534Y-92091522D01*
X130849995Y-92063878D01*
X130822352Y-92059500D01*
X130617648Y-92059500D01*
X130593329Y-92063351D01*
X130415465Y-92091522D01*
X130220776Y-92154781D01*
X130038386Y-92247715D01*
X129872786Y-92368028D01*
X129728028Y-92512786D01*
X129607715Y-92678386D01*
X129560485Y-92771080D01*
X129512510Y-92821876D01*
X129444689Y-92838671D01*
X129378554Y-92816134D01*
X129339515Y-92771080D01*
X129292419Y-92678650D01*
X129292287Y-92678390D01*
X129258659Y-92632104D01*
X129171971Y-92512786D01*
X129027213Y-92368028D01*
X128861613Y-92247715D01*
X128861612Y-92247714D01*
X128861610Y-92247713D01*
X128804653Y-92218691D01*
X128679223Y-92154781D01*
X128484534Y-92091522D01*
X128309995Y-92063878D01*
X128282352Y-92059500D01*
X128077648Y-92059500D01*
X128053329Y-92063351D01*
X127875465Y-92091522D01*
X127680776Y-92154781D01*
X127498386Y-92247715D01*
X127332786Y-92368028D01*
X127188028Y-92512786D01*
X127067715Y-92678386D01*
X127020485Y-92771080D01*
X126972510Y-92821876D01*
X126904689Y-92838671D01*
X126838554Y-92816134D01*
X126799515Y-92771080D01*
X126752419Y-92678650D01*
X126752287Y-92678390D01*
X126718659Y-92632104D01*
X126631971Y-92512786D01*
X126487213Y-92368028D01*
X126321613Y-92247715D01*
X126321612Y-92247714D01*
X126321610Y-92247713D01*
X126264653Y-92218691D01*
X126139223Y-92154781D01*
X125944534Y-92091522D01*
X125769995Y-92063878D01*
X125742352Y-92059500D01*
X125537648Y-92059500D01*
X125513329Y-92063351D01*
X125335465Y-92091522D01*
X125140776Y-92154781D01*
X124958386Y-92247715D01*
X124792786Y-92368028D01*
X124648028Y-92512786D01*
X124527715Y-92678386D01*
X124480485Y-92771080D01*
X124432510Y-92821876D01*
X124364689Y-92838671D01*
X124298554Y-92816134D01*
X124259515Y-92771080D01*
X124212419Y-92678650D01*
X124212287Y-92678390D01*
X124178659Y-92632104D01*
X124091971Y-92512786D01*
X123947213Y-92368028D01*
X123781613Y-92247715D01*
X123781612Y-92247714D01*
X123781610Y-92247713D01*
X123724653Y-92218691D01*
X123599223Y-92154781D01*
X123404534Y-92091522D01*
X123229995Y-92063878D01*
X123202352Y-92059500D01*
X122997648Y-92059500D01*
X122973329Y-92063351D01*
X122795465Y-92091522D01*
X122600776Y-92154781D01*
X122418386Y-92247715D01*
X122252786Y-92368028D01*
X122108028Y-92512786D01*
X121987715Y-92678386D01*
X121940485Y-92771080D01*
X121892510Y-92821876D01*
X121824689Y-92838671D01*
X121758554Y-92816134D01*
X121719515Y-92771080D01*
X121672419Y-92678650D01*
X121672287Y-92678390D01*
X121638659Y-92632104D01*
X121551971Y-92512786D01*
X121407213Y-92368028D01*
X121241613Y-92247715D01*
X121241612Y-92247714D01*
X121241610Y-92247713D01*
X121184653Y-92218691D01*
X121059223Y-92154781D01*
X120864534Y-92091522D01*
X120689995Y-92063878D01*
X120662352Y-92059500D01*
X120457648Y-92059500D01*
X120433329Y-92063351D01*
X120255465Y-92091522D01*
X120060776Y-92154781D01*
X119878386Y-92247715D01*
X119712786Y-92368028D01*
X119568028Y-92512786D01*
X119447713Y-92678388D01*
X119400203Y-92771630D01*
X119352228Y-92822426D01*
X119284407Y-92839220D01*
X119218272Y-92816682D01*
X119179234Y-92771628D01*
X119131861Y-92678652D01*
X119011582Y-92513105D01*
X119011582Y-92513104D01*
X118866895Y-92368417D01*
X118701349Y-92248140D01*
X118519029Y-92155244D01*
X118324413Y-92092009D01*
X118270000Y-92083390D01*
X118270000Y-93126988D01*
X118212993Y-93094075D01*
X118085826Y-93060000D01*
X117954174Y-93060000D01*
X117827007Y-93094075D01*
X117770000Y-93126988D01*
X117770000Y-92083390D01*
X117715586Y-92092009D01*
X117520970Y-92155244D01*
X117338650Y-92248140D01*
X117173105Y-92368417D01*
X117173104Y-92368417D01*
X117028417Y-92513104D01*
X117028417Y-92513105D01*
X116908140Y-92678650D01*
X116860765Y-92771629D01*
X116812790Y-92822425D01*
X116744969Y-92839220D01*
X116678834Y-92816682D01*
X116639795Y-92771629D01*
X116592419Y-92678650D01*
X116592287Y-92678390D01*
X116558659Y-92632104D01*
X116471971Y-92512786D01*
X116327213Y-92368028D01*
X116161613Y-92247715D01*
X116161612Y-92247714D01*
X116161610Y-92247713D01*
X116104653Y-92218691D01*
X115979223Y-92154781D01*
X115784534Y-92091522D01*
X115609995Y-92063878D01*
X115582352Y-92059500D01*
X115377648Y-92059500D01*
X115353329Y-92063351D01*
X115175465Y-92091522D01*
X114980776Y-92154781D01*
X114798386Y-92247715D01*
X114632786Y-92368028D01*
X114488028Y-92512786D01*
X114367715Y-92678386D01*
X114274781Y-92860776D01*
X114211522Y-93055465D01*
X114179500Y-93257648D01*
X114179500Y-93862351D01*
X71745205Y-93862351D01*
X71755025Y-93700000D01*
X71734939Y-93367923D01*
X71674967Y-93040670D01*
X71576000Y-92723071D01*
X71575994Y-92723056D01*
X71439456Y-92419680D01*
X71439454Y-92419678D01*
X71267342Y-92134968D01*
X71267337Y-92134960D01*
X71114136Y-91939415D01*
X70712232Y-92341319D01*
X70650909Y-92374804D01*
X70581217Y-92369820D01*
X70533927Y-92338274D01*
X70402844Y-92197918D01*
X70402843Y-92197917D01*
X70369196Y-92170542D01*
X70329616Y-92112964D01*
X70327448Y-92043128D01*
X70359771Y-91986674D01*
X70760583Y-91585862D01*
X70760583Y-91585861D01*
X70565039Y-91432662D01*
X70565031Y-91432657D01*
X70280321Y-91260545D01*
X70280319Y-91260543D01*
X69976943Y-91124005D01*
X69976928Y-91123999D01*
X69899915Y-91100001D01*
X76414532Y-91100001D01*
X76434364Y-91326686D01*
X76434366Y-91326697D01*
X76493258Y-91546488D01*
X76493261Y-91546497D01*
X76589431Y-91752732D01*
X76589432Y-91752734D01*
X76719954Y-91939141D01*
X76880858Y-92100045D01*
X76906058Y-92117690D01*
X77067266Y-92230568D01*
X77273504Y-92326739D01*
X77493308Y-92385635D01*
X77655230Y-92399801D01*
X77719998Y-92405468D01*
X77720000Y-92405468D01*
X77720002Y-92405468D01*
X77776673Y-92400509D01*
X77946692Y-92385635D01*
X78166496Y-92326739D01*
X78372734Y-92230568D01*
X78559139Y-92100047D01*
X78720047Y-91939139D01*
X78850568Y-91752734D01*
X78946739Y-91546496D01*
X79005635Y-91326692D01*
X79025468Y-91100001D01*
X86574532Y-91100001D01*
X86594364Y-91326686D01*
X86594366Y-91326697D01*
X86653258Y-91546488D01*
X86653261Y-91546497D01*
X86749431Y-91752732D01*
X86749432Y-91752734D01*
X86879954Y-91939141D01*
X87040858Y-92100045D01*
X87066058Y-92117690D01*
X87227266Y-92230568D01*
X87433504Y-92326739D01*
X87653308Y-92385635D01*
X87815230Y-92399801D01*
X87879998Y-92405468D01*
X87880000Y-92405468D01*
X87880002Y-92405468D01*
X87936673Y-92400509D01*
X88106692Y-92385635D01*
X88326496Y-92326739D01*
X88532734Y-92230568D01*
X88719139Y-92100047D01*
X88719186Y-92100000D01*
X89714551Y-92100000D01*
X89734317Y-92351151D01*
X89793126Y-92596110D01*
X89889533Y-92828859D01*
X90021160Y-93043653D01*
X90021161Y-93043656D01*
X90039460Y-93065081D01*
X90184776Y-93235224D01*
X90333066Y-93361875D01*
X90376343Y-93398838D01*
X90376346Y-93398839D01*
X90591140Y-93530466D01*
X90821361Y-93625826D01*
X90823889Y-93626873D01*
X91068852Y-93685683D01*
X91320000Y-93705449D01*
X91571148Y-93685683D01*
X91816111Y-93626873D01*
X92048859Y-93530466D01*
X92263659Y-93398836D01*
X92440417Y-93247870D01*
X99879500Y-93247870D01*
X99879501Y-93247876D01*
X99885908Y-93307483D01*
X99936202Y-93442328D01*
X99936206Y-93442335D01*
X100022452Y-93557544D01*
X100022455Y-93557547D01*
X100137664Y-93643793D01*
X100137671Y-93643797D01*
X100272517Y-93694091D01*
X100272516Y-93694091D01*
X100279444Y-93694835D01*
X100332127Y-93700500D01*
X102627872Y-93700499D01*
X102687483Y-93694091D01*
X102822331Y-93643796D01*
X102937546Y-93557546D01*
X103023796Y-93442331D01*
X103074091Y-93307483D01*
X103080500Y-93247873D01*
X103080499Y-90952128D01*
X103074091Y-90892517D01*
X103066928Y-90873313D01*
X103023797Y-90757671D01*
X103023793Y-90757664D01*
X102937547Y-90642455D01*
X102937544Y-90642452D01*
X102822335Y-90556206D01*
X102822328Y-90556202D01*
X102687482Y-90505908D01*
X102687483Y-90505908D01*
X102627883Y-90499501D01*
X102627881Y-90499500D01*
X102627873Y-90499500D01*
X102627864Y-90499500D01*
X100332129Y-90499500D01*
X100332123Y-90499501D01*
X100272516Y-90505908D01*
X100137671Y-90556202D01*
X100137664Y-90556206D01*
X100022455Y-90642452D01*
X100022452Y-90642455D01*
X99936206Y-90757664D01*
X99936202Y-90757671D01*
X99885908Y-90892517D01*
X99880269Y-90944974D01*
X99879501Y-90952123D01*
X99879500Y-90952135D01*
X99879500Y-93247870D01*
X92440417Y-93247870D01*
X92455224Y-93235224D01*
X92618836Y-93043659D01*
X92750466Y-92828859D01*
X92846873Y-92596111D01*
X92905683Y-92351148D01*
X92925449Y-92100000D01*
X92905683Y-91848852D01*
X92846873Y-91603889D01*
X92750466Y-91371141D01*
X92750466Y-91371140D01*
X92618839Y-91156346D01*
X92618838Y-91156343D01*
X92570716Y-91100000D01*
X92455224Y-90964776D01*
X92328571Y-90856604D01*
X92263656Y-90801161D01*
X92263653Y-90801160D01*
X92048859Y-90669533D01*
X91816110Y-90573126D01*
X91571151Y-90514317D01*
X91320000Y-90494551D01*
X91068848Y-90514317D01*
X90823889Y-90573126D01*
X90591140Y-90669533D01*
X90376346Y-90801160D01*
X90376343Y-90801161D01*
X90184776Y-90964776D01*
X90021161Y-91156343D01*
X90021160Y-91156346D01*
X89889533Y-91371140D01*
X89793126Y-91603889D01*
X89734317Y-91848848D01*
X89714551Y-92100000D01*
X88719186Y-92100000D01*
X88880047Y-91939139D01*
X89010568Y-91752734D01*
X89106739Y-91546496D01*
X89165635Y-91326692D01*
X89185468Y-91100000D01*
X89165635Y-90873308D01*
X89106739Y-90653504D01*
X89010568Y-90447266D01*
X88880047Y-90260861D01*
X88880045Y-90260858D01*
X88719141Y-90099954D01*
X88532734Y-89969432D01*
X88532732Y-89969431D01*
X88326497Y-89873261D01*
X88326488Y-89873258D01*
X88106697Y-89814366D01*
X88106693Y-89814365D01*
X88106692Y-89814365D01*
X88106691Y-89814364D01*
X88106686Y-89814364D01*
X87880002Y-89794532D01*
X87879998Y-89794532D01*
X87653313Y-89814364D01*
X87653302Y-89814366D01*
X87433511Y-89873258D01*
X87433502Y-89873261D01*
X87227267Y-89969431D01*
X87227265Y-89969432D01*
X87040858Y-90099954D01*
X86879954Y-90260858D01*
X86749432Y-90447265D01*
X86749431Y-90447267D01*
X86653261Y-90653502D01*
X86653258Y-90653511D01*
X86594366Y-90873302D01*
X86594364Y-90873313D01*
X86574532Y-91099998D01*
X86574532Y-91100001D01*
X79025468Y-91100001D01*
X79025468Y-91100000D01*
X79005635Y-90873308D01*
X78946739Y-90653504D01*
X78850568Y-90447266D01*
X78720047Y-90260861D01*
X78720045Y-90260858D01*
X78559141Y-90099954D01*
X78372734Y-89969432D01*
X78372732Y-89969431D01*
X78166497Y-89873261D01*
X78166488Y-89873258D01*
X77946697Y-89814366D01*
X77946693Y-89814365D01*
X77946692Y-89814365D01*
X77946691Y-89814364D01*
X77946686Y-89814364D01*
X77720002Y-89794532D01*
X77719998Y-89794532D01*
X77493313Y-89814364D01*
X77493302Y-89814366D01*
X77273511Y-89873258D01*
X77273502Y-89873261D01*
X77067267Y-89969431D01*
X77067265Y-89969432D01*
X76880858Y-90099954D01*
X76719954Y-90260858D01*
X76589432Y-90447265D01*
X76589431Y-90447267D01*
X76493261Y-90653502D01*
X76493258Y-90653511D01*
X76434366Y-90873302D01*
X76434364Y-90873313D01*
X76414532Y-91099998D01*
X76414532Y-91100001D01*
X69899915Y-91100001D01*
X69659329Y-91025032D01*
X69332076Y-90965060D01*
X69000000Y-90944974D01*
X68667923Y-90965060D01*
X68340670Y-91025032D01*
X68023071Y-91123999D01*
X68023056Y-91124005D01*
X67719680Y-91260543D01*
X67719678Y-91260545D01*
X67434968Y-91432657D01*
X67239415Y-91585862D01*
X67640228Y-91986675D01*
X67673713Y-92047998D01*
X67668729Y-92117690D01*
X67630803Y-92170543D01*
X67597155Y-92197917D01*
X67597154Y-92197919D01*
X67466070Y-92338275D01*
X67405926Y-92373834D01*
X67336105Y-92371231D01*
X67287766Y-92341319D01*
X66885862Y-91939415D01*
X66732657Y-92134968D01*
X66560545Y-92419678D01*
X66560543Y-92419680D01*
X66424005Y-92723056D01*
X66423999Y-92723071D01*
X66325032Y-93040670D01*
X66265060Y-93367923D01*
X66244974Y-93700000D01*
X65900500Y-93700000D01*
X65900500Y-87222934D01*
X70724500Y-87222934D01*
X70738522Y-87329432D01*
X70756591Y-87466677D01*
X70797904Y-87620861D01*
X70820222Y-87704152D01*
X70820225Y-87704162D01*
X70862933Y-87807267D01*
X70914306Y-87931292D01*
X71037233Y-88144208D01*
X71037235Y-88144211D01*
X71037236Y-88144212D01*
X71186897Y-88339254D01*
X71186903Y-88339261D01*
X71360738Y-88513096D01*
X71360744Y-88513101D01*
X71555792Y-88662767D01*
X71768708Y-88785694D01*
X71995847Y-88879778D01*
X72233323Y-88943409D01*
X72477073Y-88975500D01*
X72477080Y-88975500D01*
X72722920Y-88975500D01*
X72722927Y-88975500D01*
X72966677Y-88943409D01*
X73204153Y-88879778D01*
X73431292Y-88785694D01*
X73644208Y-88662767D01*
X73839256Y-88513101D01*
X73892356Y-88460001D01*
X96894532Y-88460001D01*
X96914364Y-88686686D01*
X96914366Y-88686697D01*
X96973258Y-88906488D01*
X96973261Y-88906497D01*
X97069431Y-89112732D01*
X97069432Y-89112734D01*
X97199954Y-89299141D01*
X97360858Y-89460045D01*
X97360861Y-89460047D01*
X97547266Y-89590568D01*
X97753504Y-89686739D01*
X97973308Y-89745635D01*
X98135230Y-89759801D01*
X98199998Y-89765468D01*
X98200000Y-89765468D01*
X98200002Y-89765468D01*
X98256673Y-89760509D01*
X98426692Y-89745635D01*
X98646496Y-89686739D01*
X98852734Y-89590568D01*
X99039139Y-89460047D01*
X99200047Y-89299139D01*
X99330568Y-89112734D01*
X99426739Y-88906496D01*
X99485635Y-88686692D01*
X99505468Y-88460000D01*
X99485635Y-88233308D01*
X99426739Y-88013504D01*
X99330568Y-87807266D01*
X99200047Y-87620861D01*
X99200045Y-87620858D01*
X99039141Y-87459954D01*
X98852734Y-87329432D01*
X98852732Y-87329431D01*
X98646497Y-87233261D01*
X98646488Y-87233258D01*
X98426697Y-87174366D01*
X98426693Y-87174365D01*
X98426692Y-87174365D01*
X98426691Y-87174364D01*
X98426686Y-87174364D01*
X98200002Y-87154532D01*
X98199998Y-87154532D01*
X97973313Y-87174364D01*
X97973302Y-87174366D01*
X97753511Y-87233258D01*
X97753502Y-87233261D01*
X97547267Y-87329431D01*
X97547265Y-87329432D01*
X97360858Y-87459954D01*
X97199954Y-87620858D01*
X97069432Y-87807265D01*
X97069431Y-87807267D01*
X96973261Y-88013502D01*
X96973258Y-88013511D01*
X96914366Y-88233302D01*
X96914364Y-88233313D01*
X96894532Y-88459998D01*
X96894532Y-88460001D01*
X73892356Y-88460001D01*
X74013101Y-88339256D01*
X74162767Y-88144208D01*
X74285694Y-87931292D01*
X74379778Y-87704153D01*
X74443409Y-87466677D01*
X74475500Y-87222927D01*
X74475500Y-86977073D01*
X74443409Y-86733323D01*
X74379778Y-86495847D01*
X74366316Y-86463348D01*
X74331185Y-86378533D01*
X74285694Y-86268708D01*
X74162767Y-86055792D01*
X74013101Y-85860744D01*
X74013096Y-85860738D01*
X73839261Y-85686903D01*
X73839254Y-85686897D01*
X73644212Y-85537236D01*
X73644211Y-85537235D01*
X73644208Y-85537233D01*
X73470260Y-85436804D01*
X73431294Y-85414307D01*
X73431285Y-85414303D01*
X73204162Y-85320225D01*
X73204155Y-85320223D01*
X73204153Y-85320222D01*
X72966677Y-85256591D01*
X72925939Y-85251227D01*
X72722934Y-85224500D01*
X72722927Y-85224500D01*
X72477073Y-85224500D01*
X72477065Y-85224500D01*
X72245059Y-85255045D01*
X72233323Y-85256591D01*
X71995847Y-85320222D01*
X71995837Y-85320225D01*
X71768714Y-85414303D01*
X71768705Y-85414307D01*
X71555787Y-85537236D01*
X71360745Y-85686897D01*
X71360738Y-85686903D01*
X71186903Y-85860738D01*
X71186897Y-85860745D01*
X71037236Y-86055787D01*
X70914307Y-86268705D01*
X70914303Y-86268714D01*
X70820225Y-86495837D01*
X70820222Y-86495847D01*
X70756592Y-86733320D01*
X70756590Y-86733331D01*
X70724500Y-86977065D01*
X70724500Y-87222934D01*
X65900500Y-87222934D01*
X65900500Y-82650001D01*
X77684685Y-82650001D01*
X77703907Y-82869714D01*
X77703909Y-82869724D01*
X77760990Y-83082755D01*
X77760995Y-83082769D01*
X77854203Y-83282654D01*
X77854207Y-83282662D01*
X77980712Y-83463330D01*
X78136669Y-83619287D01*
X78317337Y-83745792D01*
X78317339Y-83745793D01*
X78317342Y-83745795D01*
X78407360Y-83787771D01*
X78450514Y-83807894D01*
X78502953Y-83854066D01*
X78522105Y-83921260D01*
X78501889Y-83988141D01*
X78450514Y-84032658D01*
X78317594Y-84094640D01*
X78253248Y-84139694D01*
X78923554Y-84810000D01*
X78899972Y-84810000D01*
X78803325Y-84835896D01*
X78716675Y-84885924D01*
X78645924Y-84956675D01*
X78595896Y-85043325D01*
X78570000Y-85139972D01*
X78570000Y-85163554D01*
X77899694Y-84493248D01*
X77854640Y-84557594D01*
X77761466Y-84757404D01*
X77704402Y-84970366D01*
X77704401Y-84970373D01*
X77685187Y-85189998D01*
X77685187Y-85190001D01*
X77704401Y-85409626D01*
X77704402Y-85409634D01*
X77761463Y-85622587D01*
X77761466Y-85622593D01*
X77854638Y-85822402D01*
X77899694Y-85886750D01*
X78570000Y-85216445D01*
X78570000Y-85240028D01*
X78595896Y-85336675D01*
X78645924Y-85423325D01*
X78716675Y-85494076D01*
X78803325Y-85544104D01*
X78899972Y-85570000D01*
X78923553Y-85570000D01*
X78253247Y-86240304D01*
X78317593Y-86285359D01*
X78517406Y-86378533D01*
X78517412Y-86378536D01*
X78730365Y-86435597D01*
X78730373Y-86435598D01*
X78949998Y-86454813D01*
X78950002Y-86454813D01*
X79169626Y-86435598D01*
X79169634Y-86435597D01*
X79382587Y-86378536D01*
X79382598Y-86378532D01*
X79582402Y-86285362D01*
X79582410Y-86285358D01*
X79646751Y-86240305D01*
X79646751Y-86240304D01*
X79326448Y-85920001D01*
X86539532Y-85920001D01*
X86559364Y-86146686D01*
X86559366Y-86146697D01*
X86618258Y-86366488D01*
X86618261Y-86366497D01*
X86714431Y-86572732D01*
X86714432Y-86572734D01*
X86844954Y-86759141D01*
X87005858Y-86920045D01*
X87005861Y-86920047D01*
X87192266Y-87050568D01*
X87398504Y-87146739D01*
X87618308Y-87205635D01*
X87780230Y-87219801D01*
X87844998Y-87225468D01*
X87845000Y-87225468D01*
X87845002Y-87225468D01*
X87901673Y-87220509D01*
X88071692Y-87205635D01*
X88291496Y-87146739D01*
X88497734Y-87050568D01*
X88684139Y-86920047D01*
X88845047Y-86759139D01*
X88975568Y-86572734D01*
X89002618Y-86514724D01*
X89048790Y-86462285D01*
X89115983Y-86443133D01*
X89182865Y-86463348D01*
X89227382Y-86514725D01*
X89254429Y-86572728D01*
X89254432Y-86572734D01*
X89384954Y-86759141D01*
X89545858Y-86920045D01*
X89545861Y-86920047D01*
X89732266Y-87050568D01*
X89938504Y-87146739D01*
X90158308Y-87205635D01*
X90320230Y-87219801D01*
X90384998Y-87225468D01*
X90385000Y-87225468D01*
X90385002Y-87225468D01*
X90441673Y-87220509D01*
X90611692Y-87205635D01*
X90831496Y-87146739D01*
X91037734Y-87050568D01*
X91224139Y-86920047D01*
X91385047Y-86759139D01*
X91515568Y-86572734D01*
X91542618Y-86514724D01*
X91588790Y-86462285D01*
X91655983Y-86443133D01*
X91722865Y-86463348D01*
X91767382Y-86514725D01*
X91794429Y-86572728D01*
X91794432Y-86572734D01*
X91924954Y-86759141D01*
X92085858Y-86920045D01*
X92085861Y-86920047D01*
X92272266Y-87050568D01*
X92478504Y-87146739D01*
X92698308Y-87205635D01*
X92860230Y-87219801D01*
X92924998Y-87225468D01*
X92925000Y-87225468D01*
X92925002Y-87225468D01*
X92981673Y-87220509D01*
X93151692Y-87205635D01*
X93371496Y-87146739D01*
X93577734Y-87050568D01*
X93764139Y-86920047D01*
X93925047Y-86759139D01*
X94055568Y-86572734D01*
X94151739Y-86366496D01*
X94210635Y-86146692D01*
X94230468Y-85920000D01*
X94210635Y-85693308D01*
X94151739Y-85473504D01*
X94055568Y-85267266D01*
X93925047Y-85080861D01*
X93925045Y-85080858D01*
X93764141Y-84919954D01*
X93577734Y-84789432D01*
X93577732Y-84789431D01*
X93371497Y-84693261D01*
X93371488Y-84693258D01*
X93151697Y-84634366D01*
X93151693Y-84634365D01*
X93151692Y-84634365D01*
X93151691Y-84634364D01*
X93151686Y-84634364D01*
X92925002Y-84614532D01*
X92924998Y-84614532D01*
X92698313Y-84634364D01*
X92698302Y-84634366D01*
X92478511Y-84693258D01*
X92478502Y-84693261D01*
X92272267Y-84789431D01*
X92272265Y-84789432D01*
X92085858Y-84919954D01*
X91924954Y-85080858D01*
X91794432Y-85267265D01*
X91794431Y-85267267D01*
X91767382Y-85325275D01*
X91721209Y-85377714D01*
X91654016Y-85396866D01*
X91587135Y-85376650D01*
X91542618Y-85325275D01*
X91515568Y-85267267D01*
X91515567Y-85267265D01*
X91508092Y-85256590D01*
X91385047Y-85080861D01*
X91385045Y-85080858D01*
X91224141Y-84919954D01*
X91037734Y-84789432D01*
X91037732Y-84789431D01*
X90831497Y-84693261D01*
X90831488Y-84693258D01*
X90611697Y-84634366D01*
X90611693Y-84634365D01*
X90611692Y-84634365D01*
X90611691Y-84634364D01*
X90611686Y-84634364D01*
X90385002Y-84614532D01*
X90384998Y-84614532D01*
X90158313Y-84634364D01*
X90158302Y-84634366D01*
X89938511Y-84693258D01*
X89938502Y-84693261D01*
X89732267Y-84789431D01*
X89732265Y-84789432D01*
X89545858Y-84919954D01*
X89384954Y-85080858D01*
X89254432Y-85267265D01*
X89254431Y-85267267D01*
X89227382Y-85325275D01*
X89181209Y-85377714D01*
X89114016Y-85396866D01*
X89047135Y-85376650D01*
X89002618Y-85325275D01*
X88975568Y-85267267D01*
X88975567Y-85267265D01*
X88968092Y-85256590D01*
X88845047Y-85080861D01*
X88845045Y-85080858D01*
X88684141Y-84919954D01*
X88497734Y-84789432D01*
X88497732Y-84789431D01*
X88291497Y-84693261D01*
X88291488Y-84693258D01*
X88071697Y-84634366D01*
X88071693Y-84634365D01*
X88071692Y-84634365D01*
X88071691Y-84634364D01*
X88071686Y-84634364D01*
X87845002Y-84614532D01*
X87844998Y-84614532D01*
X87618313Y-84634364D01*
X87618302Y-84634366D01*
X87398511Y-84693258D01*
X87398502Y-84693261D01*
X87192267Y-84789431D01*
X87192265Y-84789432D01*
X87005858Y-84919954D01*
X86844954Y-85080858D01*
X86714432Y-85267265D01*
X86714431Y-85267267D01*
X86618261Y-85473502D01*
X86618258Y-85473511D01*
X86559366Y-85693302D01*
X86559364Y-85693313D01*
X86539532Y-85919998D01*
X86539532Y-85920001D01*
X79326448Y-85920001D01*
X78976448Y-85570000D01*
X79000028Y-85570000D01*
X79096675Y-85544104D01*
X79183325Y-85494076D01*
X79254076Y-85423325D01*
X79304104Y-85336675D01*
X79330000Y-85240028D01*
X79330000Y-85216447D01*
X80000304Y-85886751D01*
X80000305Y-85886751D01*
X80045358Y-85822410D01*
X80045362Y-85822402D01*
X80138532Y-85622598D01*
X80138536Y-85622587D01*
X80195597Y-85409634D01*
X80195598Y-85409626D01*
X80214813Y-85190001D01*
X80214813Y-85189998D01*
X80195598Y-84970373D01*
X80195597Y-84970366D01*
X80138533Y-84757404D01*
X80045360Y-84557595D01*
X80045359Y-84557593D01*
X80000304Y-84493248D01*
X80000304Y-84493247D01*
X79330000Y-85163551D01*
X79330000Y-85139972D01*
X79304104Y-85043325D01*
X79254076Y-84956675D01*
X79183325Y-84885924D01*
X79096675Y-84835896D01*
X79000028Y-84810000D01*
X78976447Y-84810000D01*
X79646751Y-84139694D01*
X79582402Y-84094638D01*
X79449485Y-84032657D01*
X79397046Y-83986484D01*
X79377894Y-83919291D01*
X79398110Y-83852410D01*
X79449481Y-83807895D01*
X79582658Y-83745795D01*
X79763329Y-83619288D01*
X79919288Y-83463329D01*
X80045795Y-83282658D01*
X80139007Y-83082763D01*
X80196092Y-82869720D01*
X80215315Y-82650000D01*
X80196092Y-82430280D01*
X80139007Y-82217237D01*
X80045795Y-82017343D01*
X79919288Y-81836671D01*
X79919286Y-81836668D01*
X79763330Y-81680712D01*
X79582662Y-81554207D01*
X79582654Y-81554203D01*
X79521626Y-81525745D01*
X79450076Y-81492381D01*
X79397637Y-81446210D01*
X79378485Y-81379017D01*
X79398700Y-81312136D01*
X79450077Y-81267618D01*
X79582658Y-81205795D01*
X79763329Y-81079288D01*
X79919288Y-80923329D01*
X80045795Y-80742658D01*
X80139007Y-80542763D01*
X80196092Y-80329720D01*
X80215315Y-80110000D01*
X80200586Y-79941650D01*
X80214352Y-79873152D01*
X80262968Y-79822969D01*
X80330996Y-79807035D01*
X80396840Y-79830410D01*
X80411795Y-79843163D01*
X80511344Y-79942712D01*
X80660666Y-80034814D01*
X80802145Y-80081695D01*
X80859588Y-80121466D01*
X80886412Y-80185982D01*
X80874097Y-80254758D01*
X80834262Y-80300976D01*
X80793247Y-80329693D01*
X81463554Y-81000000D01*
X81439972Y-81000000D01*
X81343325Y-81025896D01*
X81256675Y-81075924D01*
X81185924Y-81146675D01*
X81135896Y-81233325D01*
X81110000Y-81329972D01*
X81110000Y-81353554D01*
X80439694Y-80683248D01*
X80394640Y-80747594D01*
X80301466Y-80947404D01*
X80244402Y-81160366D01*
X80244401Y-81160373D01*
X80225187Y-81379998D01*
X80225187Y-81380001D01*
X80244401Y-81599626D01*
X80244402Y-81599634D01*
X80301463Y-81812587D01*
X80301466Y-81812593D01*
X80394638Y-82012402D01*
X80439694Y-82076750D01*
X81110000Y-81406445D01*
X81110000Y-81430028D01*
X81135896Y-81526675D01*
X81185924Y-81613325D01*
X81256675Y-81684076D01*
X81343325Y-81734104D01*
X81439972Y-81760000D01*
X81463553Y-81760000D01*
X80793247Y-82430304D01*
X80857593Y-82475360D01*
X80990514Y-82537342D01*
X81042953Y-82583514D01*
X81062105Y-82650708D01*
X81041889Y-82717589D01*
X80990514Y-82762106D01*
X80857344Y-82824204D01*
X80857342Y-82824205D01*
X80676668Y-82950713D01*
X80520713Y-83106668D01*
X80394205Y-83287342D01*
X80394204Y-83287344D01*
X80300994Y-83487235D01*
X80300990Y-83487244D01*
X80243909Y-83700275D01*
X80243907Y-83700285D01*
X80224685Y-83919998D01*
X80224685Y-83920001D01*
X80243907Y-84139714D01*
X80243909Y-84139724D01*
X80300990Y-84352755D01*
X80300995Y-84352769D01*
X80394203Y-84552654D01*
X80394207Y-84552662D01*
X80520712Y-84733330D01*
X80676669Y-84889287D01*
X80857337Y-85015792D01*
X80857339Y-85015793D01*
X80857342Y-85015795D01*
X80916381Y-85043325D01*
X81057230Y-85109004D01*
X81057232Y-85109004D01*
X81057237Y-85109007D01*
X81270280Y-85166092D01*
X81427222Y-85179822D01*
X81489998Y-85185315D01*
X81490000Y-85185315D01*
X81490002Y-85185315D01*
X81544930Y-85180509D01*
X81709720Y-85166092D01*
X81922763Y-85109007D01*
X82122658Y-85015795D01*
X82303329Y-84889288D01*
X82459288Y-84733329D01*
X82585795Y-84552658D01*
X82679007Y-84352763D01*
X82736092Y-84139720D01*
X82755315Y-83920000D01*
X82736092Y-83700280D01*
X82682985Y-83502082D01*
X82679009Y-83487244D01*
X82679008Y-83487243D01*
X82679007Y-83487237D01*
X82585795Y-83287343D01*
X82459288Y-83106671D01*
X82459286Y-83106668D01*
X82303330Y-82950712D01*
X82122662Y-82824207D01*
X82122654Y-82824203D01*
X81989486Y-82762106D01*
X81937046Y-82715934D01*
X81917894Y-82648740D01*
X81938110Y-82581859D01*
X81989486Y-82537342D01*
X82122402Y-82475362D01*
X82122410Y-82475358D01*
X82186751Y-82430305D01*
X82186751Y-82430304D01*
X81516448Y-81760000D01*
X81540028Y-81760000D01*
X81636675Y-81734104D01*
X81723325Y-81684076D01*
X81794076Y-81613325D01*
X81844104Y-81526675D01*
X81870000Y-81430028D01*
X81870000Y-81406447D01*
X82540304Y-82076751D01*
X82540305Y-82076751D01*
X82585358Y-82012410D01*
X82585362Y-82012402D01*
X82678532Y-81812598D01*
X82678536Y-81812587D01*
X82735597Y-81599634D01*
X82735598Y-81599626D01*
X82754813Y-81380001D01*
X82754813Y-81379998D01*
X82735598Y-81160373D01*
X82735597Y-81160366D01*
X82678533Y-80947404D01*
X82637776Y-80860001D01*
X101794532Y-80860001D01*
X101814364Y-81086686D01*
X101814366Y-81086697D01*
X101873258Y-81306488D01*
X101873261Y-81306497D01*
X101969431Y-81512732D01*
X101969432Y-81512734D01*
X102099954Y-81699141D01*
X102260858Y-81860045D01*
X102260861Y-81860047D01*
X102447266Y-81990568D01*
X102653504Y-82086739D01*
X102873308Y-82145635D01*
X103035230Y-82159801D01*
X103099998Y-82165468D01*
X103100000Y-82165468D01*
X103100002Y-82165468D01*
X103156673Y-82160509D01*
X103326692Y-82145635D01*
X103546496Y-82086739D01*
X103732507Y-82000000D01*
X129394974Y-82000000D01*
X129415060Y-82332076D01*
X129475032Y-82659329D01*
X129573999Y-82976928D01*
X129574005Y-82976943D01*
X129710543Y-83280319D01*
X129710545Y-83280321D01*
X129882657Y-83565031D01*
X129882662Y-83565039D01*
X130035862Y-83760583D01*
X130437766Y-83358679D01*
X130499089Y-83325194D01*
X130568780Y-83330178D01*
X130616071Y-83361724D01*
X130747155Y-83502081D01*
X130747155Y-83502082D01*
X130780802Y-83529456D01*
X130820382Y-83587033D01*
X130822550Y-83656869D01*
X130790227Y-83713324D01*
X130389415Y-84114136D01*
X130389415Y-84114137D01*
X130584960Y-84267337D01*
X130584968Y-84267342D01*
X130869678Y-84439454D01*
X130869680Y-84439456D01*
X131173056Y-84575994D01*
X131173071Y-84576000D01*
X131490670Y-84674967D01*
X131817923Y-84734939D01*
X132150000Y-84755025D01*
X132482076Y-84734939D01*
X132809329Y-84674967D01*
X133126928Y-84576000D01*
X133126943Y-84575994D01*
X133430319Y-84439456D01*
X133430321Y-84439454D01*
X133715030Y-84267343D01*
X133910583Y-84114137D01*
X133910583Y-84114136D01*
X133509771Y-83713324D01*
X133476286Y-83652001D01*
X133481270Y-83582309D01*
X133519197Y-83529455D01*
X133552845Y-83502081D01*
X133683930Y-83361721D01*
X133744071Y-83326165D01*
X133813892Y-83328766D01*
X133862232Y-83358679D01*
X134264136Y-83760583D01*
X134264137Y-83760583D01*
X134417343Y-83565030D01*
X134589454Y-83280321D01*
X134589456Y-83280319D01*
X134725994Y-82976943D01*
X134726000Y-82976928D01*
X134824967Y-82659329D01*
X134884939Y-82332076D01*
X134905025Y-82000000D01*
X134884939Y-81667923D01*
X134824967Y-81340670D01*
X134726000Y-81023071D01*
X134725994Y-81023056D01*
X134589456Y-80719680D01*
X134589454Y-80719678D01*
X134417342Y-80434968D01*
X134417337Y-80434960D01*
X134264136Y-80239415D01*
X133862232Y-80641319D01*
X133800909Y-80674804D01*
X133731217Y-80669820D01*
X133683927Y-80638274D01*
X133552844Y-80497918D01*
X133552843Y-80497917D01*
X133519196Y-80470542D01*
X133479616Y-80412964D01*
X133477448Y-80343128D01*
X133509771Y-80286674D01*
X133910583Y-79885862D01*
X133910583Y-79885861D01*
X133715039Y-79732662D01*
X133715031Y-79732657D01*
X133430321Y-79560545D01*
X133430319Y-79560543D01*
X133126943Y-79424005D01*
X133126928Y-79423999D01*
X132809329Y-79325032D01*
X132482076Y-79265060D01*
X132150000Y-79244974D01*
X131817923Y-79265060D01*
X131490670Y-79325032D01*
X131173071Y-79423999D01*
X131173056Y-79424005D01*
X130869680Y-79560543D01*
X130869678Y-79560545D01*
X130584968Y-79732657D01*
X130389415Y-79885862D01*
X130790228Y-80286675D01*
X130823713Y-80347998D01*
X130818729Y-80417690D01*
X130780803Y-80470543D01*
X130747155Y-80497917D01*
X130747154Y-80497919D01*
X130616070Y-80638275D01*
X130555926Y-80673834D01*
X130486105Y-80671231D01*
X130437766Y-80641319D01*
X130035862Y-80239415D01*
X129882657Y-80434968D01*
X129710545Y-80719678D01*
X129710543Y-80719680D01*
X129574005Y-81023056D01*
X129573999Y-81023071D01*
X129475032Y-81340670D01*
X129415060Y-81667923D01*
X129394974Y-82000000D01*
X103732507Y-82000000D01*
X103752734Y-81990568D01*
X103939139Y-81860047D01*
X104100047Y-81699139D01*
X104230568Y-81512734D01*
X104326739Y-81306496D01*
X104385635Y-81086692D01*
X104405468Y-80860000D01*
X104385635Y-80633308D01*
X104326739Y-80413504D01*
X104230568Y-80207266D01*
X104100047Y-80020861D01*
X104100045Y-80020858D01*
X103939141Y-79859954D01*
X103752734Y-79729432D01*
X103752732Y-79729431D01*
X103546497Y-79633261D01*
X103546488Y-79633258D01*
X103326697Y-79574366D01*
X103326693Y-79574365D01*
X103326692Y-79574365D01*
X103326691Y-79574364D01*
X103326686Y-79574364D01*
X103100002Y-79554532D01*
X103099998Y-79554532D01*
X102873313Y-79574364D01*
X102873302Y-79574366D01*
X102653511Y-79633258D01*
X102653502Y-79633261D01*
X102447267Y-79729431D01*
X102447265Y-79729432D01*
X102260858Y-79859954D01*
X102099954Y-80020858D01*
X101969432Y-80207265D01*
X101969431Y-80207267D01*
X101873261Y-80413502D01*
X101873258Y-80413511D01*
X101814366Y-80633302D01*
X101814364Y-80633313D01*
X101794532Y-80859998D01*
X101794532Y-80860001D01*
X82637776Y-80860001D01*
X82585360Y-80747595D01*
X82585359Y-80747593D01*
X82540304Y-80683248D01*
X82540304Y-80683247D01*
X81870000Y-81353551D01*
X81870000Y-81329972D01*
X81844104Y-81233325D01*
X81794076Y-81146675D01*
X81723325Y-81075924D01*
X81636675Y-81025896D01*
X81540028Y-81000000D01*
X81516447Y-81000000D01*
X82186751Y-80329694D01*
X82145738Y-80300977D01*
X82102112Y-80246400D01*
X82094918Y-80176902D01*
X82126440Y-80114547D01*
X82177855Y-80081695D01*
X82319334Y-80034814D01*
X82468656Y-79942712D01*
X82592712Y-79818656D01*
X82684814Y-79669334D01*
X82739999Y-79502797D01*
X82750500Y-79400009D01*
X82750499Y-78300001D01*
X86539532Y-78300001D01*
X86559364Y-78526686D01*
X86559366Y-78526697D01*
X86618258Y-78746488D01*
X86618261Y-78746497D01*
X86714431Y-78952732D01*
X86714432Y-78952734D01*
X86844954Y-79139141D01*
X87005858Y-79300045D01*
X87005861Y-79300047D01*
X87192266Y-79430568D01*
X87398504Y-79526739D01*
X87618308Y-79585635D01*
X87780230Y-79599801D01*
X87844998Y-79605468D01*
X87845000Y-79605468D01*
X87845002Y-79605468D01*
X87901807Y-79600498D01*
X88071692Y-79585635D01*
X88291496Y-79526739D01*
X88497734Y-79430568D01*
X88684139Y-79300047D01*
X88845047Y-79139139D01*
X88975568Y-78952734D01*
X89002895Y-78894129D01*
X89049064Y-78841695D01*
X89116257Y-78822542D01*
X89183139Y-78842757D01*
X89227657Y-78894133D01*
X89254865Y-78952482D01*
X89385342Y-79138820D01*
X89546179Y-79299657D01*
X89732517Y-79430134D01*
X89938673Y-79526265D01*
X89938682Y-79526269D01*
X90134999Y-79578872D01*
X90135000Y-79578871D01*
X90135000Y-78615686D01*
X90139394Y-78620080D01*
X90230606Y-78672741D01*
X90332339Y-78700000D01*
X90437661Y-78700000D01*
X90539394Y-78672741D01*
X90630606Y-78620080D01*
X90635000Y-78615686D01*
X90635000Y-79578872D01*
X90831317Y-79526269D01*
X90831326Y-79526265D01*
X91037482Y-79430134D01*
X91223820Y-79299657D01*
X91384658Y-79138819D01*
X91402190Y-79113781D01*
X91456766Y-79070155D01*
X91526264Y-79062961D01*
X91588619Y-79094482D01*
X91624034Y-79154712D01*
X91627055Y-79171647D01*
X91630907Y-79207480D01*
X91681202Y-79342328D01*
X91681206Y-79342335D01*
X91767452Y-79457544D01*
X91767455Y-79457547D01*
X91882664Y-79543793D01*
X91882671Y-79543797D01*
X92017517Y-79594091D01*
X92017516Y-79594091D01*
X92024444Y-79594835D01*
X92077127Y-79600500D01*
X93772872Y-79600499D01*
X93832483Y-79594091D01*
X93967331Y-79543796D01*
X94082546Y-79457546D01*
X94168796Y-79342331D01*
X94219091Y-79207483D01*
X94225500Y-79147873D01*
X94225500Y-78300001D01*
X96894532Y-78300001D01*
X96914364Y-78526686D01*
X96914366Y-78526697D01*
X96973258Y-78746488D01*
X96973261Y-78746497D01*
X97069431Y-78952732D01*
X97069432Y-78952734D01*
X97199954Y-79139141D01*
X97360858Y-79300045D01*
X97360861Y-79300047D01*
X97547266Y-79430568D01*
X97753504Y-79526739D01*
X97973308Y-79585635D01*
X98135230Y-79599801D01*
X98199998Y-79605468D01*
X98200000Y-79605468D01*
X98200002Y-79605468D01*
X98256807Y-79600498D01*
X98426692Y-79585635D01*
X98646496Y-79526739D01*
X98852734Y-79430568D01*
X99039139Y-79300047D01*
X99200047Y-79139139D01*
X99330568Y-78952734D01*
X99426739Y-78746496D01*
X99485635Y-78526692D01*
X99505468Y-78300000D01*
X99503717Y-78279991D01*
X99494725Y-78177204D01*
X99485635Y-78073308D01*
X99426739Y-77853504D01*
X99330568Y-77647266D01*
X99200047Y-77460861D01*
X99200045Y-77460858D01*
X99039141Y-77299954D01*
X98852734Y-77169432D01*
X98852732Y-77169431D01*
X98646497Y-77073261D01*
X98646488Y-77073258D01*
X98426697Y-77014366D01*
X98426693Y-77014365D01*
X98426692Y-77014365D01*
X98426691Y-77014364D01*
X98426686Y-77014364D01*
X98200002Y-76994532D01*
X98199998Y-76994532D01*
X97973313Y-77014364D01*
X97973302Y-77014366D01*
X97753511Y-77073258D01*
X97753502Y-77073261D01*
X97547267Y-77169431D01*
X97547265Y-77169432D01*
X97360858Y-77299954D01*
X97199954Y-77460858D01*
X97069432Y-77647265D01*
X97069431Y-77647267D01*
X96973261Y-77853502D01*
X96973258Y-77853511D01*
X96914366Y-78073302D01*
X96914364Y-78073313D01*
X96894532Y-78299998D01*
X96894532Y-78300001D01*
X94225500Y-78300001D01*
X94225499Y-77452128D01*
X94219091Y-77392517D01*
X94187071Y-77306668D01*
X94168797Y-77257671D01*
X94168793Y-77257664D01*
X94082547Y-77142455D01*
X94082544Y-77142452D01*
X93967335Y-77056206D01*
X93967328Y-77056202D01*
X93832482Y-77005908D01*
X93832483Y-77005908D01*
X93772883Y-76999501D01*
X93772881Y-76999500D01*
X93772873Y-76999500D01*
X93772864Y-76999500D01*
X92077129Y-76999500D01*
X92077123Y-76999501D01*
X92017516Y-77005908D01*
X91882671Y-77056202D01*
X91882664Y-77056206D01*
X91767455Y-77142452D01*
X91767452Y-77142455D01*
X91681206Y-77257664D01*
X91681202Y-77257671D01*
X91630908Y-77392517D01*
X91627056Y-77428352D01*
X91600318Y-77492903D01*
X91542926Y-77532752D01*
X91473101Y-77535245D01*
X91413012Y-77499593D01*
X91402192Y-77486221D01*
X91384657Y-77461179D01*
X91223820Y-77300342D01*
X91037482Y-77169865D01*
X90831328Y-77073734D01*
X90635000Y-77021127D01*
X90635000Y-77984314D01*
X90630606Y-77979920D01*
X90539394Y-77927259D01*
X90437661Y-77900000D01*
X90332339Y-77900000D01*
X90230606Y-77927259D01*
X90139394Y-77979920D01*
X90135000Y-77984314D01*
X90135000Y-77021127D01*
X89938671Y-77073734D01*
X89732517Y-77169865D01*
X89546179Y-77300342D01*
X89385342Y-77461179D01*
X89254867Y-77647515D01*
X89227657Y-77705867D01*
X89181484Y-77758306D01*
X89114290Y-77777457D01*
X89047409Y-77757241D01*
X89002893Y-77705865D01*
X88975570Y-77647271D01*
X88975567Y-77647265D01*
X88974111Y-77645186D01*
X88845047Y-77460861D01*
X88845045Y-77460858D01*
X88684141Y-77299954D01*
X88497734Y-77169432D01*
X88497732Y-77169431D01*
X88291497Y-77073261D01*
X88291488Y-77073258D01*
X88071697Y-77014366D01*
X88071693Y-77014365D01*
X88071692Y-77014365D01*
X88071691Y-77014364D01*
X88071686Y-77014364D01*
X87845002Y-76994532D01*
X87844998Y-76994532D01*
X87618313Y-77014364D01*
X87618302Y-77014366D01*
X87398511Y-77073258D01*
X87398502Y-77073261D01*
X87192267Y-77169431D01*
X87192265Y-77169432D01*
X87005858Y-77299954D01*
X86844954Y-77460858D01*
X86714432Y-77647265D01*
X86714431Y-77647267D01*
X86618261Y-77853502D01*
X86618258Y-77853511D01*
X86559366Y-78073302D01*
X86559364Y-78073313D01*
X86539532Y-78299998D01*
X86539532Y-78300001D01*
X82750499Y-78300001D01*
X82750499Y-78279992D01*
X82747163Y-78247339D01*
X82739999Y-78177203D01*
X82739998Y-78177200D01*
X82705573Y-78073313D01*
X82684814Y-78010666D01*
X82592712Y-77861344D01*
X82468656Y-77737288D01*
X82323110Y-77647515D01*
X82319336Y-77645187D01*
X82319331Y-77645185D01*
X82317862Y-77644698D01*
X82152797Y-77590001D01*
X82152795Y-77590000D01*
X82050010Y-77579500D01*
X80929998Y-77579500D01*
X80929981Y-77579501D01*
X80827203Y-77590000D01*
X80827200Y-77590001D01*
X80660668Y-77645185D01*
X80660663Y-77645187D01*
X80511342Y-77737289D01*
X80387289Y-77861342D01*
X80295187Y-78010663D01*
X80295186Y-78010666D01*
X80240001Y-78177203D01*
X80240001Y-78177204D01*
X80240000Y-78177204D01*
X80229500Y-78279983D01*
X80229500Y-79346424D01*
X80209815Y-79413463D01*
X80157011Y-79459218D01*
X80087853Y-79469162D01*
X80024297Y-79440137D01*
X80003931Y-79417555D01*
X79919288Y-79296671D01*
X79919285Y-79296668D01*
X79919283Y-79296665D01*
X79763330Y-79140712D01*
X79582662Y-79014207D01*
X79582654Y-79014203D01*
X79382769Y-78920995D01*
X79382755Y-78920990D01*
X79169724Y-78863909D01*
X79169722Y-78863908D01*
X79169720Y-78863908D01*
X79169718Y-78863907D01*
X79169714Y-78863907D01*
X78950002Y-78844685D01*
X78949998Y-78844685D01*
X78730285Y-78863907D01*
X78730275Y-78863909D01*
X78517244Y-78920990D01*
X78517235Y-78920994D01*
X78317344Y-79014204D01*
X78317342Y-79014205D01*
X78136668Y-79140713D01*
X77980713Y-79296668D01*
X77854205Y-79477342D01*
X77854204Y-79477344D01*
X77760994Y-79677235D01*
X77760990Y-79677244D01*
X77703909Y-79890275D01*
X77703907Y-79890285D01*
X77684685Y-80109998D01*
X77684685Y-80110001D01*
X77703907Y-80329714D01*
X77703909Y-80329724D01*
X77760990Y-80542755D01*
X77760995Y-80542769D01*
X77854203Y-80742654D01*
X77854207Y-80742662D01*
X77980712Y-80923330D01*
X78136669Y-81079287D01*
X78317337Y-81205792D01*
X78317339Y-81205793D01*
X78317342Y-81205795D01*
X78376381Y-81233325D01*
X78449923Y-81267618D01*
X78502362Y-81313790D01*
X78521514Y-81380984D01*
X78501298Y-81447865D01*
X78449923Y-81492382D01*
X78317344Y-81554204D01*
X78317342Y-81554205D01*
X78136668Y-81680713D01*
X77980713Y-81836668D01*
X77854205Y-82017342D01*
X77854204Y-82017344D01*
X77760994Y-82217235D01*
X77760990Y-82217244D01*
X77703909Y-82430275D01*
X77703907Y-82430285D01*
X77684685Y-82649998D01*
X77684685Y-82650001D01*
X65900500Y-82650001D01*
X65900500Y-77062934D01*
X70724500Y-77062934D01*
X70738522Y-77169432D01*
X70756591Y-77306677D01*
X70817167Y-77532752D01*
X70820222Y-77544152D01*
X70820225Y-77544162D01*
X70908486Y-77757241D01*
X70914306Y-77771292D01*
X71037233Y-77984208D01*
X71037235Y-77984211D01*
X71037236Y-77984212D01*
X71186897Y-78179254D01*
X71186903Y-78179261D01*
X71360738Y-78353096D01*
X71360744Y-78353101D01*
X71555792Y-78502767D01*
X71768708Y-78625694D01*
X71995847Y-78719778D01*
X72233323Y-78783409D01*
X72477073Y-78815500D01*
X72477080Y-78815500D01*
X72722920Y-78815500D01*
X72722927Y-78815500D01*
X72966677Y-78783409D01*
X73204153Y-78719778D01*
X73431292Y-78625694D01*
X73644208Y-78502767D01*
X73839256Y-78353101D01*
X74013101Y-78179256D01*
X74162767Y-77984208D01*
X74285694Y-77771292D01*
X74379778Y-77544153D01*
X74443409Y-77306677D01*
X74475500Y-77062927D01*
X74475500Y-76817073D01*
X74443409Y-76573323D01*
X74379778Y-76335847D01*
X74285694Y-76108708D01*
X74162767Y-75895792D01*
X74013101Y-75700744D01*
X74013096Y-75700738D01*
X73839261Y-75526903D01*
X73839254Y-75526897D01*
X73644212Y-75377236D01*
X73644211Y-75377235D01*
X73644208Y-75377233D01*
X73431292Y-75254306D01*
X73431285Y-75254303D01*
X73204162Y-75160225D01*
X73204155Y-75160223D01*
X73204153Y-75160222D01*
X73139394Y-75142870D01*
X94909500Y-75142870D01*
X94909501Y-75142876D01*
X94915908Y-75202483D01*
X94966202Y-75337328D01*
X94966206Y-75337335D01*
X95052452Y-75452544D01*
X95052455Y-75452547D01*
X95167664Y-75538793D01*
X95167671Y-75538797D01*
X95302517Y-75589091D01*
X95302516Y-75589091D01*
X95309444Y-75589835D01*
X95362127Y-75595500D01*
X96957872Y-75595499D01*
X97017483Y-75589091D01*
X97152331Y-75538796D01*
X97267546Y-75452546D01*
X97353796Y-75337331D01*
X97404091Y-75202483D01*
X97410500Y-75142873D01*
X97410499Y-73997128D01*
X97404091Y-73937517D01*
X97353796Y-73802669D01*
X97352967Y-73801562D01*
X97352485Y-73800268D01*
X97349546Y-73794886D01*
X97350319Y-73794463D01*
X97328551Y-73736099D01*
X97337675Y-73679798D01*
X97371089Y-73599132D01*
X97371089Y-73599131D01*
X97371091Y-73599127D01*
X97410500Y-73401003D01*
X97410500Y-73198997D01*
X97371091Y-73000873D01*
X97293786Y-72814244D01*
X97239794Y-72733439D01*
X97218917Y-72666764D01*
X97237401Y-72599384D01*
X97239796Y-72595658D01*
X97293344Y-72515518D01*
X97293346Y-72515515D01*
X97370609Y-72328983D01*
X97370612Y-72328974D01*
X97380353Y-72280000D01*
X96525866Y-72280000D01*
X96501674Y-72277617D01*
X96486004Y-72274500D01*
X96486003Y-72274500D01*
X96445830Y-72274500D01*
X96460075Y-72260255D01*
X96509444Y-72174745D01*
X96535000Y-72079370D01*
X96535000Y-71980630D01*
X96509444Y-71885255D01*
X96460075Y-71799745D01*
X96440330Y-71780000D01*
X97380353Y-71780000D01*
X97370612Y-71731025D01*
X97370609Y-71731016D01*
X97293347Y-71544486D01*
X97293340Y-71544473D01*
X97181170Y-71376600D01*
X97181167Y-71376596D01*
X97038403Y-71233832D01*
X97038399Y-71233829D01*
X96870526Y-71121659D01*
X96870513Y-71121652D01*
X96683983Y-71044390D01*
X96683974Y-71044387D01*
X96485958Y-71005000D01*
X96410000Y-71005000D01*
X96410000Y-71749670D01*
X96390255Y-71729925D01*
X96304745Y-71680556D01*
X96209370Y-71655000D01*
X96110630Y-71655000D01*
X96015255Y-71680556D01*
X95929745Y-71729925D01*
X95910000Y-71749670D01*
X95910000Y-71005000D01*
X95834041Y-71005000D01*
X95636025Y-71044387D01*
X95636016Y-71044390D01*
X95449486Y-71121652D01*
X95449473Y-71121659D01*
X95281600Y-71233829D01*
X95281596Y-71233832D01*
X95138832Y-71376596D01*
X95138829Y-71376600D01*
X95026659Y-71544473D01*
X95026652Y-71544486D01*
X94949390Y-71731016D01*
X94949387Y-71731025D01*
X94939647Y-71780000D01*
X95879670Y-71780000D01*
X95859925Y-71799745D01*
X95810556Y-71885255D01*
X95785000Y-71980630D01*
X95785000Y-72079370D01*
X95810556Y-72174745D01*
X95859925Y-72260255D01*
X95874170Y-72274500D01*
X95833997Y-72274500D01*
X95833996Y-72274500D01*
X95818326Y-72277617D01*
X95794134Y-72280000D01*
X94939647Y-72280000D01*
X94949387Y-72328974D01*
X94949390Y-72328983D01*
X95026652Y-72515513D01*
X95026659Y-72515526D01*
X95080203Y-72595659D01*
X95101081Y-72662336D01*
X95082597Y-72729716D01*
X95080204Y-72733439D01*
X95026214Y-72814243D01*
X94948909Y-73000872D01*
X94948907Y-73000880D01*
X94909500Y-73198992D01*
X94909500Y-73401007D01*
X94948907Y-73599119D01*
X94948909Y-73599127D01*
X94982325Y-73679800D01*
X94989794Y-73749270D01*
X94970038Y-73794660D01*
X94970454Y-73794887D01*
X94967919Y-73799528D01*
X94967037Y-73801556D01*
X94966206Y-73802665D01*
X94966202Y-73802672D01*
X94915908Y-73937517D01*
X94909501Y-73997116D01*
X94909501Y-73997123D01*
X94909500Y-73997135D01*
X94909500Y-75142870D01*
X73139394Y-75142870D01*
X72966677Y-75096591D01*
X72925939Y-75091227D01*
X72722934Y-75064500D01*
X72722927Y-75064500D01*
X72477073Y-75064500D01*
X72477065Y-75064500D01*
X72245059Y-75095045D01*
X72233323Y-75096591D01*
X72060606Y-75142870D01*
X71995847Y-75160222D01*
X71995837Y-75160225D01*
X71768714Y-75254303D01*
X71768705Y-75254307D01*
X71555787Y-75377236D01*
X71360745Y-75526897D01*
X71360738Y-75526903D01*
X71186903Y-75700738D01*
X71186897Y-75700745D01*
X71037236Y-75895787D01*
X70914307Y-76108705D01*
X70914303Y-76108714D01*
X70820225Y-76335837D01*
X70820222Y-76335847D01*
X70756592Y-76573320D01*
X70756590Y-76573331D01*
X70724500Y-76817065D01*
X70724500Y-77062934D01*
X65900500Y-77062934D01*
X65900500Y-73300001D01*
X80214532Y-73300001D01*
X80234364Y-73526686D01*
X80234366Y-73526697D01*
X80293258Y-73746488D01*
X80293261Y-73746497D01*
X80389431Y-73952732D01*
X80389432Y-73952734D01*
X80519954Y-74139141D01*
X80680858Y-74300045D01*
X80680861Y-74300047D01*
X80867266Y-74430568D01*
X81073504Y-74526739D01*
X81293308Y-74585635D01*
X81455230Y-74599801D01*
X81519998Y-74605468D01*
X81520000Y-74605468D01*
X81520002Y-74605468D01*
X81576673Y-74600509D01*
X81746692Y-74585635D01*
X81966496Y-74526739D01*
X82172734Y-74430568D01*
X82359139Y-74300047D01*
X82520047Y-74139139D01*
X82650568Y-73952734D01*
X82746739Y-73746496D01*
X82805635Y-73526692D01*
X82825468Y-73300001D01*
X90374532Y-73300001D01*
X90394364Y-73526686D01*
X90394366Y-73526697D01*
X90453258Y-73746488D01*
X90453261Y-73746497D01*
X90549431Y-73952732D01*
X90549432Y-73952734D01*
X90679954Y-74139141D01*
X90840858Y-74300045D01*
X90840861Y-74300047D01*
X91027266Y-74430568D01*
X91233504Y-74526739D01*
X91453308Y-74585635D01*
X91615230Y-74599801D01*
X91679998Y-74605468D01*
X91680000Y-74605468D01*
X91680002Y-74605468D01*
X91736673Y-74600509D01*
X91906692Y-74585635D01*
X92126496Y-74526739D01*
X92332734Y-74430568D01*
X92519139Y-74300047D01*
X92680047Y-74139139D01*
X92810568Y-73952734D01*
X92906739Y-73746496D01*
X92965635Y-73526692D01*
X92985468Y-73300000D01*
X92965635Y-73073308D01*
X92906739Y-72853504D01*
X92810568Y-72647266D01*
X92680047Y-72460861D01*
X92680045Y-72460858D01*
X92519141Y-72299954D01*
X92332734Y-72169432D01*
X92332732Y-72169431D01*
X92126497Y-72073261D01*
X92126488Y-72073258D01*
X91906697Y-72014366D01*
X91906693Y-72014365D01*
X91906692Y-72014365D01*
X91906691Y-72014364D01*
X91906686Y-72014364D01*
X91680002Y-71994532D01*
X91679998Y-71994532D01*
X91453313Y-72014364D01*
X91453302Y-72014366D01*
X91233511Y-72073258D01*
X91233502Y-72073261D01*
X91027267Y-72169431D01*
X91027265Y-72169432D01*
X90840858Y-72299954D01*
X90679954Y-72460858D01*
X90549432Y-72647265D01*
X90549431Y-72647267D01*
X90453261Y-72853502D01*
X90453258Y-72853511D01*
X90394366Y-73073302D01*
X90394364Y-73073313D01*
X90374532Y-73299998D01*
X90374532Y-73300001D01*
X82825468Y-73300001D01*
X82825468Y-73300000D01*
X82805635Y-73073308D01*
X82746739Y-72853504D01*
X82650568Y-72647266D01*
X82520047Y-72460861D01*
X82520045Y-72460858D01*
X82359141Y-72299954D01*
X82172734Y-72169432D01*
X82172732Y-72169431D01*
X81966497Y-72073261D01*
X81966488Y-72073258D01*
X81746697Y-72014366D01*
X81746693Y-72014365D01*
X81746692Y-72014365D01*
X81746691Y-72014364D01*
X81746686Y-72014364D01*
X81520002Y-71994532D01*
X81519998Y-71994532D01*
X81293313Y-72014364D01*
X81293302Y-72014366D01*
X81073511Y-72073258D01*
X81073502Y-72073261D01*
X80867267Y-72169431D01*
X80867265Y-72169432D01*
X80680858Y-72299954D01*
X80519954Y-72460858D01*
X80389432Y-72647265D01*
X80389431Y-72647267D01*
X80293261Y-72853502D01*
X80293258Y-72853511D01*
X80234366Y-73073302D01*
X80234364Y-73073313D01*
X80214532Y-73299998D01*
X80214532Y-73300001D01*
X65900500Y-73300001D01*
X65900500Y-70400000D01*
X66244974Y-70400000D01*
X66265060Y-70732076D01*
X66325032Y-71059329D01*
X66423999Y-71376928D01*
X66424005Y-71376943D01*
X66560543Y-71680319D01*
X66560545Y-71680321D01*
X66732657Y-71965031D01*
X66732662Y-71965039D01*
X66885862Y-72160583D01*
X67287766Y-71758679D01*
X67349089Y-71725194D01*
X67418780Y-71730178D01*
X67466071Y-71761724D01*
X67597155Y-71902081D01*
X67597155Y-71902082D01*
X67630802Y-71929456D01*
X67670382Y-71987033D01*
X67672550Y-72056869D01*
X67640227Y-72113324D01*
X67239415Y-72514136D01*
X67239415Y-72514137D01*
X67434960Y-72667337D01*
X67434968Y-72667342D01*
X67719678Y-72839454D01*
X67719680Y-72839456D01*
X68023056Y-72975994D01*
X68023071Y-72976000D01*
X68340670Y-73074967D01*
X68667923Y-73134939D01*
X69000000Y-73155025D01*
X69332076Y-73134939D01*
X69659329Y-73074967D01*
X69976928Y-72976000D01*
X69976943Y-72975994D01*
X70280319Y-72839456D01*
X70280321Y-72839454D01*
X70565030Y-72667343D01*
X70760583Y-72514137D01*
X70760583Y-72514136D01*
X70359771Y-72113324D01*
X70326286Y-72052001D01*
X70331270Y-71982309D01*
X70369197Y-71929455D01*
X70402845Y-71902081D01*
X70533930Y-71761721D01*
X70594071Y-71726165D01*
X70663892Y-71728766D01*
X70712232Y-71758679D01*
X71114136Y-72160583D01*
X71114137Y-72160583D01*
X71267343Y-71965030D01*
X71439454Y-71680321D01*
X71439456Y-71680319D01*
X71575994Y-71376943D01*
X71576000Y-71376928D01*
X71674967Y-71059329D01*
X71734939Y-70732076D01*
X71736879Y-70700001D01*
X101794532Y-70700001D01*
X101814364Y-70926686D01*
X101814366Y-70926697D01*
X101873258Y-71146488D01*
X101873261Y-71146497D01*
X101969431Y-71352732D01*
X101969432Y-71352734D01*
X102099954Y-71539141D01*
X102260858Y-71700045D01*
X102260861Y-71700047D01*
X102447266Y-71830568D01*
X102653504Y-71926739D01*
X102653509Y-71926740D01*
X102653511Y-71926741D01*
X102663644Y-71929456D01*
X102873308Y-71985635D01*
X103035230Y-71999801D01*
X103099998Y-72005468D01*
X103100000Y-72005468D01*
X103100002Y-72005468D01*
X103156673Y-72000509D01*
X103326692Y-71985635D01*
X103546496Y-71926739D01*
X103752734Y-71830568D01*
X103939139Y-71700047D01*
X104100047Y-71539139D01*
X104230568Y-71352734D01*
X104326739Y-71146496D01*
X104365362Y-71002352D01*
X114179500Y-71002352D01*
X114183878Y-71029995D01*
X114211522Y-71204534D01*
X114274781Y-71399223D01*
X114338691Y-71524653D01*
X114348797Y-71544486D01*
X114367715Y-71581613D01*
X114488028Y-71747213D01*
X114632786Y-71891971D01*
X114773952Y-71994532D01*
X114798390Y-72012287D01*
X114885887Y-72056869D01*
X114980776Y-72105218D01*
X114980778Y-72105218D01*
X114980781Y-72105220D01*
X115005723Y-72113324D01*
X115175465Y-72168477D01*
X115276557Y-72184488D01*
X115377648Y-72200500D01*
X115377649Y-72200500D01*
X115582351Y-72200500D01*
X115582352Y-72200500D01*
X115784534Y-72168477D01*
X115979219Y-72105220D01*
X116161610Y-72012287D01*
X116279359Y-71926738D01*
X116327213Y-71891971D01*
X116327215Y-71891968D01*
X116327219Y-71891966D01*
X116471966Y-71747219D01*
X116471968Y-71747215D01*
X116471971Y-71747213D01*
X116592284Y-71581614D01*
X116592285Y-71581613D01*
X116592287Y-71581610D01*
X116639516Y-71488917D01*
X116687489Y-71438123D01*
X116755310Y-71421328D01*
X116821445Y-71443865D01*
X116860483Y-71488917D01*
X116904348Y-71575006D01*
X116907715Y-71581614D01*
X117028028Y-71747213D01*
X117172786Y-71891971D01*
X117313952Y-71994532D01*
X117338390Y-72012287D01*
X117425887Y-72056869D01*
X117520776Y-72105218D01*
X117520778Y-72105218D01*
X117520781Y-72105220D01*
X117545723Y-72113324D01*
X117715465Y-72168477D01*
X117816557Y-72184488D01*
X117917648Y-72200500D01*
X117917649Y-72200500D01*
X118122351Y-72200500D01*
X118122352Y-72200500D01*
X118324534Y-72168477D01*
X118519219Y-72105220D01*
X118701610Y-72012287D01*
X118819359Y-71926738D01*
X118867213Y-71891971D01*
X118867215Y-71891968D01*
X118867219Y-71891966D01*
X119011966Y-71747219D01*
X119011968Y-71747215D01*
X119011971Y-71747213D01*
X119132284Y-71581614D01*
X119132285Y-71581613D01*
X119132287Y-71581610D01*
X119179516Y-71488917D01*
X119227489Y-71438123D01*
X119295310Y-71421328D01*
X119361445Y-71443865D01*
X119400483Y-71488917D01*
X119444348Y-71575006D01*
X119447715Y-71581614D01*
X119568028Y-71747213D01*
X119712786Y-71891971D01*
X119853952Y-71994532D01*
X119878390Y-72012287D01*
X119965887Y-72056869D01*
X120060776Y-72105218D01*
X120060778Y-72105218D01*
X120060781Y-72105220D01*
X120085723Y-72113324D01*
X120255465Y-72168477D01*
X120356557Y-72184488D01*
X120457648Y-72200500D01*
X120457649Y-72200500D01*
X120662351Y-72200500D01*
X120662352Y-72200500D01*
X120864534Y-72168477D01*
X121059219Y-72105220D01*
X121241610Y-72012287D01*
X121359359Y-71926738D01*
X121407213Y-71891971D01*
X121407215Y-71891968D01*
X121407219Y-71891966D01*
X121551966Y-71747219D01*
X121551968Y-71747215D01*
X121551971Y-71747213D01*
X121672284Y-71581614D01*
X121672285Y-71581613D01*
X121672287Y-71581610D01*
X121719516Y-71488917D01*
X121767489Y-71438123D01*
X121835310Y-71421328D01*
X121901445Y-71443865D01*
X121940483Y-71488917D01*
X121984348Y-71575006D01*
X121987715Y-71581614D01*
X122108028Y-71747213D01*
X122252786Y-71891971D01*
X122393952Y-71994532D01*
X122418390Y-72012287D01*
X122505887Y-72056869D01*
X122600776Y-72105218D01*
X122600778Y-72105218D01*
X122600781Y-72105220D01*
X122625723Y-72113324D01*
X122795465Y-72168477D01*
X122896557Y-72184488D01*
X122997648Y-72200500D01*
X122997649Y-72200500D01*
X123202351Y-72200500D01*
X123202352Y-72200500D01*
X123404534Y-72168477D01*
X123599219Y-72105220D01*
X123781610Y-72012287D01*
X123899359Y-71926738D01*
X123947213Y-71891971D01*
X123947215Y-71891968D01*
X123947219Y-71891966D01*
X124091966Y-71747219D01*
X124091968Y-71747215D01*
X124091971Y-71747213D01*
X124212284Y-71581614D01*
X124212285Y-71581613D01*
X124212287Y-71581610D01*
X124259516Y-71488917D01*
X124307489Y-71438123D01*
X124375310Y-71421328D01*
X124441445Y-71443865D01*
X124480483Y-71488917D01*
X124524348Y-71575006D01*
X124527715Y-71581614D01*
X124648028Y-71747213D01*
X124792786Y-71891971D01*
X124933952Y-71994532D01*
X124958390Y-72012287D01*
X125045887Y-72056869D01*
X125140776Y-72105218D01*
X125140778Y-72105218D01*
X125140781Y-72105220D01*
X125165723Y-72113324D01*
X125335465Y-72168477D01*
X125436557Y-72184488D01*
X125537648Y-72200500D01*
X125537649Y-72200500D01*
X125742351Y-72200500D01*
X125742352Y-72200500D01*
X125944534Y-72168477D01*
X126139219Y-72105220D01*
X126321610Y-72012287D01*
X126439359Y-71926738D01*
X126487213Y-71891971D01*
X126487215Y-71891968D01*
X126487219Y-71891966D01*
X126631966Y-71747219D01*
X126631968Y-71747215D01*
X126631971Y-71747213D01*
X126752284Y-71581614D01*
X126752285Y-71581613D01*
X126752287Y-71581610D01*
X126799516Y-71488917D01*
X126847489Y-71438123D01*
X126915310Y-71421328D01*
X126981445Y-71443865D01*
X127020483Y-71488917D01*
X127064348Y-71575006D01*
X127067715Y-71581614D01*
X127188028Y-71747213D01*
X127332786Y-71891971D01*
X127473952Y-71994532D01*
X127498390Y-72012287D01*
X127585887Y-72056869D01*
X127680776Y-72105218D01*
X127680778Y-72105218D01*
X127680781Y-72105220D01*
X127705723Y-72113324D01*
X127875465Y-72168477D01*
X127976557Y-72184488D01*
X128077648Y-72200500D01*
X128077649Y-72200500D01*
X128282351Y-72200500D01*
X128282352Y-72200500D01*
X128484534Y-72168477D01*
X128679219Y-72105220D01*
X128861610Y-72012287D01*
X128979359Y-71926738D01*
X129027213Y-71891971D01*
X129027215Y-71891968D01*
X129027219Y-71891966D01*
X129171966Y-71747219D01*
X129171968Y-71747215D01*
X129171971Y-71747213D01*
X129292284Y-71581614D01*
X129292285Y-71581613D01*
X129292287Y-71581610D01*
X129339516Y-71488917D01*
X129387489Y-71438123D01*
X129455310Y-71421328D01*
X129521445Y-71443865D01*
X129560483Y-71488917D01*
X129604348Y-71575006D01*
X129607715Y-71581614D01*
X129728028Y-71747213D01*
X129872786Y-71891971D01*
X130013952Y-71994532D01*
X130038390Y-72012287D01*
X130125887Y-72056869D01*
X130220776Y-72105218D01*
X130220778Y-72105218D01*
X130220781Y-72105220D01*
X130245723Y-72113324D01*
X130415465Y-72168477D01*
X130516557Y-72184488D01*
X130617648Y-72200500D01*
X130617649Y-72200500D01*
X130822351Y-72200500D01*
X130822352Y-72200500D01*
X131024534Y-72168477D01*
X131219219Y-72105220D01*
X131401610Y-72012287D01*
X131549165Y-71905083D01*
X131567211Y-71891972D01*
X131567211Y-71891971D01*
X131567219Y-71891966D01*
X131598450Y-71860734D01*
X131659769Y-71827251D01*
X131729461Y-71832235D01*
X131785395Y-71874105D01*
X131802311Y-71905083D01*
X131816203Y-71942330D01*
X131816206Y-71942335D01*
X131902452Y-72057544D01*
X131902455Y-72057547D01*
X132017664Y-72143793D01*
X132017671Y-72143797D01*
X132152517Y-72194091D01*
X132152516Y-72194091D01*
X132159444Y-72194835D01*
X132212127Y-72200500D01*
X134307872Y-72200499D01*
X134367483Y-72194091D01*
X134502331Y-72143796D01*
X134617546Y-72057546D01*
X134703796Y-71942331D01*
X134754091Y-71807483D01*
X134760500Y-71747873D01*
X134760499Y-69652128D01*
X134754091Y-69592517D01*
X134745480Y-69569431D01*
X134703797Y-69457671D01*
X134703793Y-69457664D01*
X134617547Y-69342455D01*
X134617544Y-69342452D01*
X134502335Y-69256206D01*
X134502328Y-69256202D01*
X134367482Y-69205908D01*
X134367483Y-69205908D01*
X134307883Y-69199501D01*
X134307881Y-69199500D01*
X134307873Y-69199500D01*
X134307864Y-69199500D01*
X132212129Y-69199500D01*
X132212123Y-69199501D01*
X132152516Y-69205908D01*
X132017671Y-69256202D01*
X132017664Y-69256206D01*
X131902455Y-69342452D01*
X131902452Y-69342455D01*
X131816206Y-69457664D01*
X131816201Y-69457673D01*
X131802310Y-69494917D01*
X131760438Y-69550850D01*
X131694974Y-69575266D01*
X131626701Y-69560414D01*
X131598448Y-69539263D01*
X131567213Y-69508028D01*
X131401613Y-69387715D01*
X131401612Y-69387714D01*
X131401610Y-69387713D01*
X131344653Y-69358691D01*
X131219223Y-69294781D01*
X131024534Y-69231522D01*
X130849995Y-69203878D01*
X130822352Y-69199500D01*
X130617648Y-69199500D01*
X130593329Y-69203351D01*
X130415465Y-69231522D01*
X130220776Y-69294781D01*
X130038386Y-69387715D01*
X129872786Y-69508028D01*
X129728028Y-69652786D01*
X129607715Y-69818386D01*
X129560485Y-69911080D01*
X129512510Y-69961876D01*
X129444689Y-69978671D01*
X129378554Y-69956134D01*
X129339515Y-69911080D01*
X129313927Y-69860861D01*
X129292287Y-69818390D01*
X129219500Y-69718206D01*
X129171971Y-69652786D01*
X129027213Y-69508028D01*
X128861613Y-69387715D01*
X128861612Y-69387714D01*
X128861610Y-69387713D01*
X128804653Y-69358691D01*
X128679223Y-69294781D01*
X128484534Y-69231522D01*
X128309995Y-69203878D01*
X128282352Y-69199500D01*
X128077648Y-69199500D01*
X128053329Y-69203351D01*
X127875465Y-69231522D01*
X127680776Y-69294781D01*
X127498386Y-69387715D01*
X127332786Y-69508028D01*
X127188028Y-69652786D01*
X127067715Y-69818386D01*
X127020485Y-69911080D01*
X126972510Y-69961876D01*
X126904689Y-69978671D01*
X126838554Y-69956134D01*
X126799515Y-69911080D01*
X126773927Y-69860861D01*
X126752287Y-69818390D01*
X126679500Y-69718206D01*
X126631971Y-69652786D01*
X126487213Y-69508028D01*
X126321613Y-69387715D01*
X126321612Y-69387714D01*
X126321610Y-69387713D01*
X126264653Y-69358691D01*
X126139223Y-69294781D01*
X125944534Y-69231522D01*
X125769995Y-69203878D01*
X125742352Y-69199500D01*
X125537648Y-69199500D01*
X125513329Y-69203351D01*
X125335465Y-69231522D01*
X125140776Y-69294781D01*
X124958386Y-69387715D01*
X124792786Y-69508028D01*
X124648028Y-69652786D01*
X124527715Y-69818386D01*
X124480485Y-69911080D01*
X124432510Y-69961876D01*
X124364689Y-69978671D01*
X124298554Y-69956134D01*
X124259515Y-69911080D01*
X124233927Y-69860861D01*
X124212287Y-69818390D01*
X124139500Y-69718206D01*
X124091971Y-69652786D01*
X123947213Y-69508028D01*
X123781613Y-69387715D01*
X123781612Y-69387714D01*
X123781610Y-69387713D01*
X123724653Y-69358691D01*
X123599223Y-69294781D01*
X123404534Y-69231522D01*
X123229995Y-69203878D01*
X123202352Y-69199500D01*
X122997648Y-69199500D01*
X122973329Y-69203351D01*
X122795465Y-69231522D01*
X122600776Y-69294781D01*
X122418386Y-69387715D01*
X122252786Y-69508028D01*
X122108028Y-69652786D01*
X121987715Y-69818386D01*
X121940485Y-69911080D01*
X121892510Y-69961876D01*
X121824689Y-69978671D01*
X121758554Y-69956134D01*
X121719515Y-69911080D01*
X121693927Y-69860861D01*
X121672287Y-69818390D01*
X121599500Y-69718206D01*
X121551971Y-69652786D01*
X121407213Y-69508028D01*
X121241613Y-69387715D01*
X121241612Y-69387714D01*
X121241610Y-69387713D01*
X121184653Y-69358691D01*
X121059223Y-69294781D01*
X120864534Y-69231522D01*
X120689995Y-69203878D01*
X120662352Y-69199500D01*
X120457648Y-69199500D01*
X120433329Y-69203351D01*
X120255465Y-69231522D01*
X120060776Y-69294781D01*
X119878386Y-69387715D01*
X119712786Y-69508028D01*
X119568028Y-69652786D01*
X119447715Y-69818386D01*
X119400485Y-69911080D01*
X119352510Y-69961876D01*
X119284689Y-69978671D01*
X119218554Y-69956134D01*
X119179515Y-69911080D01*
X119153927Y-69860861D01*
X119132287Y-69818390D01*
X119059500Y-69718206D01*
X119011971Y-69652786D01*
X118867213Y-69508028D01*
X118701613Y-69387715D01*
X118701612Y-69387714D01*
X118701610Y-69387713D01*
X118644653Y-69358691D01*
X118519223Y-69294781D01*
X118324534Y-69231522D01*
X118149995Y-69203878D01*
X118122352Y-69199500D01*
X117917648Y-69199500D01*
X117893329Y-69203351D01*
X117715465Y-69231522D01*
X117520776Y-69294781D01*
X117338386Y-69387715D01*
X117172786Y-69508028D01*
X117028028Y-69652786D01*
X116907715Y-69818386D01*
X116860485Y-69911080D01*
X116812510Y-69961876D01*
X116744689Y-69978671D01*
X116678554Y-69956134D01*
X116639515Y-69911080D01*
X116613927Y-69860861D01*
X116592287Y-69818390D01*
X116519500Y-69718206D01*
X116471971Y-69652786D01*
X116327213Y-69508028D01*
X116161613Y-69387715D01*
X116161612Y-69387714D01*
X116161610Y-69387713D01*
X116104653Y-69358691D01*
X115979223Y-69294781D01*
X115784534Y-69231522D01*
X115609995Y-69203878D01*
X115582352Y-69199500D01*
X115377648Y-69199500D01*
X115353329Y-69203351D01*
X115175465Y-69231522D01*
X114980776Y-69294781D01*
X114798386Y-69387715D01*
X114632786Y-69508028D01*
X114488028Y-69652786D01*
X114367715Y-69818386D01*
X114274781Y-70000776D01*
X114211522Y-70195465D01*
X114202329Y-70253511D01*
X114179500Y-70397648D01*
X114179500Y-71002352D01*
X104365362Y-71002352D01*
X104385635Y-70926692D01*
X104405468Y-70700000D01*
X104385635Y-70473308D01*
X104326739Y-70253504D01*
X104230568Y-70047266D01*
X104100047Y-69860861D01*
X104100045Y-69860858D01*
X103939141Y-69699954D01*
X103752734Y-69569432D01*
X103752732Y-69569431D01*
X103546497Y-69473261D01*
X103546488Y-69473258D01*
X103326697Y-69414366D01*
X103326693Y-69414365D01*
X103326692Y-69414365D01*
X103326691Y-69414364D01*
X103326686Y-69414364D01*
X103100002Y-69394532D01*
X103099998Y-69394532D01*
X102873313Y-69414364D01*
X102873302Y-69414366D01*
X102653511Y-69473258D01*
X102653502Y-69473261D01*
X102447267Y-69569431D01*
X102447265Y-69569432D01*
X102260858Y-69699954D01*
X102099954Y-69860858D01*
X101969432Y-70047265D01*
X101969431Y-70047267D01*
X101873261Y-70253502D01*
X101873258Y-70253511D01*
X101814366Y-70473302D01*
X101814364Y-70473313D01*
X101794532Y-70699998D01*
X101794532Y-70700001D01*
X71736879Y-70700001D01*
X71755025Y-70400000D01*
X71734939Y-70067923D01*
X71674967Y-69740670D01*
X71576000Y-69423071D01*
X71575994Y-69423056D01*
X71439456Y-69119680D01*
X71439454Y-69119678D01*
X71267342Y-68834968D01*
X71267337Y-68834960D01*
X71114136Y-68639415D01*
X70712232Y-69041319D01*
X70650909Y-69074804D01*
X70581217Y-69069820D01*
X70533927Y-69038274D01*
X70402844Y-68897918D01*
X70402843Y-68897917D01*
X70369196Y-68870542D01*
X70329616Y-68812964D01*
X70327448Y-68743128D01*
X70359771Y-68686674D01*
X70760583Y-68285862D01*
X70760583Y-68285861D01*
X70565039Y-68132662D01*
X70565031Y-68132657D01*
X70280321Y-67960545D01*
X70280319Y-67960543D01*
X69976943Y-67824005D01*
X69976928Y-67823999D01*
X69659329Y-67725032D01*
X69332076Y-67665060D01*
X69000000Y-67644974D01*
X68667923Y-67665060D01*
X68340670Y-67725032D01*
X68023071Y-67823999D01*
X68023056Y-67824005D01*
X67719680Y-67960543D01*
X67719678Y-67960545D01*
X67434968Y-68132657D01*
X67239415Y-68285862D01*
X67640228Y-68686675D01*
X67673713Y-68747998D01*
X67668729Y-68817690D01*
X67630803Y-68870543D01*
X67597155Y-68897917D01*
X67597154Y-68897919D01*
X67466070Y-69038275D01*
X67405926Y-69073834D01*
X67336105Y-69071231D01*
X67287766Y-69041319D01*
X66885862Y-68639415D01*
X66732657Y-68834968D01*
X66560545Y-69119678D01*
X66560543Y-69119680D01*
X66424005Y-69423056D01*
X66423999Y-69423071D01*
X66325032Y-69740670D01*
X66265060Y-70067923D01*
X66244974Y-70400000D01*
X65900500Y-70400000D01*
X65900500Y-67424500D01*
X65920185Y-67357461D01*
X65972989Y-67311706D01*
X66024500Y-67300500D01*
X135175500Y-67300500D01*
X135242539Y-67320185D01*
G37*
G04 #@! TD.AperFunction*
M02*
