G04 #@! TF.GenerationSoftware,KiCad,Pcbnew,8.0.1*
G04 #@! TF.CreationDate,2024-04-23T23:05:48+02:00*
G04 #@! TF.ProjectId,P1-lezer,50312d6c-657a-4657-922e-6b696361645f,rev?*
G04 #@! TF.SameCoordinates,Original*
G04 #@! TF.FileFunction,Soldermask,Bot*
G04 #@! TF.FilePolarity,Negative*
%FSLAX46Y46*%
G04 Gerber Fmt 4.6, Leading zero omitted, Abs format (unit mm)*
G04 Created by KiCad (PCBNEW 8.0.1) date 2024-04-23 23:05:48*
%MOMM*%
%LPD*%
G01*
G04 APERTURE LIST*
G04 Aperture macros list*
%AMRoundRect*
0 Rectangle with rounded corners*
0 $1 Rounding radius*
0 $2 $3 $4 $5 $6 $7 $8 $9 X,Y pos of 4 corners*
0 Add a 4 corners polygon primitive as box body*
4,1,4,$2,$3,$4,$5,$6,$7,$8,$9,$2,$3,0*
0 Add four circle primitives for the rounded corners*
1,1,$1+$1,$2,$3*
1,1,$1+$1,$4,$5*
1,1,$1+$1,$6,$7*
1,1,$1+$1,$8,$9*
0 Add four rect primitives between the rounded corners*
20,1,$1+$1,$2,$3,$4,$5,0*
20,1,$1+$1,$4,$5,$6,$7,0*
20,1,$1+$1,$6,$7,$8,$9,0*
20,1,$1+$1,$8,$9,$2,$3,0*%
G04 Aperture macros list end*
%ADD10C,1.676000*%
%ADD11O,1.676000X1.676000*%
%ADD12C,3.176000*%
%ADD13C,4.576000*%
%ADD14RoundRect,0.038000X0.750000X-0.525000X0.750000X0.525000X-0.750000X0.525000X-0.750000X-0.525000X0*%
%ADD15O,1.576000X1.126000*%
%ADD16RoundRect,0.038000X-1.000000X1.000000X-1.000000X-1.000000X1.000000X-1.000000X1.000000X1.000000X0*%
%ADD17O,1.676000X2.076000*%
%ADD18C,3.326000*%
%ADD19RoundRect,0.262500X-0.535500X0.535500X-0.535500X-0.535500X0.535500X-0.535500X0.535500X0.535500X0*%
%ADD20C,1.596000*%
%ADD21RoundRect,0.038000X-0.800000X0.800000X-0.800000X-0.800000X0.800000X-0.800000X0.800000X0.800000X0*%
%ADD22RoundRect,0.038000X1.100000X1.100000X-1.100000X1.100000X-1.100000X-1.100000X1.100000X-1.100000X0*%
%ADD23O,2.276000X2.276000*%
G04 APERTURE END LIST*
D10*
X103100000Y-70700000D03*
D11*
X103100000Y-80860000D03*
D12*
X69000000Y-93700000D03*
D13*
X69000000Y-93700000D03*
D10*
X98200000Y-78300000D03*
D11*
X98200000Y-88460000D03*
D14*
X96160000Y-74570000D03*
D15*
X96160000Y-73300000D03*
X96160000Y-72030000D03*
D16*
X133260000Y-70700000D03*
D17*
X130720000Y-70700000D03*
X128180000Y-70700000D03*
X125640000Y-70700000D03*
X123100000Y-70700000D03*
X120560000Y-70700000D03*
X118020000Y-70700000D03*
X115480000Y-70700000D03*
X115480000Y-93560000D03*
X118020000Y-93560000D03*
X120560000Y-93560000D03*
X123100000Y-93560000D03*
X125640000Y-93560000D03*
X128180000Y-93560000D03*
X130720000Y-93560000D03*
X133260000Y-93560000D03*
D10*
X87880000Y-91100000D03*
D11*
X77720000Y-91100000D03*
D18*
X72600000Y-76940000D03*
X72600000Y-87100000D03*
D19*
X81490000Y-78840000D03*
D20*
X78950000Y-80110000D03*
X81490000Y-81380000D03*
X78950000Y-82650000D03*
X81490000Y-83920000D03*
X78950000Y-85190000D03*
D10*
X81520000Y-73300000D03*
D11*
X91680000Y-73300000D03*
D21*
X92925000Y-78300000D03*
D11*
X90385000Y-78300000D03*
X87845000Y-78300000D03*
X87845000Y-85920000D03*
X90385000Y-85920000D03*
X92925000Y-85920000D03*
D22*
X101480000Y-92100000D03*
D23*
X91320000Y-92100000D03*
D12*
X132150000Y-82000000D03*
D13*
X132150000Y-82000000D03*
D12*
X69000000Y-70400000D03*
D13*
X69000000Y-70400000D03*
M02*
