G04 #@! TF.GenerationSoftware,KiCad,Pcbnew,8.0.2*
G04 #@! TF.CreationDate,2024-05-12T16:34:23+02:00*
G04 #@! TF.ProjectId,P1-lezer,50312d6c-657a-4657-922e-6b696361645f,rev?*
G04 #@! TF.SameCoordinates,Original*
G04 #@! TF.FileFunction,Legend,Bot*
G04 #@! TF.FilePolarity,Positive*
%FSLAX46Y46*%
G04 Gerber Fmt 4.6, Leading zero omitted, Abs format (unit mm)*
G04 Created by KiCad (PCBNEW 8.0.2) date 2024-05-12 16:34:23*
%MOMM*%
%LPD*%
G01*
G04 APERTURE LIST*
G04 Aperture macros list*
%AMRoundRect*
0 Rectangle with rounded corners*
0 $1 Rounding radius*
0 $2 $3 $4 $5 $6 $7 $8 $9 X,Y pos of 4 corners*
0 Add a 4 corners polygon primitive as box body*
4,1,4,$2,$3,$4,$5,$6,$7,$8,$9,$2,$3,0*
0 Add four circle primitives for the rounded corners*
1,1,$1+$1,$2,$3*
1,1,$1+$1,$4,$5*
1,1,$1+$1,$6,$7*
1,1,$1+$1,$8,$9*
0 Add four rect primitives between the rounded corners*
20,1,$1+$1,$2,$3,$4,$5,0*
20,1,$1+$1,$4,$5,$6,$7,0*
20,1,$1+$1,$6,$7,$8,$9,0*
20,1,$1+$1,$8,$9,$2,$3,0*%
G04 Aperture macros list end*
%ADD10C,0.153000*%
%ADD11C,1.676000*%
%ADD12O,1.676000X1.676000*%
%ADD13C,3.176000*%
%ADD14C,4.576000*%
%ADD15RoundRect,0.038000X0.750000X-0.525000X0.750000X0.525000X-0.750000X0.525000X-0.750000X-0.525000X0*%
%ADD16O,1.576000X1.126000*%
%ADD17RoundRect,0.038000X-1.000000X1.000000X-1.000000X-1.000000X1.000000X-1.000000X1.000000X1.000000X0*%
%ADD18O,1.676000X2.076000*%
%ADD19C,3.326000*%
%ADD20RoundRect,0.262500X-0.535500X0.535500X-0.535500X-0.535500X0.535500X-0.535500X0.535500X0.535500X0*%
%ADD21C,1.596000*%
%ADD22RoundRect,0.038000X-0.800000X0.800000X-0.800000X-0.800000X0.800000X-0.800000X0.800000X0.800000X0*%
%ADD23O,2.276000X2.276000*%
%ADD24RoundRect,0.038000X1.100000X1.100000X-1.100000X1.100000X-1.100000X-1.100000X1.100000X-1.100000X0*%
G04 APERTURE END LIST*
D10*
X102661247Y-96069663D02*
X102661247Y-95069663D01*
X102232676Y-96069663D02*
X102232676Y-95545853D01*
X102232676Y-95545853D02*
X102280295Y-95450615D01*
X102280295Y-95450615D02*
X102375533Y-95402996D01*
X102375533Y-95402996D02*
X102518390Y-95402996D01*
X102518390Y-95402996D02*
X102613628Y-95450615D01*
X102613628Y-95450615D02*
X102661247Y-95498234D01*
X101899342Y-95402996D02*
X101518390Y-95402996D01*
X101756485Y-95069663D02*
X101756485Y-95926805D01*
X101756485Y-95926805D02*
X101708866Y-96022044D01*
X101708866Y-96022044D02*
X101613628Y-96069663D01*
X101613628Y-96069663D02*
X101518390Y-96069663D01*
X101327913Y-95402996D02*
X100946961Y-95402996D01*
X101185056Y-95069663D02*
X101185056Y-95926805D01*
X101185056Y-95926805D02*
X101137437Y-96022044D01*
X101137437Y-96022044D02*
X101042199Y-96069663D01*
X101042199Y-96069663D02*
X100946961Y-96069663D01*
X100613627Y-95402996D02*
X100613627Y-96402996D01*
X100613627Y-95450615D02*
X100518389Y-95402996D01*
X100518389Y-95402996D02*
X100327913Y-95402996D01*
X100327913Y-95402996D02*
X100232675Y-95450615D01*
X100232675Y-95450615D02*
X100185056Y-95498234D01*
X100185056Y-95498234D02*
X100137437Y-95593472D01*
X100137437Y-95593472D02*
X100137437Y-95879186D01*
X100137437Y-95879186D02*
X100185056Y-95974424D01*
X100185056Y-95974424D02*
X100232675Y-96022044D01*
X100232675Y-96022044D02*
X100327913Y-96069663D01*
X100327913Y-96069663D02*
X100518389Y-96069663D01*
X100518389Y-96069663D02*
X100613627Y-96022044D01*
X99756484Y-96022044D02*
X99661246Y-96069663D01*
X99661246Y-96069663D02*
X99470770Y-96069663D01*
X99470770Y-96069663D02*
X99375532Y-96022044D01*
X99375532Y-96022044D02*
X99327913Y-95926805D01*
X99327913Y-95926805D02*
X99327913Y-95879186D01*
X99327913Y-95879186D02*
X99375532Y-95783948D01*
X99375532Y-95783948D02*
X99470770Y-95736329D01*
X99470770Y-95736329D02*
X99613627Y-95736329D01*
X99613627Y-95736329D02*
X99708865Y-95688710D01*
X99708865Y-95688710D02*
X99756484Y-95593472D01*
X99756484Y-95593472D02*
X99756484Y-95545853D01*
X99756484Y-95545853D02*
X99708865Y-95450615D01*
X99708865Y-95450615D02*
X99613627Y-95402996D01*
X99613627Y-95402996D02*
X99470770Y-95402996D01*
X99470770Y-95402996D02*
X99375532Y-95450615D01*
X98899341Y-95974424D02*
X98851722Y-96022044D01*
X98851722Y-96022044D02*
X98899341Y-96069663D01*
X98899341Y-96069663D02*
X98946960Y-96022044D01*
X98946960Y-96022044D02*
X98899341Y-95974424D01*
X98899341Y-95974424D02*
X98899341Y-96069663D01*
X98899341Y-95450615D02*
X98851722Y-95498234D01*
X98851722Y-95498234D02*
X98899341Y-95545853D01*
X98899341Y-95545853D02*
X98946960Y-95498234D01*
X98946960Y-95498234D02*
X98899341Y-95450615D01*
X98899341Y-95450615D02*
X98899341Y-95545853D01*
X97708866Y-95022044D02*
X98566008Y-96307758D01*
X96661247Y-95022044D02*
X97518389Y-96307758D01*
X95899342Y-95402996D02*
X95899342Y-96212520D01*
X95899342Y-96212520D02*
X95946961Y-96307758D01*
X95946961Y-96307758D02*
X95994580Y-96355377D01*
X95994580Y-96355377D02*
X96089818Y-96402996D01*
X96089818Y-96402996D02*
X96232675Y-96402996D01*
X96232675Y-96402996D02*
X96327913Y-96355377D01*
X95899342Y-96022044D02*
X95994580Y-96069663D01*
X95994580Y-96069663D02*
X96185056Y-96069663D01*
X96185056Y-96069663D02*
X96280294Y-96022044D01*
X96280294Y-96022044D02*
X96327913Y-95974424D01*
X96327913Y-95974424D02*
X96375532Y-95879186D01*
X96375532Y-95879186D02*
X96375532Y-95593472D01*
X96375532Y-95593472D02*
X96327913Y-95498234D01*
X96327913Y-95498234D02*
X96280294Y-95450615D01*
X96280294Y-95450615D02*
X96185056Y-95402996D01*
X96185056Y-95402996D02*
X95994580Y-95402996D01*
X95994580Y-95402996D02*
X95899342Y-95450615D01*
X95423151Y-96069663D02*
X95423151Y-95402996D01*
X95423151Y-95069663D02*
X95470770Y-95117282D01*
X95470770Y-95117282D02*
X95423151Y-95164901D01*
X95423151Y-95164901D02*
X95375532Y-95117282D01*
X95375532Y-95117282D02*
X95423151Y-95069663D01*
X95423151Y-95069663D02*
X95423151Y-95164901D01*
X95089818Y-95402996D02*
X94708866Y-95402996D01*
X94946961Y-95069663D02*
X94946961Y-95926805D01*
X94946961Y-95926805D02*
X94899342Y-96022044D01*
X94899342Y-96022044D02*
X94804104Y-96069663D01*
X94804104Y-96069663D02*
X94708866Y-96069663D01*
X94375532Y-96069663D02*
X94375532Y-95069663D01*
X93946961Y-96069663D02*
X93946961Y-95545853D01*
X93946961Y-95545853D02*
X93994580Y-95450615D01*
X93994580Y-95450615D02*
X94089818Y-95402996D01*
X94089818Y-95402996D02*
X94232675Y-95402996D01*
X94232675Y-95402996D02*
X94327913Y-95450615D01*
X94327913Y-95450615D02*
X94375532Y-95498234D01*
X93042199Y-95402996D02*
X93042199Y-96069663D01*
X93470770Y-95402996D02*
X93470770Y-95926805D01*
X93470770Y-95926805D02*
X93423151Y-96022044D01*
X93423151Y-96022044D02*
X93327913Y-96069663D01*
X93327913Y-96069663D02*
X93185056Y-96069663D01*
X93185056Y-96069663D02*
X93089818Y-96022044D01*
X93089818Y-96022044D02*
X93042199Y-95974424D01*
X92566008Y-96069663D02*
X92566008Y-95069663D01*
X92566008Y-95450615D02*
X92470770Y-95402996D01*
X92470770Y-95402996D02*
X92280294Y-95402996D01*
X92280294Y-95402996D02*
X92185056Y-95450615D01*
X92185056Y-95450615D02*
X92137437Y-95498234D01*
X92137437Y-95498234D02*
X92089818Y-95593472D01*
X92089818Y-95593472D02*
X92089818Y-95879186D01*
X92089818Y-95879186D02*
X92137437Y-95974424D01*
X92137437Y-95974424D02*
X92185056Y-96022044D01*
X92185056Y-96022044D02*
X92280294Y-96069663D01*
X92280294Y-96069663D02*
X92470770Y-96069663D01*
X92470770Y-96069663D02*
X92566008Y-96022044D01*
X91661246Y-95974424D02*
X91613627Y-96022044D01*
X91613627Y-96022044D02*
X91661246Y-96069663D01*
X91661246Y-96069663D02*
X91708865Y-96022044D01*
X91708865Y-96022044D02*
X91661246Y-95974424D01*
X91661246Y-95974424D02*
X91661246Y-96069663D01*
X90756485Y-96022044D02*
X90851723Y-96069663D01*
X90851723Y-96069663D02*
X91042199Y-96069663D01*
X91042199Y-96069663D02*
X91137437Y-96022044D01*
X91137437Y-96022044D02*
X91185056Y-95974424D01*
X91185056Y-95974424D02*
X91232675Y-95879186D01*
X91232675Y-95879186D02*
X91232675Y-95593472D01*
X91232675Y-95593472D02*
X91185056Y-95498234D01*
X91185056Y-95498234D02*
X91137437Y-95450615D01*
X91137437Y-95450615D02*
X91042199Y-95402996D01*
X91042199Y-95402996D02*
X90851723Y-95402996D01*
X90851723Y-95402996D02*
X90756485Y-95450615D01*
X90185056Y-96069663D02*
X90280294Y-96022044D01*
X90280294Y-96022044D02*
X90327913Y-95974424D01*
X90327913Y-95974424D02*
X90375532Y-95879186D01*
X90375532Y-95879186D02*
X90375532Y-95593472D01*
X90375532Y-95593472D02*
X90327913Y-95498234D01*
X90327913Y-95498234D02*
X90280294Y-95450615D01*
X90280294Y-95450615D02*
X90185056Y-95402996D01*
X90185056Y-95402996D02*
X90042199Y-95402996D01*
X90042199Y-95402996D02*
X89946961Y-95450615D01*
X89946961Y-95450615D02*
X89899342Y-95498234D01*
X89899342Y-95498234D02*
X89851723Y-95593472D01*
X89851723Y-95593472D02*
X89851723Y-95879186D01*
X89851723Y-95879186D02*
X89899342Y-95974424D01*
X89899342Y-95974424D02*
X89946961Y-96022044D01*
X89946961Y-96022044D02*
X90042199Y-96069663D01*
X90042199Y-96069663D02*
X90185056Y-96069663D01*
X89423151Y-96069663D02*
X89423151Y-95402996D01*
X89423151Y-95498234D02*
X89375532Y-95450615D01*
X89375532Y-95450615D02*
X89280294Y-95402996D01*
X89280294Y-95402996D02*
X89137437Y-95402996D01*
X89137437Y-95402996D02*
X89042199Y-95450615D01*
X89042199Y-95450615D02*
X88994580Y-95545853D01*
X88994580Y-95545853D02*
X88994580Y-96069663D01*
X88994580Y-95545853D02*
X88946961Y-95450615D01*
X88946961Y-95450615D02*
X88851723Y-95402996D01*
X88851723Y-95402996D02*
X88708866Y-95402996D01*
X88708866Y-95402996D02*
X88613627Y-95450615D01*
X88613627Y-95450615D02*
X88566008Y-95545853D01*
X88566008Y-95545853D02*
X88566008Y-96069663D01*
X87375533Y-95022044D02*
X88232675Y-96307758D01*
X87089818Y-96022044D02*
X86946961Y-96069663D01*
X86946961Y-96069663D02*
X86708866Y-96069663D01*
X86708866Y-96069663D02*
X86613628Y-96022044D01*
X86613628Y-96022044D02*
X86566009Y-95974424D01*
X86566009Y-95974424D02*
X86518390Y-95879186D01*
X86518390Y-95879186D02*
X86518390Y-95783948D01*
X86518390Y-95783948D02*
X86566009Y-95688710D01*
X86566009Y-95688710D02*
X86613628Y-95641091D01*
X86613628Y-95641091D02*
X86708866Y-95593472D01*
X86708866Y-95593472D02*
X86899342Y-95545853D01*
X86899342Y-95545853D02*
X86994580Y-95498234D01*
X86994580Y-95498234D02*
X87042199Y-95450615D01*
X87042199Y-95450615D02*
X87089818Y-95355377D01*
X87089818Y-95355377D02*
X87089818Y-95260139D01*
X87089818Y-95260139D02*
X87042199Y-95164901D01*
X87042199Y-95164901D02*
X86994580Y-95117282D01*
X86994580Y-95117282D02*
X86899342Y-95069663D01*
X86899342Y-95069663D02*
X86661247Y-95069663D01*
X86661247Y-95069663D02*
X86518390Y-95117282D01*
X86232675Y-95402996D02*
X85851723Y-95402996D01*
X86089818Y-95069663D02*
X86089818Y-95926805D01*
X86089818Y-95926805D02*
X86042199Y-96022044D01*
X86042199Y-96022044D02*
X85946961Y-96069663D01*
X85946961Y-96069663D02*
X85851723Y-96069663D01*
X85375532Y-96069663D02*
X85470770Y-96022044D01*
X85470770Y-96022044D02*
X85518389Y-95974424D01*
X85518389Y-95974424D02*
X85566008Y-95879186D01*
X85566008Y-95879186D02*
X85566008Y-95593472D01*
X85566008Y-95593472D02*
X85518389Y-95498234D01*
X85518389Y-95498234D02*
X85470770Y-95450615D01*
X85470770Y-95450615D02*
X85375532Y-95402996D01*
X85375532Y-95402996D02*
X85232675Y-95402996D01*
X85232675Y-95402996D02*
X85137437Y-95450615D01*
X85137437Y-95450615D02*
X85089818Y-95498234D01*
X85089818Y-95498234D02*
X85042199Y-95593472D01*
X85042199Y-95593472D02*
X85042199Y-95879186D01*
X85042199Y-95879186D02*
X85089818Y-95974424D01*
X85089818Y-95974424D02*
X85137437Y-96022044D01*
X85137437Y-96022044D02*
X85232675Y-96069663D01*
X85232675Y-96069663D02*
X85375532Y-96069663D01*
X84756484Y-95402996D02*
X84375532Y-95402996D01*
X84613627Y-96069663D02*
X84613627Y-95212520D01*
X84613627Y-95212520D02*
X84566008Y-95117282D01*
X84566008Y-95117282D02*
X84470770Y-95069663D01*
X84470770Y-95069663D02*
X84375532Y-95069663D01*
X84185055Y-95402996D02*
X83804103Y-95402996D01*
X84042198Y-96069663D02*
X84042198Y-95212520D01*
X84042198Y-95212520D02*
X83994579Y-95117282D01*
X83994579Y-95117282D02*
X83899341Y-95069663D01*
X83899341Y-95069663D02*
X83804103Y-95069663D01*
X83089817Y-96022044D02*
X83185055Y-96069663D01*
X83185055Y-96069663D02*
X83375531Y-96069663D01*
X83375531Y-96069663D02*
X83470769Y-96022044D01*
X83470769Y-96022044D02*
X83518388Y-95926805D01*
X83518388Y-95926805D02*
X83518388Y-95545853D01*
X83518388Y-95545853D02*
X83470769Y-95450615D01*
X83470769Y-95450615D02*
X83375531Y-95402996D01*
X83375531Y-95402996D02*
X83185055Y-95402996D01*
X83185055Y-95402996D02*
X83089817Y-95450615D01*
X83089817Y-95450615D02*
X83042198Y-95545853D01*
X83042198Y-95545853D02*
X83042198Y-95641091D01*
X83042198Y-95641091D02*
X83518388Y-95736329D01*
X82470769Y-96069663D02*
X82566007Y-96022044D01*
X82566007Y-96022044D02*
X82613626Y-95926805D01*
X82613626Y-95926805D02*
X82613626Y-95069663D01*
X82089816Y-96069663D02*
X82089816Y-95069663D01*
X82089816Y-95069663D02*
X81518388Y-96069663D01*
X81518388Y-96069663D02*
X81518388Y-95069663D01*
X80566007Y-96069663D02*
X81042197Y-96069663D01*
X81042197Y-96069663D02*
X81042197Y-95069663D01*
X79518388Y-95022044D02*
X80375530Y-96307758D01*
X79185054Y-96069663D02*
X79185054Y-95069663D01*
X79185054Y-95069663D02*
X78804102Y-95069663D01*
X78804102Y-95069663D02*
X78708864Y-95117282D01*
X78708864Y-95117282D02*
X78661245Y-95164901D01*
X78661245Y-95164901D02*
X78613626Y-95260139D01*
X78613626Y-95260139D02*
X78613626Y-95402996D01*
X78613626Y-95402996D02*
X78661245Y-95498234D01*
X78661245Y-95498234D02*
X78708864Y-95545853D01*
X78708864Y-95545853D02*
X78804102Y-95593472D01*
X78804102Y-95593472D02*
X79185054Y-95593472D01*
X77661245Y-96069663D02*
X78232673Y-96069663D01*
X77946959Y-96069663D02*
X77946959Y-95069663D01*
X77946959Y-95069663D02*
X78042197Y-95212520D01*
X78042197Y-95212520D02*
X78137435Y-95307758D01*
X78137435Y-95307758D02*
X78232673Y-95355377D01*
X77232673Y-95688710D02*
X76470769Y-95688710D01*
X75518388Y-96069663D02*
X75994578Y-96069663D01*
X75994578Y-96069663D02*
X75994578Y-95069663D01*
X74804102Y-96022044D02*
X74899340Y-96069663D01*
X74899340Y-96069663D02*
X75089816Y-96069663D01*
X75089816Y-96069663D02*
X75185054Y-96022044D01*
X75185054Y-96022044D02*
X75232673Y-95926805D01*
X75232673Y-95926805D02*
X75232673Y-95545853D01*
X75232673Y-95545853D02*
X75185054Y-95450615D01*
X75185054Y-95450615D02*
X75089816Y-95402996D01*
X75089816Y-95402996D02*
X74899340Y-95402996D01*
X74899340Y-95402996D02*
X74804102Y-95450615D01*
X74804102Y-95450615D02*
X74756483Y-95545853D01*
X74756483Y-95545853D02*
X74756483Y-95641091D01*
X74756483Y-95641091D02*
X75232673Y-95736329D01*
X74423149Y-95402996D02*
X73899340Y-95402996D01*
X73899340Y-95402996D02*
X74423149Y-96069663D01*
X74423149Y-96069663D02*
X73899340Y-96069663D01*
X73137435Y-96022044D02*
X73232673Y-96069663D01*
X73232673Y-96069663D02*
X73423149Y-96069663D01*
X73423149Y-96069663D02*
X73518387Y-96022044D01*
X73518387Y-96022044D02*
X73566006Y-95926805D01*
X73566006Y-95926805D02*
X73566006Y-95545853D01*
X73566006Y-95545853D02*
X73518387Y-95450615D01*
X73518387Y-95450615D02*
X73423149Y-95402996D01*
X73423149Y-95402996D02*
X73232673Y-95402996D01*
X73232673Y-95402996D02*
X73137435Y-95450615D01*
X73137435Y-95450615D02*
X73089816Y-95545853D01*
X73089816Y-95545853D02*
X73089816Y-95641091D01*
X73089816Y-95641091D02*
X73566006Y-95736329D01*
X72661244Y-96069663D02*
X72661244Y-95402996D01*
X72661244Y-95593472D02*
X72613625Y-95498234D01*
X72613625Y-95498234D02*
X72566006Y-95450615D01*
X72566006Y-95450615D02*
X72470768Y-95402996D01*
X72470768Y-95402996D02*
X72375530Y-95402996D01*
%LPC*%
D11*
X103100000Y-70700000D03*
D12*
X103100000Y-80860000D03*
D13*
X69000000Y-93700000D03*
D14*
X69000000Y-93700000D03*
D11*
X98200000Y-78300000D03*
D12*
X98200000Y-88460000D03*
D15*
X96160000Y-74570000D03*
D16*
X96160000Y-73300000D03*
X96160000Y-72030000D03*
D17*
X133260000Y-70700000D03*
D18*
X130720000Y-70700000D03*
X128180000Y-70700000D03*
X125640000Y-70700000D03*
X123100000Y-70700000D03*
X120560000Y-70700000D03*
X118020000Y-70700000D03*
X115480000Y-70700000D03*
X115480000Y-93560000D03*
X118020000Y-93560000D03*
X120560000Y-93560000D03*
X123100000Y-93560000D03*
X125640000Y-93560000D03*
X128180000Y-93560000D03*
X130720000Y-93560000D03*
X133260000Y-93560000D03*
D11*
X87880000Y-91100000D03*
D12*
X77720000Y-91100000D03*
D19*
X72600000Y-76940000D03*
X72600000Y-87100000D03*
D20*
X81490000Y-78840000D03*
D21*
X78950000Y-80110000D03*
X81490000Y-81380000D03*
X78950000Y-82650000D03*
X81490000Y-83920000D03*
X78950000Y-85190000D03*
D11*
X81520000Y-73300000D03*
D12*
X91680000Y-73300000D03*
D22*
X92925000Y-78300000D03*
D12*
X90385000Y-78300000D03*
X87845000Y-78300000D03*
X87845000Y-85920000D03*
X90385000Y-85920000D03*
X92925000Y-85920000D03*
D23*
X91320000Y-92100000D03*
D24*
X101480000Y-92100000D03*
D13*
X132150000Y-82000000D03*
D14*
X132150000Y-82000000D03*
D13*
X69000000Y-70400000D03*
D14*
X69000000Y-70400000D03*
%LPD*%
M02*
