G04 #@! TF.GenerationSoftware,KiCad,Pcbnew,8.0.2*
G04 #@! TF.CreationDate,2024-05-12T16:34:23+02:00*
G04 #@! TF.ProjectId,P1-lezer,50312d6c-657a-4657-922e-6b696361645f,rev?*
G04 #@! TF.SameCoordinates,Original*
G04 #@! TF.FileFunction,Legend,Top*
G04 #@! TF.FilePolarity,Positive*
%FSLAX46Y46*%
G04 Gerber Fmt 4.6, Leading zero omitted, Abs format (unit mm)*
G04 Created by KiCad (PCBNEW 8.0.2) date 2024-05-12 16:34:23*
%MOMM*%
%LPD*%
G01*
G04 APERTURE LIST*
G04 Aperture macros list*
%AMRoundRect*
0 Rectangle with rounded corners*
0 $1 Rounding radius*
0 $2 $3 $4 $5 $6 $7 $8 $9 X,Y pos of 4 corners*
0 Add a 4 corners polygon primitive as box body*
4,1,4,$2,$3,$4,$5,$6,$7,$8,$9,$2,$3,0*
0 Add four circle primitives for the rounded corners*
1,1,$1+$1,$2,$3*
1,1,$1+$1,$4,$5*
1,1,$1+$1,$6,$7*
1,1,$1+$1,$8,$9*
0 Add four rect primitives between the rounded corners*
20,1,$1+$1,$2,$3,$4,$5,0*
20,1,$1+$1,$4,$5,$6,$7,0*
20,1,$1+$1,$6,$7,$8,$9,0*
20,1,$1+$1,$8,$9,$2,$3,0*%
G04 Aperture macros list end*
%ADD10C,0.153000*%
%ADD11C,0.010000*%
%ADD12C,0.120000*%
%ADD13C,0.150000*%
%ADD14C,1.676000*%
%ADD15O,1.676000X1.676000*%
%ADD16C,3.176000*%
%ADD17C,4.576000*%
%ADD18RoundRect,0.038000X0.750000X-0.525000X0.750000X0.525000X-0.750000X0.525000X-0.750000X-0.525000X0*%
%ADD19O,1.576000X1.126000*%
%ADD20RoundRect,0.038000X-1.000000X1.000000X-1.000000X-1.000000X1.000000X-1.000000X1.000000X1.000000X0*%
%ADD21O,1.676000X2.076000*%
%ADD22C,3.326000*%
%ADD23RoundRect,0.262500X-0.535500X0.535500X-0.535500X-0.535500X0.535500X-0.535500X0.535500X0.535500X0*%
%ADD24C,1.596000*%
%ADD25RoundRect,0.038000X-0.800000X0.800000X-0.800000X-0.800000X0.800000X-0.800000X0.800000X0.800000X0*%
%ADD26O,2.276000X2.276000*%
%ADD27RoundRect,0.038000X1.100000X1.100000X-1.100000X1.100000X-1.100000X-1.100000X1.100000X-1.100000X0*%
G04 APERTURE END LIST*
D10*
X72338752Y-96069663D02*
X72338752Y-95069663D01*
X72338752Y-95069663D02*
X72719704Y-95069663D01*
X72719704Y-95069663D02*
X72814942Y-95117282D01*
X72814942Y-95117282D02*
X72862561Y-95164901D01*
X72862561Y-95164901D02*
X72910180Y-95260139D01*
X72910180Y-95260139D02*
X72910180Y-95402996D01*
X72910180Y-95402996D02*
X72862561Y-95498234D01*
X72862561Y-95498234D02*
X72814942Y-95545853D01*
X72814942Y-95545853D02*
X72719704Y-95593472D01*
X72719704Y-95593472D02*
X72338752Y-95593472D01*
X73862561Y-96069663D02*
X73291133Y-96069663D01*
X73576847Y-96069663D02*
X73576847Y-95069663D01*
X73576847Y-95069663D02*
X73481609Y-95212520D01*
X73481609Y-95212520D02*
X73386371Y-95307758D01*
X73386371Y-95307758D02*
X73291133Y-95355377D01*
X74291133Y-95688710D02*
X75053038Y-95688710D01*
X76005418Y-96069663D02*
X75529228Y-96069663D01*
X75529228Y-96069663D02*
X75529228Y-95069663D01*
X76719704Y-96022044D02*
X76624466Y-96069663D01*
X76624466Y-96069663D02*
X76433990Y-96069663D01*
X76433990Y-96069663D02*
X76338752Y-96022044D01*
X76338752Y-96022044D02*
X76291133Y-95926805D01*
X76291133Y-95926805D02*
X76291133Y-95545853D01*
X76291133Y-95545853D02*
X76338752Y-95450615D01*
X76338752Y-95450615D02*
X76433990Y-95402996D01*
X76433990Y-95402996D02*
X76624466Y-95402996D01*
X76624466Y-95402996D02*
X76719704Y-95450615D01*
X76719704Y-95450615D02*
X76767323Y-95545853D01*
X76767323Y-95545853D02*
X76767323Y-95641091D01*
X76767323Y-95641091D02*
X76291133Y-95736329D01*
X77100657Y-95402996D02*
X77624466Y-95402996D01*
X77624466Y-95402996D02*
X77100657Y-96069663D01*
X77100657Y-96069663D02*
X77624466Y-96069663D01*
X78386371Y-96022044D02*
X78291133Y-96069663D01*
X78291133Y-96069663D02*
X78100657Y-96069663D01*
X78100657Y-96069663D02*
X78005419Y-96022044D01*
X78005419Y-96022044D02*
X77957800Y-95926805D01*
X77957800Y-95926805D02*
X77957800Y-95545853D01*
X77957800Y-95545853D02*
X78005419Y-95450615D01*
X78005419Y-95450615D02*
X78100657Y-95402996D01*
X78100657Y-95402996D02*
X78291133Y-95402996D01*
X78291133Y-95402996D02*
X78386371Y-95450615D01*
X78386371Y-95450615D02*
X78433990Y-95545853D01*
X78433990Y-95545853D02*
X78433990Y-95641091D01*
X78433990Y-95641091D02*
X77957800Y-95736329D01*
X78862562Y-96069663D02*
X78862562Y-95402996D01*
X78862562Y-95593472D02*
X78910181Y-95498234D01*
X78910181Y-95498234D02*
X78957800Y-95450615D01*
X78957800Y-95450615D02*
X79053038Y-95402996D01*
X79053038Y-95402996D02*
X79148276Y-95402996D01*
X81053039Y-95307758D02*
X80957800Y-95260139D01*
X80957800Y-95260139D02*
X80767324Y-95260139D01*
X80767324Y-95260139D02*
X80672086Y-95307758D01*
X80672086Y-95307758D02*
X80576848Y-95402996D01*
X80576848Y-95402996D02*
X80529229Y-95498234D01*
X80529229Y-95498234D02*
X80529229Y-95688710D01*
X80529229Y-95688710D02*
X80576848Y-95783948D01*
X80576848Y-95783948D02*
X80672086Y-95879186D01*
X80672086Y-95879186D02*
X80767324Y-95926805D01*
X80767324Y-95926805D02*
X80957800Y-95926805D01*
X80957800Y-95926805D02*
X81053039Y-95879186D01*
X80862562Y-94926805D02*
X80624467Y-94974424D01*
X80624467Y-94974424D02*
X80386372Y-95117282D01*
X80386372Y-95117282D02*
X80243515Y-95355377D01*
X80243515Y-95355377D02*
X80195896Y-95593472D01*
X80195896Y-95593472D02*
X80243515Y-95831567D01*
X80243515Y-95831567D02*
X80386372Y-96069663D01*
X80386372Y-96069663D02*
X80624467Y-96212520D01*
X80624467Y-96212520D02*
X80862562Y-96260139D01*
X80862562Y-96260139D02*
X81100658Y-96212520D01*
X81100658Y-96212520D02*
X81338753Y-96069663D01*
X81338753Y-96069663D02*
X81481610Y-95831567D01*
X81481610Y-95831567D02*
X81529229Y-95593472D01*
X81529229Y-95593472D02*
X81481610Y-95355377D01*
X81481610Y-95355377D02*
X81338753Y-95117282D01*
X81338753Y-95117282D02*
X81100658Y-94974424D01*
X81100658Y-94974424D02*
X80862562Y-94926805D01*
X82672087Y-95164901D02*
X82719706Y-95117282D01*
X82719706Y-95117282D02*
X82814944Y-95069663D01*
X82814944Y-95069663D02*
X83053039Y-95069663D01*
X83053039Y-95069663D02*
X83148277Y-95117282D01*
X83148277Y-95117282D02*
X83195896Y-95164901D01*
X83195896Y-95164901D02*
X83243515Y-95260139D01*
X83243515Y-95260139D02*
X83243515Y-95355377D01*
X83243515Y-95355377D02*
X83195896Y-95498234D01*
X83195896Y-95498234D02*
X82624468Y-96069663D01*
X82624468Y-96069663D02*
X83243515Y-96069663D01*
X83862563Y-95069663D02*
X83957801Y-95069663D01*
X83957801Y-95069663D02*
X84053039Y-95117282D01*
X84053039Y-95117282D02*
X84100658Y-95164901D01*
X84100658Y-95164901D02*
X84148277Y-95260139D01*
X84148277Y-95260139D02*
X84195896Y-95450615D01*
X84195896Y-95450615D02*
X84195896Y-95688710D01*
X84195896Y-95688710D02*
X84148277Y-95879186D01*
X84148277Y-95879186D02*
X84100658Y-95974424D01*
X84100658Y-95974424D02*
X84053039Y-96022044D01*
X84053039Y-96022044D02*
X83957801Y-96069663D01*
X83957801Y-96069663D02*
X83862563Y-96069663D01*
X83862563Y-96069663D02*
X83767325Y-96022044D01*
X83767325Y-96022044D02*
X83719706Y-95974424D01*
X83719706Y-95974424D02*
X83672087Y-95879186D01*
X83672087Y-95879186D02*
X83624468Y-95688710D01*
X83624468Y-95688710D02*
X83624468Y-95450615D01*
X83624468Y-95450615D02*
X83672087Y-95260139D01*
X83672087Y-95260139D02*
X83719706Y-95164901D01*
X83719706Y-95164901D02*
X83767325Y-95117282D01*
X83767325Y-95117282D02*
X83862563Y-95069663D01*
X84576849Y-95164901D02*
X84624468Y-95117282D01*
X84624468Y-95117282D02*
X84719706Y-95069663D01*
X84719706Y-95069663D02*
X84957801Y-95069663D01*
X84957801Y-95069663D02*
X85053039Y-95117282D01*
X85053039Y-95117282D02*
X85100658Y-95164901D01*
X85100658Y-95164901D02*
X85148277Y-95260139D01*
X85148277Y-95260139D02*
X85148277Y-95355377D01*
X85148277Y-95355377D02*
X85100658Y-95498234D01*
X85100658Y-95498234D02*
X84529230Y-96069663D01*
X84529230Y-96069663D02*
X85148277Y-96069663D01*
X86005420Y-95402996D02*
X86005420Y-96069663D01*
X85767325Y-95022044D02*
X85529230Y-95736329D01*
X85529230Y-95736329D02*
X86148277Y-95736329D01*
X87243516Y-96022044D02*
X87386373Y-96069663D01*
X87386373Y-96069663D02*
X87624468Y-96069663D01*
X87624468Y-96069663D02*
X87719706Y-96022044D01*
X87719706Y-96022044D02*
X87767325Y-95974424D01*
X87767325Y-95974424D02*
X87814944Y-95879186D01*
X87814944Y-95879186D02*
X87814944Y-95783948D01*
X87814944Y-95783948D02*
X87767325Y-95688710D01*
X87767325Y-95688710D02*
X87719706Y-95641091D01*
X87719706Y-95641091D02*
X87624468Y-95593472D01*
X87624468Y-95593472D02*
X87433992Y-95545853D01*
X87433992Y-95545853D02*
X87338754Y-95498234D01*
X87338754Y-95498234D02*
X87291135Y-95450615D01*
X87291135Y-95450615D02*
X87243516Y-95355377D01*
X87243516Y-95355377D02*
X87243516Y-95260139D01*
X87243516Y-95260139D02*
X87291135Y-95164901D01*
X87291135Y-95164901D02*
X87338754Y-95117282D01*
X87338754Y-95117282D02*
X87433992Y-95069663D01*
X87433992Y-95069663D02*
X87672087Y-95069663D01*
X87672087Y-95069663D02*
X87814944Y-95117282D01*
X88100659Y-95402996D02*
X88481611Y-95402996D01*
X88243516Y-95069663D02*
X88243516Y-95926805D01*
X88243516Y-95926805D02*
X88291135Y-96022044D01*
X88291135Y-96022044D02*
X88386373Y-96069663D01*
X88386373Y-96069663D02*
X88481611Y-96069663D01*
X88957802Y-96069663D02*
X88862564Y-96022044D01*
X88862564Y-96022044D02*
X88814945Y-95974424D01*
X88814945Y-95974424D02*
X88767326Y-95879186D01*
X88767326Y-95879186D02*
X88767326Y-95593472D01*
X88767326Y-95593472D02*
X88814945Y-95498234D01*
X88814945Y-95498234D02*
X88862564Y-95450615D01*
X88862564Y-95450615D02*
X88957802Y-95402996D01*
X88957802Y-95402996D02*
X89100659Y-95402996D01*
X89100659Y-95402996D02*
X89195897Y-95450615D01*
X89195897Y-95450615D02*
X89243516Y-95498234D01*
X89243516Y-95498234D02*
X89291135Y-95593472D01*
X89291135Y-95593472D02*
X89291135Y-95879186D01*
X89291135Y-95879186D02*
X89243516Y-95974424D01*
X89243516Y-95974424D02*
X89195897Y-96022044D01*
X89195897Y-96022044D02*
X89100659Y-96069663D01*
X89100659Y-96069663D02*
X88957802Y-96069663D01*
X89576850Y-95402996D02*
X89957802Y-95402996D01*
X89719707Y-96069663D02*
X89719707Y-95212520D01*
X89719707Y-95212520D02*
X89767326Y-95117282D01*
X89767326Y-95117282D02*
X89862564Y-95069663D01*
X89862564Y-95069663D02*
X89957802Y-95069663D01*
X90148279Y-95402996D02*
X90529231Y-95402996D01*
X90291136Y-96069663D02*
X90291136Y-95212520D01*
X90291136Y-95212520D02*
X90338755Y-95117282D01*
X90338755Y-95117282D02*
X90433993Y-95069663D01*
X90433993Y-95069663D02*
X90529231Y-95069663D01*
X91243517Y-96022044D02*
X91148279Y-96069663D01*
X91148279Y-96069663D02*
X90957803Y-96069663D01*
X90957803Y-96069663D02*
X90862565Y-96022044D01*
X90862565Y-96022044D02*
X90814946Y-95926805D01*
X90814946Y-95926805D02*
X90814946Y-95545853D01*
X90814946Y-95545853D02*
X90862565Y-95450615D01*
X90862565Y-95450615D02*
X90957803Y-95402996D01*
X90957803Y-95402996D02*
X91148279Y-95402996D01*
X91148279Y-95402996D02*
X91243517Y-95450615D01*
X91243517Y-95450615D02*
X91291136Y-95545853D01*
X91291136Y-95545853D02*
X91291136Y-95641091D01*
X91291136Y-95641091D02*
X90814946Y-95736329D01*
X91862565Y-96069663D02*
X91767327Y-96022044D01*
X91767327Y-96022044D02*
X91719708Y-95926805D01*
X91719708Y-95926805D02*
X91719708Y-95069663D01*
X92243518Y-96069663D02*
X92243518Y-95069663D01*
X92243518Y-95069663D02*
X92814946Y-96069663D01*
X92814946Y-96069663D02*
X92814946Y-95069663D01*
X93767327Y-96069663D02*
X93291137Y-96069663D01*
X93291137Y-96069663D02*
X93291137Y-95069663D01*
X76110180Y-94469663D02*
X75776847Y-93993472D01*
X75538752Y-94469663D02*
X75538752Y-93469663D01*
X75538752Y-93469663D02*
X75919704Y-93469663D01*
X75919704Y-93469663D02*
X76014942Y-93517282D01*
X76014942Y-93517282D02*
X76062561Y-93564901D01*
X76062561Y-93564901D02*
X76110180Y-93660139D01*
X76110180Y-93660139D02*
X76110180Y-93802996D01*
X76110180Y-93802996D02*
X76062561Y-93898234D01*
X76062561Y-93898234D02*
X76014942Y-93945853D01*
X76014942Y-93945853D02*
X75919704Y-93993472D01*
X75919704Y-93993472D02*
X75538752Y-93993472D01*
X76919704Y-94422044D02*
X76824466Y-94469663D01*
X76824466Y-94469663D02*
X76633990Y-94469663D01*
X76633990Y-94469663D02*
X76538752Y-94422044D01*
X76538752Y-94422044D02*
X76491133Y-94326805D01*
X76491133Y-94326805D02*
X76491133Y-93945853D01*
X76491133Y-93945853D02*
X76538752Y-93850615D01*
X76538752Y-93850615D02*
X76633990Y-93802996D01*
X76633990Y-93802996D02*
X76824466Y-93802996D01*
X76824466Y-93802996D02*
X76919704Y-93850615D01*
X76919704Y-93850615D02*
X76967323Y-93945853D01*
X76967323Y-93945853D02*
X76967323Y-94041091D01*
X76967323Y-94041091D02*
X76491133Y-94136329D01*
X77300657Y-93802996D02*
X77538752Y-94469663D01*
X77538752Y-94469663D02*
X77776847Y-93802996D01*
X78157800Y-94374424D02*
X78205419Y-94422044D01*
X78205419Y-94422044D02*
X78157800Y-94469663D01*
X78157800Y-94469663D02*
X78110181Y-94422044D01*
X78110181Y-94422044D02*
X78157800Y-94374424D01*
X78157800Y-94374424D02*
X78157800Y-94469663D01*
X78967323Y-93945853D02*
X79110180Y-93993472D01*
X79110180Y-93993472D02*
X79157799Y-94041091D01*
X79157799Y-94041091D02*
X79205418Y-94136329D01*
X79205418Y-94136329D02*
X79205418Y-94279186D01*
X79205418Y-94279186D02*
X79157799Y-94374424D01*
X79157799Y-94374424D02*
X79110180Y-94422044D01*
X79110180Y-94422044D02*
X79014942Y-94469663D01*
X79014942Y-94469663D02*
X78633990Y-94469663D01*
X78633990Y-94469663D02*
X78633990Y-93469663D01*
X78633990Y-93469663D02*
X78967323Y-93469663D01*
X78967323Y-93469663D02*
X79062561Y-93517282D01*
X79062561Y-93517282D02*
X79110180Y-93564901D01*
X79110180Y-93564901D02*
X79157799Y-93660139D01*
X79157799Y-93660139D02*
X79157799Y-93755377D01*
X79157799Y-93755377D02*
X79110180Y-93850615D01*
X79110180Y-93850615D02*
X79062561Y-93898234D01*
X79062561Y-93898234D02*
X78967323Y-93945853D01*
X78967323Y-93945853D02*
X78633990Y-93945853D01*
X105303333Y-76234663D02*
X104970000Y-75758472D01*
X104731905Y-76234663D02*
X104731905Y-75234663D01*
X104731905Y-75234663D02*
X105112857Y-75234663D01*
X105112857Y-75234663D02*
X105208095Y-75282282D01*
X105208095Y-75282282D02*
X105255714Y-75329901D01*
X105255714Y-75329901D02*
X105303333Y-75425139D01*
X105303333Y-75425139D02*
X105303333Y-75567996D01*
X105303333Y-75567996D02*
X105255714Y-75663234D01*
X105255714Y-75663234D02*
X105208095Y-75710853D01*
X105208095Y-75710853D02*
X105112857Y-75758472D01*
X105112857Y-75758472D02*
X104731905Y-75758472D01*
X105684286Y-75329901D02*
X105731905Y-75282282D01*
X105731905Y-75282282D02*
X105827143Y-75234663D01*
X105827143Y-75234663D02*
X106065238Y-75234663D01*
X106065238Y-75234663D02*
X106160476Y-75282282D01*
X106160476Y-75282282D02*
X106208095Y-75329901D01*
X106208095Y-75329901D02*
X106255714Y-75425139D01*
X106255714Y-75425139D02*
X106255714Y-75520377D01*
X106255714Y-75520377D02*
X106208095Y-75663234D01*
X106208095Y-75663234D02*
X105636667Y-76234663D01*
X105636667Y-76234663D02*
X106255714Y-76234663D01*
X100403333Y-83834663D02*
X100070000Y-83358472D01*
X99831905Y-83834663D02*
X99831905Y-82834663D01*
X99831905Y-82834663D02*
X100212857Y-82834663D01*
X100212857Y-82834663D02*
X100308095Y-82882282D01*
X100308095Y-82882282D02*
X100355714Y-82929901D01*
X100355714Y-82929901D02*
X100403333Y-83025139D01*
X100403333Y-83025139D02*
X100403333Y-83167996D01*
X100403333Y-83167996D02*
X100355714Y-83263234D01*
X100355714Y-83263234D02*
X100308095Y-83310853D01*
X100308095Y-83310853D02*
X100212857Y-83358472D01*
X100212857Y-83358472D02*
X99831905Y-83358472D01*
X101260476Y-83167996D02*
X101260476Y-83834663D01*
X101022381Y-82787044D02*
X100784286Y-83501329D01*
X100784286Y-83501329D02*
X101403333Y-83501329D01*
X96004761Y-70449901D02*
X95909523Y-70402282D01*
X95909523Y-70402282D02*
X95814285Y-70307044D01*
X95814285Y-70307044D02*
X95671428Y-70164186D01*
X95671428Y-70164186D02*
X95576190Y-70116567D01*
X95576190Y-70116567D02*
X95480952Y-70116567D01*
X95528571Y-70354663D02*
X95433333Y-70307044D01*
X95433333Y-70307044D02*
X95338095Y-70211805D01*
X95338095Y-70211805D02*
X95290476Y-70021329D01*
X95290476Y-70021329D02*
X95290476Y-69687996D01*
X95290476Y-69687996D02*
X95338095Y-69497520D01*
X95338095Y-69497520D02*
X95433333Y-69402282D01*
X95433333Y-69402282D02*
X95528571Y-69354663D01*
X95528571Y-69354663D02*
X95719047Y-69354663D01*
X95719047Y-69354663D02*
X95814285Y-69402282D01*
X95814285Y-69402282D02*
X95909523Y-69497520D01*
X95909523Y-69497520D02*
X95957142Y-69687996D01*
X95957142Y-69687996D02*
X95957142Y-70021329D01*
X95957142Y-70021329D02*
X95909523Y-70211805D01*
X95909523Y-70211805D02*
X95814285Y-70307044D01*
X95814285Y-70307044D02*
X95719047Y-70354663D01*
X95719047Y-70354663D02*
X95528571Y-70354663D01*
X96909523Y-70354663D02*
X96338095Y-70354663D01*
X96623809Y-70354663D02*
X96623809Y-69354663D01*
X96623809Y-69354663D02*
X96528571Y-69497520D01*
X96528571Y-69497520D02*
X96433333Y-69592758D01*
X96433333Y-69592758D02*
X96338095Y-69640377D01*
X105098095Y-82054663D02*
X105098095Y-82864186D01*
X105098095Y-82864186D02*
X105145714Y-82959424D01*
X105145714Y-82959424D02*
X105193333Y-83007044D01*
X105193333Y-83007044D02*
X105288571Y-83054663D01*
X105288571Y-83054663D02*
X105479047Y-83054663D01*
X105479047Y-83054663D02*
X105574285Y-83007044D01*
X105574285Y-83007044D02*
X105621904Y-82959424D01*
X105621904Y-82959424D02*
X105669523Y-82864186D01*
X105669523Y-82864186D02*
X105669523Y-82054663D01*
X106669523Y-83054663D02*
X106098095Y-83054663D01*
X106383809Y-83054663D02*
X106383809Y-82054663D01*
X106383809Y-82054663D02*
X106288571Y-82197520D01*
X106288571Y-82197520D02*
X106193333Y-82292758D01*
X106193333Y-82292758D02*
X106098095Y-82340377D01*
X82633333Y-93924663D02*
X82300000Y-93448472D01*
X82061905Y-93924663D02*
X82061905Y-92924663D01*
X82061905Y-92924663D02*
X82442857Y-92924663D01*
X82442857Y-92924663D02*
X82538095Y-92972282D01*
X82538095Y-92972282D02*
X82585714Y-93019901D01*
X82585714Y-93019901D02*
X82633333Y-93115139D01*
X82633333Y-93115139D02*
X82633333Y-93257996D01*
X82633333Y-93257996D02*
X82585714Y-93353234D01*
X82585714Y-93353234D02*
X82538095Y-93400853D01*
X82538095Y-93400853D02*
X82442857Y-93448472D01*
X82442857Y-93448472D02*
X82061905Y-93448472D01*
X82966667Y-92924663D02*
X83585714Y-92924663D01*
X83585714Y-92924663D02*
X83252381Y-93305615D01*
X83252381Y-93305615D02*
X83395238Y-93305615D01*
X83395238Y-93305615D02*
X83490476Y-93353234D01*
X83490476Y-93353234D02*
X83538095Y-93400853D01*
X83538095Y-93400853D02*
X83585714Y-93496091D01*
X83585714Y-93496091D02*
X83585714Y-93734186D01*
X83585714Y-93734186D02*
X83538095Y-93829424D01*
X83538095Y-93829424D02*
X83490476Y-93877044D01*
X83490476Y-93877044D02*
X83395238Y-93924663D01*
X83395238Y-93924663D02*
X83109524Y-93924663D01*
X83109524Y-93924663D02*
X83014286Y-93877044D01*
X83014286Y-93877044D02*
X82966667Y-93829424D01*
X83766666Y-81454663D02*
X83766666Y-82168948D01*
X83766666Y-82168948D02*
X83719047Y-82311805D01*
X83719047Y-82311805D02*
X83623809Y-82407044D01*
X83623809Y-82407044D02*
X83480952Y-82454663D01*
X83480952Y-82454663D02*
X83385714Y-82454663D01*
X84766666Y-82454663D02*
X84195238Y-82454663D01*
X84480952Y-82454663D02*
X84480952Y-81454663D01*
X84480952Y-81454663D02*
X84385714Y-81597520D01*
X84385714Y-81597520D02*
X84290476Y-81692758D01*
X84290476Y-81692758D02*
X84195238Y-81740377D01*
X86433333Y-71384663D02*
X86100000Y-70908472D01*
X85861905Y-71384663D02*
X85861905Y-70384663D01*
X85861905Y-70384663D02*
X86242857Y-70384663D01*
X86242857Y-70384663D02*
X86338095Y-70432282D01*
X86338095Y-70432282D02*
X86385714Y-70479901D01*
X86385714Y-70479901D02*
X86433333Y-70575139D01*
X86433333Y-70575139D02*
X86433333Y-70717996D01*
X86433333Y-70717996D02*
X86385714Y-70813234D01*
X86385714Y-70813234D02*
X86338095Y-70860853D01*
X86338095Y-70860853D02*
X86242857Y-70908472D01*
X86242857Y-70908472D02*
X85861905Y-70908472D01*
X87385714Y-71384663D02*
X86814286Y-71384663D01*
X87100000Y-71384663D02*
X87100000Y-70384663D01*
X87100000Y-70384663D02*
X87004762Y-70527520D01*
X87004762Y-70527520D02*
X86909524Y-70622758D01*
X86909524Y-70622758D02*
X86814286Y-70670377D01*
X94538095Y-81654663D02*
X94538095Y-82464186D01*
X94538095Y-82464186D02*
X94585714Y-82559424D01*
X94585714Y-82559424D02*
X94633333Y-82607044D01*
X94633333Y-82607044D02*
X94728571Y-82654663D01*
X94728571Y-82654663D02*
X94919047Y-82654663D01*
X94919047Y-82654663D02*
X95014285Y-82607044D01*
X95014285Y-82607044D02*
X95061904Y-82559424D01*
X95061904Y-82559424D02*
X95109523Y-82464186D01*
X95109523Y-82464186D02*
X95109523Y-81654663D01*
X95538095Y-81749901D02*
X95585714Y-81702282D01*
X95585714Y-81702282D02*
X95680952Y-81654663D01*
X95680952Y-81654663D02*
X95919047Y-81654663D01*
X95919047Y-81654663D02*
X96014285Y-81702282D01*
X96014285Y-81702282D02*
X96061904Y-81749901D01*
X96061904Y-81749901D02*
X96109523Y-81845139D01*
X96109523Y-81845139D02*
X96109523Y-81940377D01*
X96109523Y-81940377D02*
X96061904Y-82083234D01*
X96061904Y-82083234D02*
X95490476Y-82654663D01*
X95490476Y-82654663D02*
X96109523Y-82654663D01*
X95661905Y-95024663D02*
X95661905Y-94024663D01*
X95661905Y-94024663D02*
X95900000Y-94024663D01*
X95900000Y-94024663D02*
X96042857Y-94072282D01*
X96042857Y-94072282D02*
X96138095Y-94167520D01*
X96138095Y-94167520D02*
X96185714Y-94262758D01*
X96185714Y-94262758D02*
X96233333Y-94453234D01*
X96233333Y-94453234D02*
X96233333Y-94596091D01*
X96233333Y-94596091D02*
X96185714Y-94786567D01*
X96185714Y-94786567D02*
X96138095Y-94881805D01*
X96138095Y-94881805D02*
X96042857Y-94977044D01*
X96042857Y-94977044D02*
X95900000Y-95024663D01*
X95900000Y-95024663D02*
X95661905Y-95024663D01*
X97185714Y-95024663D02*
X96614286Y-95024663D01*
X96900000Y-95024663D02*
X96900000Y-94024663D01*
X96900000Y-94024663D02*
X96804762Y-94167520D01*
X96804762Y-94167520D02*
X96709524Y-94262758D01*
X96709524Y-94262758D02*
X96614286Y-94310377D01*
X101218095Y-94654663D02*
X101218095Y-93654663D01*
X101789523Y-94654663D02*
X101360952Y-94083234D01*
X101789523Y-93654663D02*
X101218095Y-94226091D01*
X72376191Y-70854663D02*
X72376191Y-69854663D01*
X72376191Y-69854663D02*
X72709524Y-70568948D01*
X72709524Y-70568948D02*
X73042857Y-69854663D01*
X73042857Y-69854663D02*
X73042857Y-70854663D01*
X73471429Y-69949901D02*
X73519048Y-69902282D01*
X73519048Y-69902282D02*
X73614286Y-69854663D01*
X73614286Y-69854663D02*
X73852381Y-69854663D01*
X73852381Y-69854663D02*
X73947619Y-69902282D01*
X73947619Y-69902282D02*
X73995238Y-69949901D01*
X73995238Y-69949901D02*
X74042857Y-70045139D01*
X74042857Y-70045139D02*
X74042857Y-70140377D01*
X74042857Y-70140377D02*
X73995238Y-70283234D01*
X73995238Y-70283234D02*
X73423810Y-70854663D01*
X73423810Y-70854663D02*
X74042857Y-70854663D01*
X74471429Y-70759424D02*
X74519048Y-70807044D01*
X74519048Y-70807044D02*
X74471429Y-70854663D01*
X74471429Y-70854663D02*
X74423810Y-70807044D01*
X74423810Y-70807044D02*
X74471429Y-70759424D01*
X74471429Y-70759424D02*
X74471429Y-70854663D01*
X75423809Y-69854663D02*
X74947619Y-69854663D01*
X74947619Y-69854663D02*
X74900000Y-70330853D01*
X74900000Y-70330853D02*
X74947619Y-70283234D01*
X74947619Y-70283234D02*
X75042857Y-70235615D01*
X75042857Y-70235615D02*
X75280952Y-70235615D01*
X75280952Y-70235615D02*
X75376190Y-70283234D01*
X75376190Y-70283234D02*
X75423809Y-70330853D01*
X75423809Y-70330853D02*
X75471428Y-70426091D01*
X75471428Y-70426091D02*
X75471428Y-70664186D01*
X75471428Y-70664186D02*
X75423809Y-70759424D01*
X75423809Y-70759424D02*
X75376190Y-70807044D01*
X75376190Y-70807044D02*
X75280952Y-70854663D01*
X75280952Y-70854663D02*
X75042857Y-70854663D01*
X75042857Y-70854663D02*
X74947619Y-70807044D01*
X74947619Y-70807044D02*
X74900000Y-70759424D01*
D11*
X105499460Y-88058030D02*
X105542711Y-88071245D01*
X105570558Y-88087941D01*
X105579629Y-88101145D01*
X105577132Y-88116797D01*
X105560931Y-88141385D01*
X105547232Y-88158800D01*
X105518992Y-88190283D01*
X105497775Y-88203529D01*
X105479688Y-88202664D01*
X105426035Y-88189010D01*
X105386630Y-88189630D01*
X105354632Y-88205104D01*
X105343890Y-88214161D01*
X105309505Y-88246027D01*
X105309505Y-88662179D01*
X105171188Y-88662179D01*
X105171188Y-88058614D01*
X105240347Y-88058614D01*
X105281869Y-88060256D01*
X105303291Y-88066087D01*
X105309502Y-88077461D01*
X105309505Y-88077798D01*
X105312439Y-88089713D01*
X105325704Y-88088159D01*
X105344084Y-88079563D01*
X105382046Y-88063568D01*
X105412872Y-88053945D01*
X105452536Y-88051478D01*
X105499460Y-88058030D01*
G36*
X105499460Y-88058030D02*
G01*
X105542711Y-88071245D01*
X105570558Y-88087941D01*
X105579629Y-88101145D01*
X105577132Y-88116797D01*
X105560931Y-88141385D01*
X105547232Y-88158800D01*
X105518992Y-88190283D01*
X105497775Y-88203529D01*
X105479688Y-88202664D01*
X105426035Y-88189010D01*
X105386630Y-88189630D01*
X105354632Y-88205104D01*
X105343890Y-88214161D01*
X105309505Y-88246027D01*
X105309505Y-88662179D01*
X105171188Y-88662179D01*
X105171188Y-88058614D01*
X105240347Y-88058614D01*
X105281869Y-88060256D01*
X105303291Y-88066087D01*
X105309502Y-88077461D01*
X105309505Y-88077798D01*
X105312439Y-88089713D01*
X105325704Y-88088159D01*
X105344084Y-88079563D01*
X105382046Y-88063568D01*
X105412872Y-88053945D01*
X105452536Y-88051478D01*
X105499460Y-88058030D01*
G37*
X105335255Y-89001486D02*
X105383595Y-89011015D01*
X105411114Y-89025125D01*
X105440064Y-89048568D01*
X105398876Y-89100571D01*
X105373482Y-89132064D01*
X105356238Y-89147428D01*
X105339102Y-89149776D01*
X105314027Y-89142217D01*
X105302257Y-89137941D01*
X105254270Y-89131631D01*
X105210324Y-89145156D01*
X105178060Y-89175710D01*
X105172819Y-89185452D01*
X105167112Y-89211258D01*
X105162706Y-89258817D01*
X105159811Y-89324758D01*
X105158631Y-89405710D01*
X105158614Y-89417226D01*
X105158614Y-89617822D01*
X105020297Y-89617822D01*
X105020297Y-89001683D01*
X105089456Y-89001683D01*
X105129333Y-89002725D01*
X105150107Y-89007358D01*
X105157789Y-89017849D01*
X105158614Y-89027745D01*
X105158614Y-89053806D01*
X105191745Y-89027745D01*
X105229735Y-89009965D01*
X105280770Y-89001174D01*
X105335255Y-89001486D01*
G36*
X105335255Y-89001486D02*
G01*
X105383595Y-89011015D01*
X105411114Y-89025125D01*
X105440064Y-89048568D01*
X105398876Y-89100571D01*
X105373482Y-89132064D01*
X105356238Y-89147428D01*
X105339102Y-89149776D01*
X105314027Y-89142217D01*
X105302257Y-89137941D01*
X105254270Y-89131631D01*
X105210324Y-89145156D01*
X105178060Y-89175710D01*
X105172819Y-89185452D01*
X105167112Y-89211258D01*
X105162706Y-89258817D01*
X105159811Y-89324758D01*
X105158631Y-89405710D01*
X105158614Y-89417226D01*
X105158614Y-89617822D01*
X105020297Y-89617822D01*
X105020297Y-89001683D01*
X105089456Y-89001683D01*
X105129333Y-89002725D01*
X105150107Y-89007358D01*
X105157789Y-89017849D01*
X105158614Y-89027745D01*
X105158614Y-89053806D01*
X105191745Y-89027745D01*
X105229735Y-89009965D01*
X105280770Y-89001174D01*
X105335255Y-89001486D01*
G37*
X102706644Y-89003020D02*
X102725461Y-89008660D01*
X102731527Y-89021053D01*
X102731782Y-89026647D01*
X102732871Y-89042230D01*
X102740368Y-89044676D01*
X102760619Y-89033993D01*
X102772649Y-89026694D01*
X102810600Y-89011063D01*
X102855928Y-89003334D01*
X102903456Y-89002740D01*
X102948005Y-89008513D01*
X102984398Y-89019884D01*
X103007457Y-89036088D01*
X103012004Y-89056355D01*
X103009709Y-89061843D01*
X102992980Y-89084626D01*
X102967037Y-89112647D01*
X102962345Y-89117177D01*
X102937617Y-89138005D01*
X102916282Y-89144735D01*
X102886445Y-89140038D01*
X102874492Y-89136917D01*
X102837295Y-89129421D01*
X102811141Y-89132792D01*
X102789054Y-89144681D01*
X102768822Y-89160635D01*
X102753921Y-89180700D01*
X102743566Y-89208702D01*
X102736971Y-89248467D01*
X102733351Y-89303823D01*
X102731922Y-89378594D01*
X102731782Y-89423740D01*
X102731782Y-89617822D01*
X102606040Y-89617822D01*
X102606040Y-89001683D01*
X102668911Y-89001683D01*
X102706644Y-89003020D01*
G36*
X102706644Y-89003020D02*
G01*
X102725461Y-89008660D01*
X102731527Y-89021053D01*
X102731782Y-89026647D01*
X102732871Y-89042230D01*
X102740368Y-89044676D01*
X102760619Y-89033993D01*
X102772649Y-89026694D01*
X102810600Y-89011063D01*
X102855928Y-89003334D01*
X102903456Y-89002740D01*
X102948005Y-89008513D01*
X102984398Y-89019884D01*
X103007457Y-89036088D01*
X103012004Y-89056355D01*
X103009709Y-89061843D01*
X102992980Y-89084626D01*
X102967037Y-89112647D01*
X102962345Y-89117177D01*
X102937617Y-89138005D01*
X102916282Y-89144735D01*
X102886445Y-89140038D01*
X102874492Y-89136917D01*
X102837295Y-89129421D01*
X102811141Y-89132792D01*
X102789054Y-89144681D01*
X102768822Y-89160635D01*
X102753921Y-89180700D01*
X102743566Y-89208702D01*
X102736971Y-89248467D01*
X102733351Y-89303823D01*
X102731922Y-89378594D01*
X102731782Y-89423740D01*
X102731782Y-89617822D01*
X102606040Y-89617822D01*
X102606040Y-89001683D01*
X102668911Y-89001683D01*
X102706644Y-89003020D01*
G37*
X104693367Y-88254342D02*
X104694555Y-88346563D01*
X104698897Y-88416610D01*
X104707558Y-88467381D01*
X104721704Y-88501772D01*
X104742500Y-88522679D01*
X104771110Y-88533000D01*
X104806535Y-88535636D01*
X104843636Y-88532682D01*
X104871818Y-88521889D01*
X104892243Y-88500360D01*
X104906079Y-88465199D01*
X104914491Y-88413510D01*
X104918643Y-88342394D01*
X104919703Y-88254342D01*
X104919703Y-88058614D01*
X105058020Y-88058614D01*
X105058020Y-88662179D01*
X104988862Y-88662179D01*
X104947170Y-88660489D01*
X104925701Y-88654556D01*
X104919703Y-88643293D01*
X104916091Y-88633261D01*
X104901714Y-88635383D01*
X104872736Y-88649580D01*
X104806319Y-88671480D01*
X104735875Y-88669928D01*
X104668377Y-88646147D01*
X104636233Y-88627362D01*
X104611715Y-88607022D01*
X104593804Y-88581573D01*
X104581479Y-88547458D01*
X104573723Y-88501121D01*
X104569516Y-88439007D01*
X104567840Y-88357561D01*
X104567624Y-88294578D01*
X104567624Y-88058614D01*
X104693367Y-88058614D01*
X104693367Y-88254342D01*
G36*
X104693367Y-88254342D02*
G01*
X104694555Y-88346563D01*
X104698897Y-88416610D01*
X104707558Y-88467381D01*
X104721704Y-88501772D01*
X104742500Y-88522679D01*
X104771110Y-88533000D01*
X104806535Y-88535636D01*
X104843636Y-88532682D01*
X104871818Y-88521889D01*
X104892243Y-88500360D01*
X104906079Y-88465199D01*
X104914491Y-88413510D01*
X104918643Y-88342394D01*
X104919703Y-88254342D01*
X104919703Y-88058614D01*
X105058020Y-88058614D01*
X105058020Y-88662179D01*
X104988862Y-88662179D01*
X104947170Y-88660489D01*
X104925701Y-88654556D01*
X104919703Y-88643293D01*
X104916091Y-88633261D01*
X104901714Y-88635383D01*
X104872736Y-88649580D01*
X104806319Y-88671480D01*
X104735875Y-88669928D01*
X104668377Y-88646147D01*
X104636233Y-88627362D01*
X104611715Y-88607022D01*
X104593804Y-88581573D01*
X104581479Y-88547458D01*
X104573723Y-88501121D01*
X104569516Y-88439007D01*
X104567840Y-88357561D01*
X104567624Y-88294578D01*
X104567624Y-88058614D01*
X104693367Y-88058614D01*
X104693367Y-88254342D01*
G37*
X102945988Y-88069002D02*
X102977283Y-88083950D01*
X103007591Y-88105541D01*
X103030682Y-88130391D01*
X103047500Y-88162087D01*
X103058994Y-88204214D01*
X103066109Y-88260358D01*
X103069793Y-88334106D01*
X103070992Y-88429044D01*
X103071011Y-88438985D01*
X103071287Y-88662179D01*
X102932970Y-88662179D01*
X102932970Y-88456418D01*
X102932872Y-88380189D01*
X102932191Y-88324939D01*
X102930349Y-88286501D01*
X102926767Y-88260706D01*
X102920868Y-88243384D01*
X102912073Y-88230368D01*
X102899820Y-88217507D01*
X102856953Y-88189873D01*
X102810157Y-88184745D01*
X102765576Y-88202217D01*
X102750072Y-88215221D01*
X102738690Y-88227447D01*
X102730519Y-88240540D01*
X102725026Y-88258615D01*
X102721680Y-88285787D01*
X102719949Y-88326170D01*
X102719303Y-88383879D01*
X102719208Y-88454132D01*
X102719208Y-88662179D01*
X102580891Y-88662179D01*
X102580891Y-88058614D01*
X102650050Y-88058614D01*
X102691572Y-88060256D01*
X102712994Y-88066087D01*
X102719205Y-88077461D01*
X102719208Y-88077798D01*
X102722090Y-88088938D01*
X102734801Y-88087674D01*
X102760074Y-88075434D01*
X102817395Y-88057424D01*
X102882963Y-88055421D01*
X102945988Y-88069002D01*
G36*
X102945988Y-88069002D02*
G01*
X102977283Y-88083950D01*
X103007591Y-88105541D01*
X103030682Y-88130391D01*
X103047500Y-88162087D01*
X103058994Y-88204214D01*
X103066109Y-88260358D01*
X103069793Y-88334106D01*
X103070992Y-88429044D01*
X103071011Y-88438985D01*
X103071287Y-88662179D01*
X102932970Y-88662179D01*
X102932970Y-88456418D01*
X102932872Y-88380189D01*
X102932191Y-88324939D01*
X102930349Y-88286501D01*
X102926767Y-88260706D01*
X102920868Y-88243384D01*
X102912073Y-88230368D01*
X102899820Y-88217507D01*
X102856953Y-88189873D01*
X102810157Y-88184745D01*
X102765576Y-88202217D01*
X102750072Y-88215221D01*
X102738690Y-88227447D01*
X102730519Y-88240540D01*
X102725026Y-88258615D01*
X102721680Y-88285787D01*
X102719949Y-88326170D01*
X102719303Y-88383879D01*
X102719208Y-88454132D01*
X102719208Y-88662179D01*
X102580891Y-88662179D01*
X102580891Y-88058614D01*
X102650050Y-88058614D01*
X102691572Y-88060256D01*
X102712994Y-88066087D01*
X102719205Y-88077461D01*
X102719208Y-88077798D01*
X102722090Y-88088938D01*
X102734801Y-88087674D01*
X102760074Y-88075434D01*
X102817395Y-88057424D01*
X102882963Y-88055421D01*
X102945988Y-88069002D01*
G37*
X105917226Y-88063880D02*
X105990080Y-88094830D01*
X106013027Y-88109895D01*
X106042354Y-88133048D01*
X106060764Y-88151253D01*
X106063961Y-88157183D01*
X106054935Y-88170340D01*
X106031837Y-88192667D01*
X106013344Y-88208250D01*
X105962728Y-88248926D01*
X105922760Y-88215295D01*
X105891874Y-88193584D01*
X105861759Y-88186090D01*
X105827292Y-88187920D01*
X105772561Y-88201528D01*
X105734886Y-88229772D01*
X105711991Y-88275433D01*
X105701597Y-88341289D01*
X105701595Y-88341331D01*
X105702494Y-88414939D01*
X105716463Y-88468946D01*
X105744328Y-88505716D01*
X105763325Y-88518168D01*
X105813776Y-88533673D01*
X105867663Y-88533683D01*
X105914546Y-88518638D01*
X105925644Y-88511287D01*
X105953476Y-88492511D01*
X105975236Y-88489434D01*
X105998704Y-88503409D01*
X106024649Y-88528510D01*
X106065716Y-88570880D01*
X106020121Y-88608464D01*
X105949674Y-88650882D01*
X105870233Y-88671785D01*
X105787215Y-88670272D01*
X105732694Y-88656411D01*
X105668970Y-88622135D01*
X105618005Y-88568212D01*
X105594851Y-88530149D01*
X105576099Y-88475536D01*
X105566715Y-88406369D01*
X105566643Y-88331407D01*
X105575824Y-88259409D01*
X105594199Y-88199137D01*
X105597093Y-88192958D01*
X105639952Y-88132351D01*
X105697979Y-88088224D01*
X105766591Y-88061493D01*
X105841201Y-88053073D01*
X105917226Y-88063880D01*
G36*
X105917226Y-88063880D02*
G01*
X105990080Y-88094830D01*
X106013027Y-88109895D01*
X106042354Y-88133048D01*
X106060764Y-88151253D01*
X106063961Y-88157183D01*
X106054935Y-88170340D01*
X106031837Y-88192667D01*
X106013344Y-88208250D01*
X105962728Y-88248926D01*
X105922760Y-88215295D01*
X105891874Y-88193584D01*
X105861759Y-88186090D01*
X105827292Y-88187920D01*
X105772561Y-88201528D01*
X105734886Y-88229772D01*
X105711991Y-88275433D01*
X105701597Y-88341289D01*
X105701595Y-88341331D01*
X105702494Y-88414939D01*
X105716463Y-88468946D01*
X105744328Y-88505716D01*
X105763325Y-88518168D01*
X105813776Y-88533673D01*
X105867663Y-88533683D01*
X105914546Y-88518638D01*
X105925644Y-88511287D01*
X105953476Y-88492511D01*
X105975236Y-88489434D01*
X105998704Y-88503409D01*
X106024649Y-88528510D01*
X106065716Y-88570880D01*
X106020121Y-88608464D01*
X105949674Y-88650882D01*
X105870233Y-88671785D01*
X105787215Y-88670272D01*
X105732694Y-88656411D01*
X105668970Y-88622135D01*
X105618005Y-88568212D01*
X105594851Y-88530149D01*
X105576099Y-88475536D01*
X105566715Y-88406369D01*
X105566643Y-88331407D01*
X105575824Y-88259409D01*
X105594199Y-88199137D01*
X105597093Y-88192958D01*
X105639952Y-88132351D01*
X105697979Y-88088224D01*
X105766591Y-88061493D01*
X105841201Y-88053073D01*
X105917226Y-88063880D01*
G37*
X104310762Y-88066055D02*
X104374363Y-88100692D01*
X104424123Y-88155372D01*
X104447568Y-88199842D01*
X104457634Y-88239121D01*
X104464156Y-88295116D01*
X104466951Y-88359621D01*
X104465836Y-88424429D01*
X104460626Y-88481334D01*
X104454541Y-88511727D01*
X104434014Y-88553306D01*
X104398463Y-88597468D01*
X104355619Y-88636087D01*
X104313211Y-88661034D01*
X104312177Y-88661430D01*
X104259553Y-88672331D01*
X104197188Y-88672601D01*
X104137924Y-88662676D01*
X104115040Y-88654722D01*
X104056102Y-88621300D01*
X104013890Y-88577511D01*
X103986156Y-88519538D01*
X103970651Y-88443565D01*
X103967143Y-88403771D01*
X103967590Y-88353766D01*
X104102376Y-88353766D01*
X104106917Y-88426732D01*
X104119986Y-88482334D01*
X104140756Y-88517861D01*
X104155552Y-88528020D01*
X104193464Y-88535104D01*
X104238527Y-88533007D01*
X104277487Y-88522812D01*
X104287704Y-88517204D01*
X104314659Y-88484538D01*
X104332451Y-88434545D01*
X104340024Y-88373705D01*
X104336325Y-88308497D01*
X104328057Y-88269253D01*
X104304320Y-88223805D01*
X104266849Y-88195396D01*
X104221720Y-88185573D01*
X104175011Y-88195887D01*
X104139132Y-88221112D01*
X104120277Y-88241925D01*
X104109272Y-88262439D01*
X104104026Y-88290203D01*
X104102449Y-88332762D01*
X104102376Y-88353766D01*
X103967590Y-88353766D01*
X103968094Y-88297580D01*
X103985388Y-88210501D01*
X104019029Y-88142530D01*
X104069018Y-88093664D01*
X104135356Y-88063899D01*
X104149601Y-88060448D01*
X104235210Y-88052345D01*
X104310762Y-88066055D01*
G36*
X104310762Y-88066055D02*
G01*
X104374363Y-88100692D01*
X104424123Y-88155372D01*
X104447568Y-88199842D01*
X104457634Y-88239121D01*
X104464156Y-88295116D01*
X104466951Y-88359621D01*
X104465836Y-88424429D01*
X104460626Y-88481334D01*
X104454541Y-88511727D01*
X104434014Y-88553306D01*
X104398463Y-88597468D01*
X104355619Y-88636087D01*
X104313211Y-88661034D01*
X104312177Y-88661430D01*
X104259553Y-88672331D01*
X104197188Y-88672601D01*
X104137924Y-88662676D01*
X104115040Y-88654722D01*
X104056102Y-88621300D01*
X104013890Y-88577511D01*
X103986156Y-88519538D01*
X103970651Y-88443565D01*
X103967143Y-88403771D01*
X103967590Y-88353766D01*
X104102376Y-88353766D01*
X104106917Y-88426732D01*
X104119986Y-88482334D01*
X104140756Y-88517861D01*
X104155552Y-88528020D01*
X104193464Y-88535104D01*
X104238527Y-88533007D01*
X104277487Y-88522812D01*
X104287704Y-88517204D01*
X104314659Y-88484538D01*
X104332451Y-88434545D01*
X104340024Y-88373705D01*
X104336325Y-88308497D01*
X104328057Y-88269253D01*
X104304320Y-88223805D01*
X104266849Y-88195396D01*
X104221720Y-88185573D01*
X104175011Y-88195887D01*
X104139132Y-88221112D01*
X104120277Y-88241925D01*
X104109272Y-88262439D01*
X104104026Y-88290203D01*
X104102449Y-88332762D01*
X104102376Y-88353766D01*
X103967590Y-88353766D01*
X103968094Y-88297580D01*
X103985388Y-88210501D01*
X104019029Y-88142530D01*
X104069018Y-88093664D01*
X104135356Y-88063899D01*
X104149601Y-88060448D01*
X104235210Y-88052345D01*
X104310762Y-88066055D01*
G37*
X103981524Y-89004237D02*
X104031255Y-89007971D01*
X104161291Y-89397773D01*
X104181678Y-89328614D01*
X104193946Y-89285874D01*
X104210085Y-89228115D01*
X104227512Y-89164625D01*
X104236726Y-89130570D01*
X104271388Y-89001683D01*
X104414391Y-89001683D01*
X104371646Y-89136857D01*
X104350596Y-89203342D01*
X104325167Y-89283539D01*
X104298610Y-89367193D01*
X104274902Y-89441782D01*
X104220902Y-89611535D01*
X104162598Y-89615328D01*
X104104295Y-89619122D01*
X104072679Y-89514734D01*
X104053182Y-89449889D01*
X104031904Y-89378400D01*
X104013308Y-89315263D01*
X104012574Y-89312750D01*
X103998684Y-89269969D01*
X103986429Y-89240779D01*
X103977846Y-89229741D01*
X103976082Y-89231018D01*
X103969891Y-89248130D01*
X103958128Y-89284787D01*
X103942225Y-89336378D01*
X103923614Y-89398294D01*
X103913543Y-89432352D01*
X103859007Y-89617822D01*
X103743264Y-89617822D01*
X103650737Y-89325471D01*
X103624744Y-89243462D01*
X103601066Y-89168987D01*
X103580820Y-89105544D01*
X103565126Y-89056632D01*
X103555102Y-89025749D01*
X103552055Y-89016726D01*
X103554467Y-89007487D01*
X103573408Y-89003441D01*
X103612823Y-89003846D01*
X103618993Y-89004152D01*
X103692086Y-89007971D01*
X103739957Y-89184010D01*
X103757553Y-89248211D01*
X103773277Y-89304649D01*
X103785746Y-89348422D01*
X103793574Y-89374630D01*
X103795020Y-89378903D01*
X103801014Y-89373990D01*
X103813101Y-89348532D01*
X103829893Y-89305997D01*
X103850003Y-89249850D01*
X103867003Y-89199130D01*
X103931794Y-89000504D01*
X103981524Y-89004237D01*
G36*
X103981524Y-89004237D02*
G01*
X104031255Y-89007971D01*
X104161291Y-89397773D01*
X104181678Y-89328614D01*
X104193946Y-89285874D01*
X104210085Y-89228115D01*
X104227512Y-89164625D01*
X104236726Y-89130570D01*
X104271388Y-89001683D01*
X104414391Y-89001683D01*
X104371646Y-89136857D01*
X104350596Y-89203342D01*
X104325167Y-89283539D01*
X104298610Y-89367193D01*
X104274902Y-89441782D01*
X104220902Y-89611535D01*
X104162598Y-89615328D01*
X104104295Y-89619122D01*
X104072679Y-89514734D01*
X104053182Y-89449889D01*
X104031904Y-89378400D01*
X104013308Y-89315263D01*
X104012574Y-89312750D01*
X103998684Y-89269969D01*
X103986429Y-89240779D01*
X103977846Y-89229741D01*
X103976082Y-89231018D01*
X103969891Y-89248130D01*
X103958128Y-89284787D01*
X103942225Y-89336378D01*
X103923614Y-89398294D01*
X103913543Y-89432352D01*
X103859007Y-89617822D01*
X103743264Y-89617822D01*
X103650737Y-89325471D01*
X103624744Y-89243462D01*
X103601066Y-89168987D01*
X103580820Y-89105544D01*
X103565126Y-89056632D01*
X103555102Y-89025749D01*
X103552055Y-89016726D01*
X103554467Y-89007487D01*
X103573408Y-89003441D01*
X103612823Y-89003846D01*
X103618993Y-89004152D01*
X103692086Y-89007971D01*
X103739957Y-89184010D01*
X103757553Y-89248211D01*
X103773277Y-89304649D01*
X103785746Y-89348422D01*
X103793574Y-89374630D01*
X103795020Y-89378903D01*
X103801014Y-89373990D01*
X103813101Y-89348532D01*
X103829893Y-89305997D01*
X103850003Y-89249850D01*
X103867003Y-89199130D01*
X103931794Y-89000504D01*
X103981524Y-89004237D01*
G37*
X101161739Y-88065148D02*
X101227521Y-88094231D01*
X101277460Y-88142793D01*
X101311626Y-88210908D01*
X101330093Y-88298651D01*
X101331417Y-88312351D01*
X101332454Y-88408939D01*
X101319007Y-88493602D01*
X101291892Y-88562221D01*
X101277373Y-88584294D01*
X101226799Y-88631011D01*
X101162391Y-88661268D01*
X101090334Y-88673824D01*
X101016815Y-88667439D01*
X100960928Y-88647772D01*
X100912868Y-88614629D01*
X100873588Y-88571175D01*
X100872908Y-88570158D01*
X100856956Y-88543338D01*
X100846590Y-88516368D01*
X100840312Y-88482332D01*
X100836627Y-88434310D01*
X100835003Y-88394931D01*
X100834328Y-88359219D01*
X100960045Y-88359219D01*
X100961274Y-88394770D01*
X100965734Y-88442094D01*
X100973603Y-88472465D01*
X100987793Y-88494072D01*
X101001083Y-88506694D01*
X101048198Y-88533122D01*
X101097495Y-88536653D01*
X101143407Y-88517639D01*
X101166362Y-88496331D01*
X101182904Y-88474859D01*
X101192579Y-88454313D01*
X101196826Y-88427574D01*
X101197080Y-88387523D01*
X101195772Y-88350638D01*
X101192957Y-88297947D01*
X101188495Y-88263772D01*
X101180452Y-88241480D01*
X101166897Y-88224442D01*
X101156155Y-88214703D01*
X101111223Y-88189123D01*
X101062751Y-88187847D01*
X101022106Y-88202999D01*
X100987433Y-88234642D01*
X100966776Y-88286620D01*
X100960045Y-88359219D01*
X100834328Y-88359219D01*
X100833521Y-88316621D01*
X100836052Y-88258056D01*
X100843638Y-88214007D01*
X100857319Y-88179248D01*
X100878135Y-88148551D01*
X100885853Y-88139436D01*
X100934111Y-88094021D01*
X100985872Y-88067493D01*
X101049172Y-88056379D01*
X101080039Y-88055471D01*
X101161739Y-88065148D01*
G36*
X101161739Y-88065148D02*
G01*
X101227521Y-88094231D01*
X101277460Y-88142793D01*
X101311626Y-88210908D01*
X101330093Y-88298651D01*
X101331417Y-88312351D01*
X101332454Y-88408939D01*
X101319007Y-88493602D01*
X101291892Y-88562221D01*
X101277373Y-88584294D01*
X101226799Y-88631011D01*
X101162391Y-88661268D01*
X101090334Y-88673824D01*
X101016815Y-88667439D01*
X100960928Y-88647772D01*
X100912868Y-88614629D01*
X100873588Y-88571175D01*
X100872908Y-88570158D01*
X100856956Y-88543338D01*
X100846590Y-88516368D01*
X100840312Y-88482332D01*
X100836627Y-88434310D01*
X100835003Y-88394931D01*
X100834328Y-88359219D01*
X100960045Y-88359219D01*
X100961274Y-88394770D01*
X100965734Y-88442094D01*
X100973603Y-88472465D01*
X100987793Y-88494072D01*
X101001083Y-88506694D01*
X101048198Y-88533122D01*
X101097495Y-88536653D01*
X101143407Y-88517639D01*
X101166362Y-88496331D01*
X101182904Y-88474859D01*
X101192579Y-88454313D01*
X101196826Y-88427574D01*
X101197080Y-88387523D01*
X101195772Y-88350638D01*
X101192957Y-88297947D01*
X101188495Y-88263772D01*
X101180452Y-88241480D01*
X101166897Y-88224442D01*
X101156155Y-88214703D01*
X101111223Y-88189123D01*
X101062751Y-88187847D01*
X101022106Y-88202999D01*
X100987433Y-88234642D01*
X100966776Y-88286620D01*
X100960045Y-88359219D01*
X100834328Y-88359219D01*
X100833521Y-88316621D01*
X100836052Y-88258056D01*
X100843638Y-88214007D01*
X100857319Y-88179248D01*
X100878135Y-88148551D01*
X100885853Y-88139436D01*
X100934111Y-88094021D01*
X100985872Y-88067493D01*
X101049172Y-88056379D01*
X101080039Y-88055471D01*
X101161739Y-88065148D01*
G37*
X103498812Y-89617822D02*
X103429654Y-89617822D01*
X103389512Y-89616645D01*
X103368606Y-89611772D01*
X103361078Y-89601186D01*
X103360495Y-89594029D01*
X103359226Y-89579676D01*
X103351221Y-89576923D01*
X103330185Y-89585771D01*
X103313827Y-89594029D01*
X103251023Y-89613597D01*
X103182752Y-89614729D01*
X103127248Y-89600135D01*
X103075562Y-89564877D01*
X103036162Y-89512835D01*
X103014587Y-89451450D01*
X103014038Y-89448018D01*
X103010833Y-89410571D01*
X103009239Y-89356813D01*
X103009367Y-89316155D01*
X103146721Y-89316155D01*
X103149903Y-89370194D01*
X103157141Y-89414735D01*
X103166940Y-89439888D01*
X103204011Y-89474260D01*
X103248026Y-89486582D01*
X103293416Y-89476618D01*
X103332203Y-89446895D01*
X103346892Y-89426905D01*
X103355481Y-89403050D01*
X103359504Y-89368230D01*
X103360495Y-89315930D01*
X103358722Y-89264139D01*
X103354037Y-89218634D01*
X103347397Y-89188181D01*
X103346290Y-89185452D01*
X103319509Y-89153000D01*
X103280421Y-89135183D01*
X103236685Y-89132306D01*
X103195962Y-89144674D01*
X103165913Y-89172593D01*
X103162796Y-89178148D01*
X103153039Y-89212022D01*
X103147723Y-89260728D01*
X103146721Y-89316155D01*
X103009367Y-89316155D01*
X103009432Y-89295540D01*
X103010336Y-89262563D01*
X103016486Y-89180981D01*
X103029267Y-89119730D01*
X103050529Y-89074449D01*
X103082122Y-89040779D01*
X103112793Y-89021014D01*
X103155646Y-89007120D01*
X103208944Y-89002354D01*
X103263520Y-89006236D01*
X103310208Y-89018282D01*
X103334876Y-89032693D01*
X103360495Y-89055878D01*
X103360495Y-88762773D01*
X103498812Y-88762773D01*
X103498812Y-89617822D01*
G36*
X103498812Y-89617822D02*
G01*
X103429654Y-89617822D01*
X103389512Y-89616645D01*
X103368606Y-89611772D01*
X103361078Y-89601186D01*
X103360495Y-89594029D01*
X103359226Y-89579676D01*
X103351221Y-89576923D01*
X103330185Y-89585771D01*
X103313827Y-89594029D01*
X103251023Y-89613597D01*
X103182752Y-89614729D01*
X103127248Y-89600135D01*
X103075562Y-89564877D01*
X103036162Y-89512835D01*
X103014587Y-89451450D01*
X103014038Y-89448018D01*
X103010833Y-89410571D01*
X103009239Y-89356813D01*
X103009367Y-89316155D01*
X103146721Y-89316155D01*
X103149903Y-89370194D01*
X103157141Y-89414735D01*
X103166940Y-89439888D01*
X103204011Y-89474260D01*
X103248026Y-89486582D01*
X103293416Y-89476618D01*
X103332203Y-89446895D01*
X103346892Y-89426905D01*
X103355481Y-89403050D01*
X103359504Y-89368230D01*
X103360495Y-89315930D01*
X103358722Y-89264139D01*
X103354037Y-89218634D01*
X103347397Y-89188181D01*
X103346290Y-89185452D01*
X103319509Y-89153000D01*
X103280421Y-89135183D01*
X103236685Y-89132306D01*
X103195962Y-89144674D01*
X103165913Y-89172593D01*
X103162796Y-89178148D01*
X103153039Y-89212022D01*
X103147723Y-89260728D01*
X103146721Y-89316155D01*
X103009367Y-89316155D01*
X103009432Y-89295540D01*
X103010336Y-89262563D01*
X103016486Y-89180981D01*
X103029267Y-89119730D01*
X103050529Y-89074449D01*
X103082122Y-89040779D01*
X103112793Y-89021014D01*
X103155646Y-89007120D01*
X103208944Y-89002354D01*
X103263520Y-89006236D01*
X103310208Y-89018282D01*
X103334876Y-89032693D01*
X103360495Y-89055878D01*
X103360495Y-88762773D01*
X103498812Y-88762773D01*
X103498812Y-89617822D01*
G37*
X106377898Y-88056457D02*
X106410096Y-88064279D01*
X106471825Y-88092921D01*
X106524610Y-88136667D01*
X106561141Y-88189117D01*
X106566160Y-88200893D01*
X106573045Y-88231740D01*
X106577864Y-88277371D01*
X106579505Y-88323492D01*
X106579505Y-88410693D01*
X106397178Y-88410693D01*
X106321979Y-88410978D01*
X106269003Y-88412704D01*
X106235325Y-88417181D01*
X106218020Y-88425720D01*
X106214163Y-88439630D01*
X106220829Y-88460222D01*
X106232770Y-88484315D01*
X106266080Y-88524525D01*
X106312368Y-88544558D01*
X106368944Y-88543905D01*
X106433031Y-88522101D01*
X106488417Y-88495193D01*
X106534375Y-88531532D01*
X106580333Y-88567872D01*
X106537096Y-88607819D01*
X106479374Y-88645563D01*
X106408386Y-88668320D01*
X106332029Y-88674688D01*
X106258199Y-88663268D01*
X106246287Y-88659393D01*
X106181399Y-88625506D01*
X106133130Y-88574986D01*
X106100465Y-88506325D01*
X106082385Y-88418014D01*
X106082175Y-88416121D01*
X106080556Y-88319878D01*
X106087100Y-88285542D01*
X106214852Y-88285542D01*
X106226584Y-88290822D01*
X106258438Y-88294867D01*
X106305397Y-88297176D01*
X106335154Y-88297525D01*
X106390648Y-88297306D01*
X106425346Y-88295916D01*
X106443601Y-88292251D01*
X106449766Y-88285210D01*
X106448195Y-88273690D01*
X106446878Y-88269233D01*
X106424382Y-88227355D01*
X106389003Y-88193604D01*
X106357780Y-88178773D01*
X106316301Y-88179668D01*
X106274269Y-88198164D01*
X106239012Y-88228786D01*
X106217854Y-88266062D01*
X106214852Y-88285542D01*
X106087100Y-88285542D01*
X106096690Y-88235229D01*
X106128698Y-88164191D01*
X106174701Y-88108779D01*
X106232821Y-88071009D01*
X106301180Y-88052896D01*
X106377898Y-88056457D01*
G36*
X106377898Y-88056457D02*
G01*
X106410096Y-88064279D01*
X106471825Y-88092921D01*
X106524610Y-88136667D01*
X106561141Y-88189117D01*
X106566160Y-88200893D01*
X106573045Y-88231740D01*
X106577864Y-88277371D01*
X106579505Y-88323492D01*
X106579505Y-88410693D01*
X106397178Y-88410693D01*
X106321979Y-88410978D01*
X106269003Y-88412704D01*
X106235325Y-88417181D01*
X106218020Y-88425720D01*
X106214163Y-88439630D01*
X106220829Y-88460222D01*
X106232770Y-88484315D01*
X106266080Y-88524525D01*
X106312368Y-88544558D01*
X106368944Y-88543905D01*
X106433031Y-88522101D01*
X106488417Y-88495193D01*
X106534375Y-88531532D01*
X106580333Y-88567872D01*
X106537096Y-88607819D01*
X106479374Y-88645563D01*
X106408386Y-88668320D01*
X106332029Y-88674688D01*
X106258199Y-88663268D01*
X106246287Y-88659393D01*
X106181399Y-88625506D01*
X106133130Y-88574986D01*
X106100465Y-88506325D01*
X106082385Y-88418014D01*
X106082175Y-88416121D01*
X106080556Y-88319878D01*
X106087100Y-88285542D01*
X106214852Y-88285542D01*
X106226584Y-88290822D01*
X106258438Y-88294867D01*
X106305397Y-88297176D01*
X106335154Y-88297525D01*
X106390648Y-88297306D01*
X106425346Y-88295916D01*
X106443601Y-88292251D01*
X106449766Y-88285210D01*
X106448195Y-88273690D01*
X106446878Y-88269233D01*
X106424382Y-88227355D01*
X106389003Y-88193604D01*
X106357780Y-88178773D01*
X106316301Y-88179668D01*
X106274269Y-88198164D01*
X106239012Y-88228786D01*
X106217854Y-88266062D01*
X106214852Y-88285542D01*
X106087100Y-88285542D01*
X106096690Y-88235229D01*
X106128698Y-88164191D01*
X106174701Y-88108779D01*
X106232821Y-88071009D01*
X106301180Y-88052896D01*
X106377898Y-88056457D01*
G37*
X103714017Y-88056452D02*
X103761634Y-88065482D01*
X103811034Y-88084370D01*
X103816312Y-88086777D01*
X103853774Y-88106476D01*
X103879717Y-88124781D01*
X103888103Y-88136508D01*
X103880117Y-88155632D01*
X103860720Y-88183850D01*
X103852110Y-88194384D01*
X103816628Y-88235847D01*
X103770885Y-88208858D01*
X103727350Y-88190878D01*
X103677050Y-88181267D01*
X103628812Y-88180660D01*
X103591467Y-88189691D01*
X103582505Y-88195327D01*
X103565437Y-88221171D01*
X103563363Y-88250941D01*
X103576134Y-88274197D01*
X103583688Y-88278708D01*
X103606325Y-88284309D01*
X103646115Y-88290892D01*
X103695166Y-88297183D01*
X103704215Y-88298170D01*
X103782996Y-88311798D01*
X103840136Y-88334946D01*
X103878030Y-88369752D01*
X103899079Y-88418354D01*
X103905635Y-88477718D01*
X103896577Y-88545198D01*
X103867164Y-88598188D01*
X103817278Y-88636783D01*
X103746800Y-88661081D01*
X103668565Y-88670667D01*
X103604766Y-88670552D01*
X103553016Y-88661845D01*
X103517673Y-88649825D01*
X103473017Y-88628880D01*
X103431747Y-88604574D01*
X103417079Y-88593876D01*
X103379357Y-88563084D01*
X103424852Y-88517049D01*
X103470347Y-88471013D01*
X103522072Y-88505243D01*
X103573952Y-88530952D01*
X103629351Y-88544399D01*
X103682605Y-88545818D01*
X103728049Y-88535443D01*
X103760016Y-88513507D01*
X103770338Y-88494998D01*
X103768789Y-88465314D01*
X103743140Y-88442615D01*
X103693460Y-88426940D01*
X103639031Y-88419695D01*
X103555264Y-88405873D01*
X103493033Y-88379796D01*
X103451507Y-88340699D01*
X103429853Y-88287820D01*
X103426853Y-88225126D01*
X103441671Y-88159642D01*
X103475454Y-88110144D01*
X103528505Y-88076408D01*
X103601126Y-88058207D01*
X103654928Y-88054639D01*
X103714017Y-88056452D01*
G36*
X103714017Y-88056452D02*
G01*
X103761634Y-88065482D01*
X103811034Y-88084370D01*
X103816312Y-88086777D01*
X103853774Y-88106476D01*
X103879717Y-88124781D01*
X103888103Y-88136508D01*
X103880117Y-88155632D01*
X103860720Y-88183850D01*
X103852110Y-88194384D01*
X103816628Y-88235847D01*
X103770885Y-88208858D01*
X103727350Y-88190878D01*
X103677050Y-88181267D01*
X103628812Y-88180660D01*
X103591467Y-88189691D01*
X103582505Y-88195327D01*
X103565437Y-88221171D01*
X103563363Y-88250941D01*
X103576134Y-88274197D01*
X103583688Y-88278708D01*
X103606325Y-88284309D01*
X103646115Y-88290892D01*
X103695166Y-88297183D01*
X103704215Y-88298170D01*
X103782996Y-88311798D01*
X103840136Y-88334946D01*
X103878030Y-88369752D01*
X103899079Y-88418354D01*
X103905635Y-88477718D01*
X103896577Y-88545198D01*
X103867164Y-88598188D01*
X103817278Y-88636783D01*
X103746800Y-88661081D01*
X103668565Y-88670667D01*
X103604766Y-88670552D01*
X103553016Y-88661845D01*
X103517673Y-88649825D01*
X103473017Y-88628880D01*
X103431747Y-88604574D01*
X103417079Y-88593876D01*
X103379357Y-88563084D01*
X103424852Y-88517049D01*
X103470347Y-88471013D01*
X103522072Y-88505243D01*
X103573952Y-88530952D01*
X103629351Y-88544399D01*
X103682605Y-88545818D01*
X103728049Y-88535443D01*
X103760016Y-88513507D01*
X103770338Y-88494998D01*
X103768789Y-88465314D01*
X103743140Y-88442615D01*
X103693460Y-88426940D01*
X103639031Y-88419695D01*
X103555264Y-88405873D01*
X103493033Y-88379796D01*
X103451507Y-88340699D01*
X103429853Y-88287820D01*
X103426853Y-88225126D01*
X103441671Y-88159642D01*
X103475454Y-88110144D01*
X103528505Y-88076408D01*
X103601126Y-88058207D01*
X103654928Y-88054639D01*
X103714017Y-88056452D01*
G37*
X105732581Y-89004970D02*
X105792685Y-89020597D01*
X105843021Y-89052848D01*
X105867393Y-89076940D01*
X105907345Y-89133895D01*
X105930242Y-89199965D01*
X105938108Y-89281182D01*
X105938148Y-89287748D01*
X105938218Y-89353763D01*
X105558264Y-89353763D01*
X105566363Y-89388342D01*
X105580987Y-89419659D01*
X105606581Y-89452291D01*
X105611935Y-89457500D01*
X105657943Y-89485694D01*
X105710410Y-89490475D01*
X105770803Y-89471926D01*
X105781040Y-89466931D01*
X105812439Y-89451745D01*
X105833470Y-89443094D01*
X105837139Y-89442293D01*
X105849948Y-89450063D01*
X105874378Y-89469072D01*
X105886779Y-89479460D01*
X105912476Y-89503321D01*
X105920915Y-89519077D01*
X105915058Y-89533571D01*
X105911928Y-89537534D01*
X105890725Y-89554879D01*
X105855738Y-89575959D01*
X105831337Y-89588265D01*
X105762072Y-89609946D01*
X105685388Y-89616971D01*
X105612765Y-89608647D01*
X105592426Y-89602686D01*
X105529476Y-89568952D01*
X105482815Y-89517045D01*
X105452173Y-89446459D01*
X105437282Y-89356692D01*
X105435647Y-89309753D01*
X105440421Y-89241413D01*
X105560990Y-89241413D01*
X105572652Y-89246465D01*
X105603998Y-89250429D01*
X105649571Y-89252768D01*
X105680446Y-89253169D01*
X105735981Y-89252783D01*
X105771033Y-89250975D01*
X105790262Y-89246773D01*
X105798330Y-89239203D01*
X105799901Y-89228218D01*
X105789121Y-89194381D01*
X105761980Y-89160940D01*
X105726277Y-89135272D01*
X105690560Y-89124772D01*
X105642048Y-89134086D01*
X105600053Y-89161013D01*
X105570936Y-89199827D01*
X105560990Y-89241413D01*
X105440421Y-89241413D01*
X105442599Y-89210236D01*
X105464055Y-89130949D01*
X105500470Y-89071263D01*
X105552297Y-89030549D01*
X105619990Y-89008179D01*
X105656662Y-89003871D01*
X105732581Y-89004970D01*
G36*
X105732581Y-89004970D02*
G01*
X105792685Y-89020597D01*
X105843021Y-89052848D01*
X105867393Y-89076940D01*
X105907345Y-89133895D01*
X105930242Y-89199965D01*
X105938108Y-89281182D01*
X105938148Y-89287748D01*
X105938218Y-89353763D01*
X105558264Y-89353763D01*
X105566363Y-89388342D01*
X105580987Y-89419659D01*
X105606581Y-89452291D01*
X105611935Y-89457500D01*
X105657943Y-89485694D01*
X105710410Y-89490475D01*
X105770803Y-89471926D01*
X105781040Y-89466931D01*
X105812439Y-89451745D01*
X105833470Y-89443094D01*
X105837139Y-89442293D01*
X105849948Y-89450063D01*
X105874378Y-89469072D01*
X105886779Y-89479460D01*
X105912476Y-89503321D01*
X105920915Y-89519077D01*
X105915058Y-89533571D01*
X105911928Y-89537534D01*
X105890725Y-89554879D01*
X105855738Y-89575959D01*
X105831337Y-89588265D01*
X105762072Y-89609946D01*
X105685388Y-89616971D01*
X105612765Y-89608647D01*
X105592426Y-89602686D01*
X105529476Y-89568952D01*
X105482815Y-89517045D01*
X105452173Y-89446459D01*
X105437282Y-89356692D01*
X105435647Y-89309753D01*
X105440421Y-89241413D01*
X105560990Y-89241413D01*
X105572652Y-89246465D01*
X105603998Y-89250429D01*
X105649571Y-89252768D01*
X105680446Y-89253169D01*
X105735981Y-89252783D01*
X105771033Y-89250975D01*
X105790262Y-89246773D01*
X105798330Y-89239203D01*
X105799901Y-89228218D01*
X105789121Y-89194381D01*
X105761980Y-89160940D01*
X105726277Y-89135272D01*
X105690560Y-89124772D01*
X105642048Y-89134086D01*
X105600053Y-89161013D01*
X105570936Y-89199827D01*
X105560990Y-89241413D01*
X105440421Y-89241413D01*
X105442599Y-89210236D01*
X105464055Y-89130949D01*
X105500470Y-89071263D01*
X105552297Y-89030549D01*
X105619990Y-89008179D01*
X105656662Y-89003871D01*
X105732581Y-89004970D01*
G37*
X102343301Y-88072614D02*
X102355832Y-88078514D01*
X102399201Y-88110283D01*
X102440210Y-88156646D01*
X102470832Y-88207696D01*
X102479541Y-88231166D01*
X102487488Y-88273091D01*
X102492226Y-88323757D01*
X102492801Y-88344679D01*
X102492871Y-88410693D01*
X102112917Y-88410693D01*
X102121017Y-88445273D01*
X102140896Y-88486170D01*
X102175653Y-88521514D01*
X102217002Y-88544282D01*
X102243351Y-88549010D01*
X102279084Y-88543273D01*
X102321718Y-88528882D01*
X102336201Y-88522262D01*
X102389760Y-88495513D01*
X102435467Y-88530376D01*
X102461842Y-88553955D01*
X102475876Y-88573417D01*
X102476586Y-88579129D01*
X102464049Y-88592973D01*
X102436572Y-88614012D01*
X102411634Y-88630425D01*
X102344336Y-88659930D01*
X102268890Y-88673284D01*
X102194112Y-88669812D01*
X102134505Y-88651663D01*
X102073059Y-88612784D01*
X102029392Y-88561595D01*
X102002074Y-88495367D01*
X101989678Y-88411371D01*
X101988579Y-88372936D01*
X101992978Y-88284861D01*
X101993518Y-88282299D01*
X102119418Y-88282299D01*
X102122885Y-88290558D01*
X102137137Y-88295113D01*
X102166530Y-88297065D01*
X102215425Y-88297517D01*
X102234252Y-88297525D01*
X102291533Y-88296843D01*
X102327859Y-88294364D01*
X102347396Y-88289443D01*
X102354310Y-88281434D01*
X102354555Y-88278862D01*
X102346664Y-88258423D01*
X102326915Y-88229789D01*
X102318425Y-88219763D01*
X102286906Y-88191408D01*
X102254051Y-88180259D01*
X102236349Y-88179327D01*
X102188461Y-88190981D01*
X102148301Y-88222285D01*
X102122827Y-88267752D01*
X102122375Y-88269233D01*
X102119418Y-88282299D01*
X101993518Y-88282299D01*
X102007608Y-88215510D01*
X102033962Y-88160025D01*
X102066193Y-88120639D01*
X102125783Y-88077931D01*
X102195832Y-88055109D01*
X102270339Y-88053046D01*
X102343301Y-88072614D01*
G36*
X102343301Y-88072614D02*
G01*
X102355832Y-88078514D01*
X102399201Y-88110283D01*
X102440210Y-88156646D01*
X102470832Y-88207696D01*
X102479541Y-88231166D01*
X102487488Y-88273091D01*
X102492226Y-88323757D01*
X102492801Y-88344679D01*
X102492871Y-88410693D01*
X102112917Y-88410693D01*
X102121017Y-88445273D01*
X102140896Y-88486170D01*
X102175653Y-88521514D01*
X102217002Y-88544282D01*
X102243351Y-88549010D01*
X102279084Y-88543273D01*
X102321718Y-88528882D01*
X102336201Y-88522262D01*
X102389760Y-88495513D01*
X102435467Y-88530376D01*
X102461842Y-88553955D01*
X102475876Y-88573417D01*
X102476586Y-88579129D01*
X102464049Y-88592973D01*
X102436572Y-88614012D01*
X102411634Y-88630425D01*
X102344336Y-88659930D01*
X102268890Y-88673284D01*
X102194112Y-88669812D01*
X102134505Y-88651663D01*
X102073059Y-88612784D01*
X102029392Y-88561595D01*
X102002074Y-88495367D01*
X101989678Y-88411371D01*
X101988579Y-88372936D01*
X101992978Y-88284861D01*
X101993518Y-88282299D01*
X102119418Y-88282299D01*
X102122885Y-88290558D01*
X102137137Y-88295113D01*
X102166530Y-88297065D01*
X102215425Y-88297517D01*
X102234252Y-88297525D01*
X102291533Y-88296843D01*
X102327859Y-88294364D01*
X102347396Y-88289443D01*
X102354310Y-88281434D01*
X102354555Y-88278862D01*
X102346664Y-88258423D01*
X102326915Y-88229789D01*
X102318425Y-88219763D01*
X102286906Y-88191408D01*
X102254051Y-88180259D01*
X102236349Y-88179327D01*
X102188461Y-88190981D01*
X102148301Y-88222285D01*
X102122827Y-88267752D01*
X102122375Y-88269233D01*
X102119418Y-88282299D01*
X101993518Y-88282299D01*
X102007608Y-88215510D01*
X102033962Y-88160025D01*
X102066193Y-88120639D01*
X102125783Y-88077931D01*
X102195832Y-88055109D01*
X102270339Y-88053046D01*
X102343301Y-88072614D01*
G37*
X104738411Y-89005417D02*
X104791411Y-89018290D01*
X104806731Y-89025110D01*
X104836428Y-89042974D01*
X104859220Y-89063093D01*
X104876083Y-89088962D01*
X104887998Y-89124073D01*
X104895942Y-89171920D01*
X104900894Y-89235996D01*
X104903831Y-89319794D01*
X104904947Y-89375768D01*
X104909052Y-89617822D01*
X104838932Y-89617822D01*
X104796393Y-89616038D01*
X104774476Y-89609942D01*
X104768812Y-89599706D01*
X104765821Y-89588637D01*
X104752451Y-89590754D01*
X104734233Y-89599629D01*
X104688624Y-89613233D01*
X104630007Y-89616899D01*
X104568354Y-89610903D01*
X104513638Y-89595521D01*
X104508730Y-89593386D01*
X104458723Y-89558255D01*
X104425756Y-89509419D01*
X104410587Y-89452333D01*
X104411746Y-89431824D01*
X104535508Y-89431824D01*
X104546413Y-89459425D01*
X104578745Y-89479204D01*
X104630910Y-89489819D01*
X104658787Y-89491228D01*
X104705247Y-89487620D01*
X104736129Y-89473597D01*
X104743664Y-89466931D01*
X104764076Y-89430666D01*
X104768812Y-89397773D01*
X104768812Y-89353763D01*
X104707513Y-89353763D01*
X104636256Y-89357395D01*
X104586276Y-89368818D01*
X104554696Y-89388824D01*
X104547626Y-89397743D01*
X104535508Y-89431824D01*
X104411746Y-89431824D01*
X104413971Y-89392456D01*
X104436663Y-89335244D01*
X104467624Y-89296580D01*
X104486376Y-89279864D01*
X104504733Y-89268878D01*
X104528619Y-89262180D01*
X104563957Y-89258326D01*
X104616669Y-89255873D01*
X104637577Y-89255168D01*
X104768812Y-89250879D01*
X104768620Y-89211158D01*
X104763537Y-89169405D01*
X104745162Y-89144158D01*
X104708039Y-89128030D01*
X104707043Y-89127742D01*
X104654410Y-89121400D01*
X104602906Y-89129684D01*
X104564630Y-89149827D01*
X104549272Y-89159773D01*
X104532730Y-89158397D01*
X104507275Y-89143987D01*
X104492328Y-89133817D01*
X104463091Y-89112088D01*
X104444980Y-89095800D01*
X104442074Y-89091137D01*
X104454040Y-89067005D01*
X104489396Y-89038185D01*
X104504753Y-89028461D01*
X104548901Y-89011714D01*
X104608398Y-89002227D01*
X104674487Y-89000095D01*
X104738411Y-89005417D01*
G36*
X104738411Y-89005417D02*
G01*
X104791411Y-89018290D01*
X104806731Y-89025110D01*
X104836428Y-89042974D01*
X104859220Y-89063093D01*
X104876083Y-89088962D01*
X104887998Y-89124073D01*
X104895942Y-89171920D01*
X104900894Y-89235996D01*
X104903831Y-89319794D01*
X104904947Y-89375768D01*
X104909052Y-89617822D01*
X104838932Y-89617822D01*
X104796393Y-89616038D01*
X104774476Y-89609942D01*
X104768812Y-89599706D01*
X104765821Y-89588637D01*
X104752451Y-89590754D01*
X104734233Y-89599629D01*
X104688624Y-89613233D01*
X104630007Y-89616899D01*
X104568354Y-89610903D01*
X104513638Y-89595521D01*
X104508730Y-89593386D01*
X104458723Y-89558255D01*
X104425756Y-89509419D01*
X104410587Y-89452333D01*
X104411746Y-89431824D01*
X104535508Y-89431824D01*
X104546413Y-89459425D01*
X104578745Y-89479204D01*
X104630910Y-89489819D01*
X104658787Y-89491228D01*
X104705247Y-89487620D01*
X104736129Y-89473597D01*
X104743664Y-89466931D01*
X104764076Y-89430666D01*
X104768812Y-89397773D01*
X104768812Y-89353763D01*
X104707513Y-89353763D01*
X104636256Y-89357395D01*
X104586276Y-89368818D01*
X104554696Y-89388824D01*
X104547626Y-89397743D01*
X104535508Y-89431824D01*
X104411746Y-89431824D01*
X104413971Y-89392456D01*
X104436663Y-89335244D01*
X104467624Y-89296580D01*
X104486376Y-89279864D01*
X104504733Y-89268878D01*
X104528619Y-89262180D01*
X104563957Y-89258326D01*
X104616669Y-89255873D01*
X104637577Y-89255168D01*
X104768812Y-89250879D01*
X104768620Y-89211158D01*
X104763537Y-89169405D01*
X104745162Y-89144158D01*
X104708039Y-89128030D01*
X104707043Y-89127742D01*
X104654410Y-89121400D01*
X104602906Y-89129684D01*
X104564630Y-89149827D01*
X104549272Y-89159773D01*
X104532730Y-89158397D01*
X104507275Y-89143987D01*
X104492328Y-89133817D01*
X104463091Y-89112088D01*
X104444980Y-89095800D01*
X104442074Y-89091137D01*
X104454040Y-89067005D01*
X104489396Y-89038185D01*
X104504753Y-89028461D01*
X104548901Y-89011714D01*
X104608398Y-89002227D01*
X104674487Y-89000095D01*
X104738411Y-89005417D01*
G37*
X102315790Y-89006555D02*
X102374945Y-89022339D01*
X102419977Y-89050948D01*
X102451754Y-89088419D01*
X102461634Y-89104411D01*
X102468927Y-89121163D01*
X102474026Y-89142592D01*
X102477321Y-89172616D01*
X102479203Y-89215154D01*
X102480063Y-89274122D01*
X102480293Y-89353440D01*
X102480297Y-89374484D01*
X102480297Y-89617822D01*
X102419941Y-89617822D01*
X102381443Y-89615126D01*
X102352977Y-89608295D01*
X102345845Y-89604083D01*
X102326348Y-89596813D01*
X102306434Y-89604083D01*
X102273647Y-89613160D01*
X102226022Y-89616813D01*
X102173236Y-89615228D01*
X102124964Y-89608589D01*
X102096782Y-89600072D01*
X102042247Y-89565063D01*
X102008165Y-89516479D01*
X101992843Y-89451882D01*
X101992701Y-89450223D01*
X101994045Y-89421566D01*
X102115644Y-89421566D01*
X102126274Y-89454161D01*
X102143590Y-89472505D01*
X102178348Y-89486379D01*
X102224227Y-89491917D01*
X102271012Y-89489191D01*
X102308486Y-89478274D01*
X102318985Y-89471269D01*
X102337332Y-89438904D01*
X102341980Y-89402111D01*
X102341980Y-89353763D01*
X102272418Y-89353763D01*
X102206333Y-89358850D01*
X102156236Y-89373263D01*
X102125071Y-89395729D01*
X102115644Y-89421566D01*
X101994045Y-89421566D01*
X101996013Y-89379647D01*
X102019290Y-89323845D01*
X102063052Y-89281647D01*
X102069101Y-89277808D01*
X102095093Y-89265309D01*
X102127265Y-89257740D01*
X102172240Y-89254061D01*
X102225669Y-89253216D01*
X102341980Y-89253169D01*
X102341980Y-89204411D01*
X102337047Y-89166581D01*
X102324457Y-89141236D01*
X102322983Y-89139887D01*
X102294966Y-89128800D01*
X102252674Y-89124503D01*
X102205936Y-89126615D01*
X102164582Y-89134756D01*
X102140043Y-89146965D01*
X102126747Y-89156746D01*
X102112706Y-89158613D01*
X102093329Y-89150600D01*
X102064024Y-89130739D01*
X102020197Y-89097063D01*
X102016175Y-89093909D01*
X102018236Y-89082236D01*
X102035432Y-89062822D01*
X102061567Y-89041248D01*
X102090448Y-89023096D01*
X102099522Y-89018809D01*
X102132620Y-89010256D01*
X102181120Y-89004155D01*
X102235305Y-89001708D01*
X102237839Y-89001703D01*
X102315790Y-89006555D01*
G36*
X102315790Y-89006555D02*
G01*
X102374945Y-89022339D01*
X102419977Y-89050948D01*
X102451754Y-89088419D01*
X102461634Y-89104411D01*
X102468927Y-89121163D01*
X102474026Y-89142592D01*
X102477321Y-89172616D01*
X102479203Y-89215154D01*
X102480063Y-89274122D01*
X102480293Y-89353440D01*
X102480297Y-89374484D01*
X102480297Y-89617822D01*
X102419941Y-89617822D01*
X102381443Y-89615126D01*
X102352977Y-89608295D01*
X102345845Y-89604083D01*
X102326348Y-89596813D01*
X102306434Y-89604083D01*
X102273647Y-89613160D01*
X102226022Y-89616813D01*
X102173236Y-89615228D01*
X102124964Y-89608589D01*
X102096782Y-89600072D01*
X102042247Y-89565063D01*
X102008165Y-89516479D01*
X101992843Y-89451882D01*
X101992701Y-89450223D01*
X101994045Y-89421566D01*
X102115644Y-89421566D01*
X102126274Y-89454161D01*
X102143590Y-89472505D01*
X102178348Y-89486379D01*
X102224227Y-89491917D01*
X102271012Y-89489191D01*
X102308486Y-89478274D01*
X102318985Y-89471269D01*
X102337332Y-89438904D01*
X102341980Y-89402111D01*
X102341980Y-89353763D01*
X102272418Y-89353763D01*
X102206333Y-89358850D01*
X102156236Y-89373263D01*
X102125071Y-89395729D01*
X102115644Y-89421566D01*
X101994045Y-89421566D01*
X101996013Y-89379647D01*
X102019290Y-89323845D01*
X102063052Y-89281647D01*
X102069101Y-89277808D01*
X102095093Y-89265309D01*
X102127265Y-89257740D01*
X102172240Y-89254061D01*
X102225669Y-89253216D01*
X102341980Y-89253169D01*
X102341980Y-89204411D01*
X102337047Y-89166581D01*
X102324457Y-89141236D01*
X102322983Y-89139887D01*
X102294966Y-89128800D01*
X102252674Y-89124503D01*
X102205936Y-89126615D01*
X102164582Y-89134756D01*
X102140043Y-89146965D01*
X102126747Y-89156746D01*
X102112706Y-89158613D01*
X102093329Y-89150600D01*
X102064024Y-89130739D01*
X102020197Y-89097063D01*
X102016175Y-89093909D01*
X102018236Y-89082236D01*
X102035432Y-89062822D01*
X102061567Y-89041248D01*
X102090448Y-89023096D01*
X102099522Y-89018809D01*
X102132620Y-89010256D01*
X102181120Y-89004155D01*
X102235305Y-89001708D01*
X102237839Y-89001703D01*
X102315790Y-89006555D01*
G37*
X101791241Y-88069184D02*
X101817753Y-88082282D01*
X101850447Y-88105106D01*
X101874275Y-88129996D01*
X101890594Y-88161249D01*
X101900760Y-88203166D01*
X101906128Y-88260044D01*
X101908056Y-88336184D01*
X101908169Y-88368917D01*
X101907839Y-88440656D01*
X101906473Y-88491927D01*
X101903500Y-88527404D01*
X101898351Y-88551763D01*
X101890457Y-88569680D01*
X101882243Y-88581902D01*
X101829813Y-88633905D01*
X101768070Y-88665184D01*
X101701464Y-88674592D01*
X101634442Y-88660980D01*
X101613208Y-88651354D01*
X101562376Y-88624859D01*
X101562376Y-89040052D01*
X101599475Y-89020868D01*
X101648357Y-89006025D01*
X101708439Y-89002222D01*
X101768436Y-89009243D01*
X101813744Y-89025013D01*
X101851325Y-89055047D01*
X101883436Y-89098024D01*
X101885850Y-89102436D01*
X101896033Y-89123221D01*
X101903470Y-89144170D01*
X101908589Y-89169548D01*
X101911819Y-89203618D01*
X101913587Y-89250641D01*
X101914323Y-89314882D01*
X101914456Y-89387176D01*
X101914456Y-89617822D01*
X101776139Y-89617822D01*
X101776139Y-89192533D01*
X101737451Y-89159979D01*
X101697262Y-89133940D01*
X101659203Y-89129205D01*
X101620934Y-89141389D01*
X101600538Y-89153320D01*
X101585358Y-89170313D01*
X101574562Y-89195995D01*
X101567317Y-89233991D01*
X101562792Y-89287926D01*
X101560156Y-89361425D01*
X101559228Y-89410347D01*
X101556089Y-89611535D01*
X101490074Y-89615336D01*
X101424060Y-89619136D01*
X101424060Y-88370650D01*
X101562376Y-88370650D01*
X101565903Y-88440254D01*
X101577785Y-88488569D01*
X101599980Y-88518631D01*
X101634441Y-88533471D01*
X101669258Y-88536436D01*
X101708671Y-88533028D01*
X101734829Y-88519617D01*
X101751186Y-88501896D01*
X101764063Y-88482835D01*
X101771728Y-88461601D01*
X101775139Y-88431849D01*
X101775251Y-88387236D01*
X101774103Y-88349880D01*
X101771468Y-88293604D01*
X101767544Y-88256658D01*
X101760937Y-88233223D01*
X101750251Y-88217480D01*
X101740167Y-88208380D01*
X101698030Y-88188537D01*
X101648160Y-88185332D01*
X101619524Y-88192168D01*
X101591172Y-88216464D01*
X101572391Y-88263728D01*
X101563288Y-88333624D01*
X101562376Y-88370650D01*
X101424060Y-88370650D01*
X101424060Y-88058614D01*
X101493218Y-88058614D01*
X101534740Y-88060256D01*
X101556162Y-88066087D01*
X101562374Y-88077461D01*
X101562376Y-88077798D01*
X101565258Y-88088938D01*
X101577970Y-88087673D01*
X101603243Y-88075433D01*
X101662131Y-88056707D01*
X101728385Y-88054739D01*
X101791241Y-88069184D01*
G36*
X101791241Y-88069184D02*
G01*
X101817753Y-88082282D01*
X101850447Y-88105106D01*
X101874275Y-88129996D01*
X101890594Y-88161249D01*
X101900760Y-88203166D01*
X101906128Y-88260044D01*
X101908056Y-88336184D01*
X101908169Y-88368917D01*
X101907839Y-88440656D01*
X101906473Y-88491927D01*
X101903500Y-88527404D01*
X101898351Y-88551763D01*
X101890457Y-88569680D01*
X101882243Y-88581902D01*
X101829813Y-88633905D01*
X101768070Y-88665184D01*
X101701464Y-88674592D01*
X101634442Y-88660980D01*
X101613208Y-88651354D01*
X101562376Y-88624859D01*
X101562376Y-89040052D01*
X101599475Y-89020868D01*
X101648357Y-89006025D01*
X101708439Y-89002222D01*
X101768436Y-89009243D01*
X101813744Y-89025013D01*
X101851325Y-89055047D01*
X101883436Y-89098024D01*
X101885850Y-89102436D01*
X101896033Y-89123221D01*
X101903470Y-89144170D01*
X101908589Y-89169548D01*
X101911819Y-89203618D01*
X101913587Y-89250641D01*
X101914323Y-89314882D01*
X101914456Y-89387176D01*
X101914456Y-89617822D01*
X101776139Y-89617822D01*
X101776139Y-89192533D01*
X101737451Y-89159979D01*
X101697262Y-89133940D01*
X101659203Y-89129205D01*
X101620934Y-89141389D01*
X101600538Y-89153320D01*
X101585358Y-89170313D01*
X101574562Y-89195995D01*
X101567317Y-89233991D01*
X101562792Y-89287926D01*
X101560156Y-89361425D01*
X101559228Y-89410347D01*
X101556089Y-89611535D01*
X101490074Y-89615336D01*
X101424060Y-89619136D01*
X101424060Y-88370650D01*
X101562376Y-88370650D01*
X101565903Y-88440254D01*
X101577785Y-88488569D01*
X101599980Y-88518631D01*
X101634441Y-88533471D01*
X101669258Y-88536436D01*
X101708671Y-88533028D01*
X101734829Y-88519617D01*
X101751186Y-88501896D01*
X101764063Y-88482835D01*
X101771728Y-88461601D01*
X101775139Y-88431849D01*
X101775251Y-88387236D01*
X101774103Y-88349880D01*
X101771468Y-88293604D01*
X101767544Y-88256658D01*
X101760937Y-88233223D01*
X101750251Y-88217480D01*
X101740167Y-88208380D01*
X101698030Y-88188537D01*
X101648160Y-88185332D01*
X101619524Y-88192168D01*
X101591172Y-88216464D01*
X101572391Y-88263728D01*
X101563288Y-88333624D01*
X101562376Y-88370650D01*
X101424060Y-88370650D01*
X101424060Y-88058614D01*
X101493218Y-88058614D01*
X101534740Y-88060256D01*
X101556162Y-88066087D01*
X101562374Y-88077461D01*
X101562376Y-88077798D01*
X101565258Y-88088938D01*
X101577970Y-88087673D01*
X101603243Y-88075433D01*
X101662131Y-88056707D01*
X101728385Y-88054739D01*
X101791241Y-88069184D01*
G37*
X104076964Y-83890018D02*
X104133812Y-84191570D01*
X104553338Y-84364512D01*
X104804984Y-84193395D01*
X104875458Y-84145750D01*
X104939163Y-84103210D01*
X104993126Y-84067715D01*
X105034373Y-84041210D01*
X105059934Y-84025636D01*
X105066895Y-84022278D01*
X105079435Y-84030914D01*
X105106231Y-84054792D01*
X105144280Y-84090859D01*
X105190579Y-84136067D01*
X105242123Y-84187364D01*
X105295909Y-84241701D01*
X105348935Y-84296028D01*
X105398195Y-84347295D01*
X105440687Y-84392451D01*
X105473407Y-84428446D01*
X105493351Y-84452230D01*
X105498119Y-84460190D01*
X105491257Y-84474865D01*
X105472020Y-84507014D01*
X105442430Y-84553492D01*
X105404510Y-84611156D01*
X105360282Y-84676860D01*
X105334654Y-84714336D01*
X105287941Y-84782768D01*
X105246432Y-84844520D01*
X105212140Y-84896519D01*
X105187080Y-84935692D01*
X105173264Y-84958965D01*
X105171188Y-84963855D01*
X105175895Y-84977755D01*
X105188723Y-85010150D01*
X105207738Y-85056485D01*
X105231003Y-85112206D01*
X105256584Y-85172758D01*
X105282545Y-85233586D01*
X105306950Y-85290136D01*
X105327863Y-85337852D01*
X105343349Y-85372181D01*
X105351472Y-85388568D01*
X105351952Y-85389212D01*
X105364707Y-85392341D01*
X105398677Y-85399321D01*
X105450340Y-85409467D01*
X105516176Y-85422092D01*
X105592664Y-85436509D01*
X105637290Y-85444823D01*
X105719021Y-85460384D01*
X105792843Y-85475192D01*
X105855021Y-85488436D01*
X105901822Y-85499305D01*
X105929509Y-85506989D01*
X105935074Y-85509427D01*
X105940526Y-85525930D01*
X105944924Y-85563200D01*
X105948272Y-85616880D01*
X105950574Y-85682612D01*
X105951832Y-85756037D01*
X105952048Y-85832796D01*
X105951227Y-85908532D01*
X105949371Y-85978886D01*
X105946482Y-86039500D01*
X105942565Y-86086016D01*
X105937622Y-86114075D01*
X105934657Y-86119916D01*
X105916934Y-86126917D01*
X105879381Y-86136927D01*
X105826964Y-86148769D01*
X105764652Y-86161267D01*
X105742900Y-86165310D01*
X105638024Y-86184520D01*
X105555180Y-86199991D01*
X105491630Y-86212337D01*
X105444637Y-86222173D01*
X105411463Y-86230114D01*
X105389371Y-86236776D01*
X105375624Y-86242773D01*
X105367484Y-86248719D01*
X105366345Y-86249894D01*
X105354977Y-86268826D01*
X105337635Y-86305669D01*
X105316050Y-86355913D01*
X105291954Y-86415046D01*
X105267079Y-86478556D01*
X105243157Y-86541932D01*
X105221919Y-86600662D01*
X105205097Y-86650235D01*
X105194422Y-86686139D01*
X105191627Y-86703862D01*
X105191860Y-86704483D01*
X105201331Y-86718970D01*
X105222818Y-86750844D01*
X105254063Y-86796789D01*
X105292807Y-86853485D01*
X105336793Y-86917617D01*
X105349319Y-86935842D01*
X105393984Y-87001914D01*
X105433288Y-87062200D01*
X105465088Y-87113235D01*
X105487245Y-87151560D01*
X105497617Y-87173711D01*
X105498119Y-87176432D01*
X105489405Y-87190736D01*
X105465325Y-87219072D01*
X105428976Y-87258396D01*
X105383453Y-87305661D01*
X105331852Y-87357823D01*
X105277267Y-87411835D01*
X105222794Y-87464653D01*
X105171529Y-87513231D01*
X105126567Y-87554523D01*
X105091004Y-87585485D01*
X105067935Y-87603070D01*
X105061554Y-87605941D01*
X105046699Y-87599178D01*
X105016286Y-87580939D01*
X104975268Y-87554297D01*
X104943709Y-87532852D01*
X104886525Y-87493503D01*
X104818806Y-87447171D01*
X104750880Y-87400913D01*
X104714361Y-87376155D01*
X104590752Y-87292547D01*
X104486991Y-87348650D01*
X104439720Y-87373228D01*
X104399523Y-87392331D01*
X104372326Y-87403227D01*
X104365402Y-87404743D01*
X104357077Y-87393549D01*
X104340654Y-87361917D01*
X104317357Y-87312765D01*
X104288414Y-87249010D01*
X104255050Y-87173571D01*
X104218491Y-87089364D01*
X104179964Y-86999308D01*
X104140694Y-86906321D01*
X104101908Y-86813320D01*
X104064830Y-86723223D01*
X104030689Y-86638948D01*
X104000708Y-86563413D01*
X103976116Y-86499534D01*
X103958136Y-86450231D01*
X103947997Y-86418421D01*
X103946366Y-86407496D01*
X103959291Y-86393561D01*
X103987589Y-86370940D01*
X104025346Y-86344333D01*
X104028515Y-86342228D01*
X104126100Y-86264114D01*
X104204786Y-86172982D01*
X104263891Y-86071745D01*
X104302732Y-85963318D01*
X104320628Y-85850614D01*
X104316897Y-85736548D01*
X104290857Y-85624034D01*
X104241825Y-85515985D01*
X104227400Y-85492345D01*
X104152369Y-85396887D01*
X104063730Y-85320232D01*
X103964549Y-85262780D01*
X103857895Y-85224929D01*
X103746836Y-85207078D01*
X103634439Y-85209625D01*
X103523773Y-85232970D01*
X103417906Y-85277510D01*
X103319905Y-85343645D01*
X103289590Y-85370487D01*
X103212438Y-85454512D01*
X103156218Y-85542966D01*
X103117653Y-85642115D01*
X103096174Y-85740303D01*
X103090872Y-85850697D01*
X103108552Y-85961640D01*
X103147419Y-86069381D01*
X103205677Y-86170169D01*
X103281531Y-86260256D01*
X103373183Y-86335892D01*
X103385228Y-86343864D01*
X103423389Y-86369974D01*
X103452399Y-86392595D01*
X103466268Y-86407039D01*
X103466469Y-86407496D01*
X103463492Y-86423121D01*
X103451689Y-86458582D01*
X103432286Y-86510962D01*
X103406512Y-86577345D01*
X103375591Y-86654814D01*
X103340751Y-86740450D01*
X103303217Y-86831337D01*
X103264217Y-86924559D01*
X103224977Y-87017197D01*
X103186724Y-87106335D01*
X103150683Y-87189055D01*
X103118083Y-87262441D01*
X103090148Y-87323575D01*
X103068105Y-87369541D01*
X103053182Y-87397421D01*
X103047172Y-87404743D01*
X103028809Y-87399041D01*
X102994448Y-87383749D01*
X102950016Y-87361599D01*
X102925583Y-87348650D01*
X102821822Y-87292547D01*
X102698213Y-87376155D01*
X102635114Y-87418987D01*
X102566030Y-87466122D01*
X102501293Y-87510503D01*
X102468866Y-87532852D01*
X102423259Y-87563477D01*
X102384640Y-87587747D01*
X102358048Y-87602587D01*
X102349410Y-87605724D01*
X102336839Y-87597261D01*
X102309016Y-87573636D01*
X102268639Y-87537302D01*
X102218405Y-87490711D01*
X102161012Y-87436317D01*
X102124714Y-87401392D01*
X102061210Y-87338996D01*
X102006327Y-87283188D01*
X101962286Y-87236354D01*
X101931305Y-87200882D01*
X101915602Y-87179161D01*
X101914095Y-87174752D01*
X101921086Y-87157985D01*
X101940406Y-87124082D01*
X101969909Y-87076476D01*
X102007455Y-87018599D01*
X102050900Y-86953884D01*
X102063255Y-86935842D01*
X102108273Y-86870267D01*
X102148660Y-86811228D01*
X102182160Y-86762042D01*
X102206514Y-86726028D01*
X102219464Y-86706502D01*
X102220715Y-86704483D01*
X102218844Y-86688922D01*
X102208913Y-86654709D01*
X102192653Y-86606355D01*
X102171795Y-86548371D01*
X102148073Y-86485270D01*
X102123216Y-86421563D01*
X102098958Y-86361761D01*
X102077029Y-86310376D01*
X102059162Y-86271919D01*
X102047087Y-86250902D01*
X102046229Y-86249894D01*
X102038846Y-86243888D01*
X102026375Y-86237948D01*
X102006080Y-86231460D01*
X101975222Y-86223809D01*
X101931066Y-86214380D01*
X101870874Y-86202559D01*
X101791907Y-86187729D01*
X101691430Y-86169277D01*
X101669675Y-86165310D01*
X101605198Y-86152853D01*
X101548989Y-86140666D01*
X101506013Y-86129926D01*
X101481240Y-86121809D01*
X101477918Y-86119916D01*
X101472444Y-86103138D01*
X101467994Y-86065645D01*
X101464572Y-86011794D01*
X101462181Y-85945944D01*
X101460823Y-85872453D01*
X101460501Y-85795680D01*
X101461219Y-85719983D01*
X101462979Y-85649720D01*
X101465784Y-85589250D01*
X101469638Y-85542930D01*
X101474543Y-85515119D01*
X101477500Y-85509427D01*
X101493963Y-85503686D01*
X101531449Y-85494345D01*
X101586225Y-85482215D01*
X101654555Y-85468107D01*
X101732706Y-85452830D01*
X101775284Y-85444823D01*
X101856071Y-85429721D01*
X101928113Y-85416040D01*
X101987889Y-85404467D01*
X102031879Y-85395687D01*
X102056561Y-85390387D01*
X102060623Y-85389212D01*
X102067489Y-85375965D01*
X102082002Y-85344057D01*
X102102229Y-85298047D01*
X102126234Y-85242492D01*
X102152082Y-85181953D01*
X102177840Y-85120986D01*
X102201573Y-85064151D01*
X102221346Y-85016006D01*
X102235224Y-84981110D01*
X102241274Y-84964021D01*
X102241386Y-84963274D01*
X102234528Y-84949793D01*
X102215302Y-84918770D01*
X102185728Y-84873289D01*
X102147827Y-84816432D01*
X102103620Y-84751283D01*
X102077921Y-84713862D01*
X102031093Y-84645247D01*
X101989501Y-84582952D01*
X101955175Y-84530129D01*
X101930143Y-84489927D01*
X101916435Y-84465500D01*
X101914456Y-84460024D01*
X101922966Y-84447278D01*
X101946493Y-84420063D01*
X101982032Y-84381428D01*
X102026577Y-84334423D01*
X102077123Y-84282095D01*
X102130664Y-84227495D01*
X102184195Y-84173670D01*
X102234711Y-84123670D01*
X102279206Y-84080543D01*
X102314675Y-84047339D01*
X102338113Y-84027106D01*
X102345954Y-84022278D01*
X102358720Y-84029067D01*
X102389256Y-84048142D01*
X102434590Y-84077561D01*
X102491756Y-84115381D01*
X102557784Y-84159661D01*
X102607590Y-84193395D01*
X102859236Y-84364512D01*
X103068999Y-84278041D01*
X103278763Y-84191570D01*
X103335611Y-83890018D01*
X103392460Y-83588466D01*
X104020115Y-83588466D01*
X104076964Y-83890018D01*
G36*
X104076964Y-83890018D02*
G01*
X104133812Y-84191570D01*
X104553338Y-84364512D01*
X104804984Y-84193395D01*
X104875458Y-84145750D01*
X104939163Y-84103210D01*
X104993126Y-84067715D01*
X105034373Y-84041210D01*
X105059934Y-84025636D01*
X105066895Y-84022278D01*
X105079435Y-84030914D01*
X105106231Y-84054792D01*
X105144280Y-84090859D01*
X105190579Y-84136067D01*
X105242123Y-84187364D01*
X105295909Y-84241701D01*
X105348935Y-84296028D01*
X105398195Y-84347295D01*
X105440687Y-84392451D01*
X105473407Y-84428446D01*
X105493351Y-84452230D01*
X105498119Y-84460190D01*
X105491257Y-84474865D01*
X105472020Y-84507014D01*
X105442430Y-84553492D01*
X105404510Y-84611156D01*
X105360282Y-84676860D01*
X105334654Y-84714336D01*
X105287941Y-84782768D01*
X105246432Y-84844520D01*
X105212140Y-84896519D01*
X105187080Y-84935692D01*
X105173264Y-84958965D01*
X105171188Y-84963855D01*
X105175895Y-84977755D01*
X105188723Y-85010150D01*
X105207738Y-85056485D01*
X105231003Y-85112206D01*
X105256584Y-85172758D01*
X105282545Y-85233586D01*
X105306950Y-85290136D01*
X105327863Y-85337852D01*
X105343349Y-85372181D01*
X105351472Y-85388568D01*
X105351952Y-85389212D01*
X105364707Y-85392341D01*
X105398677Y-85399321D01*
X105450340Y-85409467D01*
X105516176Y-85422092D01*
X105592664Y-85436509D01*
X105637290Y-85444823D01*
X105719021Y-85460384D01*
X105792843Y-85475192D01*
X105855021Y-85488436D01*
X105901822Y-85499305D01*
X105929509Y-85506989D01*
X105935074Y-85509427D01*
X105940526Y-85525930D01*
X105944924Y-85563200D01*
X105948272Y-85616880D01*
X105950574Y-85682612D01*
X105951832Y-85756037D01*
X105952048Y-85832796D01*
X105951227Y-85908532D01*
X105949371Y-85978886D01*
X105946482Y-86039500D01*
X105942565Y-86086016D01*
X105937622Y-86114075D01*
X105934657Y-86119916D01*
X105916934Y-86126917D01*
X105879381Y-86136927D01*
X105826964Y-86148769D01*
X105764652Y-86161267D01*
X105742900Y-86165310D01*
X105638024Y-86184520D01*
X105555180Y-86199991D01*
X105491630Y-86212337D01*
X105444637Y-86222173D01*
X105411463Y-86230114D01*
X105389371Y-86236776D01*
X105375624Y-86242773D01*
X105367484Y-86248719D01*
X105366345Y-86249894D01*
X105354977Y-86268826D01*
X105337635Y-86305669D01*
X105316050Y-86355913D01*
X105291954Y-86415046D01*
X105267079Y-86478556D01*
X105243157Y-86541932D01*
X105221919Y-86600662D01*
X105205097Y-86650235D01*
X105194422Y-86686139D01*
X105191627Y-86703862D01*
X105191860Y-86704483D01*
X105201331Y-86718970D01*
X105222818Y-86750844D01*
X105254063Y-86796789D01*
X105292807Y-86853485D01*
X105336793Y-86917617D01*
X105349319Y-86935842D01*
X105393984Y-87001914D01*
X105433288Y-87062200D01*
X105465088Y-87113235D01*
X105487245Y-87151560D01*
X105497617Y-87173711D01*
X105498119Y-87176432D01*
X105489405Y-87190736D01*
X105465325Y-87219072D01*
X105428976Y-87258396D01*
X105383453Y-87305661D01*
X105331852Y-87357823D01*
X105277267Y-87411835D01*
X105222794Y-87464653D01*
X105171529Y-87513231D01*
X105126567Y-87554523D01*
X105091004Y-87585485D01*
X105067935Y-87603070D01*
X105061554Y-87605941D01*
X105046699Y-87599178D01*
X105016286Y-87580939D01*
X104975268Y-87554297D01*
X104943709Y-87532852D01*
X104886525Y-87493503D01*
X104818806Y-87447171D01*
X104750880Y-87400913D01*
X104714361Y-87376155D01*
X104590752Y-87292547D01*
X104486991Y-87348650D01*
X104439720Y-87373228D01*
X104399523Y-87392331D01*
X104372326Y-87403227D01*
X104365402Y-87404743D01*
X104357077Y-87393549D01*
X104340654Y-87361917D01*
X104317357Y-87312765D01*
X104288414Y-87249010D01*
X104255050Y-87173571D01*
X104218491Y-87089364D01*
X104179964Y-86999308D01*
X104140694Y-86906321D01*
X104101908Y-86813320D01*
X104064830Y-86723223D01*
X104030689Y-86638948D01*
X104000708Y-86563413D01*
X103976116Y-86499534D01*
X103958136Y-86450231D01*
X103947997Y-86418421D01*
X103946366Y-86407496D01*
X103959291Y-86393561D01*
X103987589Y-86370940D01*
X104025346Y-86344333D01*
X104028515Y-86342228D01*
X104126100Y-86264114D01*
X104204786Y-86172982D01*
X104263891Y-86071745D01*
X104302732Y-85963318D01*
X104320628Y-85850614D01*
X104316897Y-85736548D01*
X104290857Y-85624034D01*
X104241825Y-85515985D01*
X104227400Y-85492345D01*
X104152369Y-85396887D01*
X104063730Y-85320232D01*
X103964549Y-85262780D01*
X103857895Y-85224929D01*
X103746836Y-85207078D01*
X103634439Y-85209625D01*
X103523773Y-85232970D01*
X103417906Y-85277510D01*
X103319905Y-85343645D01*
X103289590Y-85370487D01*
X103212438Y-85454512D01*
X103156218Y-85542966D01*
X103117653Y-85642115D01*
X103096174Y-85740303D01*
X103090872Y-85850697D01*
X103108552Y-85961640D01*
X103147419Y-86069381D01*
X103205677Y-86170169D01*
X103281531Y-86260256D01*
X103373183Y-86335892D01*
X103385228Y-86343864D01*
X103423389Y-86369974D01*
X103452399Y-86392595D01*
X103466268Y-86407039D01*
X103466469Y-86407496D01*
X103463492Y-86423121D01*
X103451689Y-86458582D01*
X103432286Y-86510962D01*
X103406512Y-86577345D01*
X103375591Y-86654814D01*
X103340751Y-86740450D01*
X103303217Y-86831337D01*
X103264217Y-86924559D01*
X103224977Y-87017197D01*
X103186724Y-87106335D01*
X103150683Y-87189055D01*
X103118083Y-87262441D01*
X103090148Y-87323575D01*
X103068105Y-87369541D01*
X103053182Y-87397421D01*
X103047172Y-87404743D01*
X103028809Y-87399041D01*
X102994448Y-87383749D01*
X102950016Y-87361599D01*
X102925583Y-87348650D01*
X102821822Y-87292547D01*
X102698213Y-87376155D01*
X102635114Y-87418987D01*
X102566030Y-87466122D01*
X102501293Y-87510503D01*
X102468866Y-87532852D01*
X102423259Y-87563477D01*
X102384640Y-87587747D01*
X102358048Y-87602587D01*
X102349410Y-87605724D01*
X102336839Y-87597261D01*
X102309016Y-87573636D01*
X102268639Y-87537302D01*
X102218405Y-87490711D01*
X102161012Y-87436317D01*
X102124714Y-87401392D01*
X102061210Y-87338996D01*
X102006327Y-87283188D01*
X101962286Y-87236354D01*
X101931305Y-87200882D01*
X101915602Y-87179161D01*
X101914095Y-87174752D01*
X101921086Y-87157985D01*
X101940406Y-87124082D01*
X101969909Y-87076476D01*
X102007455Y-87018599D01*
X102050900Y-86953884D01*
X102063255Y-86935842D01*
X102108273Y-86870267D01*
X102148660Y-86811228D01*
X102182160Y-86762042D01*
X102206514Y-86726028D01*
X102219464Y-86706502D01*
X102220715Y-86704483D01*
X102218844Y-86688922D01*
X102208913Y-86654709D01*
X102192653Y-86606355D01*
X102171795Y-86548371D01*
X102148073Y-86485270D01*
X102123216Y-86421563D01*
X102098958Y-86361761D01*
X102077029Y-86310376D01*
X102059162Y-86271919D01*
X102047087Y-86250902D01*
X102046229Y-86249894D01*
X102038846Y-86243888D01*
X102026375Y-86237948D01*
X102006080Y-86231460D01*
X101975222Y-86223809D01*
X101931066Y-86214380D01*
X101870874Y-86202559D01*
X101791907Y-86187729D01*
X101691430Y-86169277D01*
X101669675Y-86165310D01*
X101605198Y-86152853D01*
X101548989Y-86140666D01*
X101506013Y-86129926D01*
X101481240Y-86121809D01*
X101477918Y-86119916D01*
X101472444Y-86103138D01*
X101467994Y-86065645D01*
X101464572Y-86011794D01*
X101462181Y-85945944D01*
X101460823Y-85872453D01*
X101460501Y-85795680D01*
X101461219Y-85719983D01*
X101462979Y-85649720D01*
X101465784Y-85589250D01*
X101469638Y-85542930D01*
X101474543Y-85515119D01*
X101477500Y-85509427D01*
X101493963Y-85503686D01*
X101531449Y-85494345D01*
X101586225Y-85482215D01*
X101654555Y-85468107D01*
X101732706Y-85452830D01*
X101775284Y-85444823D01*
X101856071Y-85429721D01*
X101928113Y-85416040D01*
X101987889Y-85404467D01*
X102031879Y-85395687D01*
X102056561Y-85390387D01*
X102060623Y-85389212D01*
X102067489Y-85375965D01*
X102082002Y-85344057D01*
X102102229Y-85298047D01*
X102126234Y-85242492D01*
X102152082Y-85181953D01*
X102177840Y-85120986D01*
X102201573Y-85064151D01*
X102221346Y-85016006D01*
X102235224Y-84981110D01*
X102241274Y-84964021D01*
X102241386Y-84963274D01*
X102234528Y-84949793D01*
X102215302Y-84918770D01*
X102185728Y-84873289D01*
X102147827Y-84816432D01*
X102103620Y-84751283D01*
X102077921Y-84713862D01*
X102031093Y-84645247D01*
X101989501Y-84582952D01*
X101955175Y-84530129D01*
X101930143Y-84489927D01*
X101916435Y-84465500D01*
X101914456Y-84460024D01*
X101922966Y-84447278D01*
X101946493Y-84420063D01*
X101982032Y-84381428D01*
X102026577Y-84334423D01*
X102077123Y-84282095D01*
X102130664Y-84227495D01*
X102184195Y-84173670D01*
X102234711Y-84123670D01*
X102279206Y-84080543D01*
X102314675Y-84047339D01*
X102338113Y-84027106D01*
X102345954Y-84022278D01*
X102358720Y-84029067D01*
X102389256Y-84048142D01*
X102434590Y-84077561D01*
X102491756Y-84115381D01*
X102557784Y-84159661D01*
X102607590Y-84193395D01*
X102859236Y-84364512D01*
X103068999Y-84278041D01*
X103278763Y-84191570D01*
X103335611Y-83890018D01*
X103392460Y-83588466D01*
X104020115Y-83588466D01*
X104076964Y-83890018D01*
G37*
D12*
X101730000Y-72510000D02*
X101730000Y-79050000D01*
X101730000Y-79050000D02*
X104470000Y-79050000D01*
X103100000Y-71740000D02*
X103100000Y-72510000D01*
X103100000Y-79820000D02*
X103100000Y-79050000D01*
X104470000Y-72510000D02*
X101730000Y-72510000D01*
X104470000Y-79050000D02*
X104470000Y-72510000D01*
X96830000Y-80110000D02*
X96830000Y-86650000D01*
X96830000Y-86650000D02*
X99570000Y-86650000D01*
X98200000Y-79340000D02*
X98200000Y-80110000D01*
X98200000Y-87420000D02*
X98200000Y-86650000D01*
X99570000Y-80110000D02*
X96830000Y-80110000D01*
X99570000Y-86650000D02*
X99570000Y-80110000D01*
X98010000Y-75100000D02*
X98010000Y-71500000D01*
X93560000Y-73300000D02*
G75*
G02*
X97998478Y-71461522I2600000J0D01*
G01*
X97998478Y-75138478D02*
G75*
G02*
X93559999Y-73300000I-1838478J1838478D01*
G01*
X107140000Y-71740000D02*
X107140000Y-95060000D01*
X107140000Y-95060000D02*
X139470000Y-95060000D01*
X114040000Y-69200000D02*
X114040000Y-71740000D01*
X114040000Y-69200000D02*
X139470000Y-69200000D01*
X114040000Y-71740000D02*
X107140000Y-71740000D01*
X141600000Y-92940000D02*
X141600000Y-71330000D01*
X139470000Y-69200000D02*
G75*
G02*
X141600000Y-71330000I-2J-2130002D01*
G01*
X141600000Y-92930000D02*
G75*
G02*
X139470000Y-95060000I-2130000J0D01*
G01*
D13*
X133260000Y-68795000D02*
X132625000Y-68160000D01*
X133895000Y-68160000D01*
X133260000Y-68795000D01*
G36*
X133260000Y-68795000D02*
G01*
X132625000Y-68160000D01*
X133895000Y-68160000D01*
X133260000Y-68795000D01*
G37*
D12*
X78760000Y-91100000D02*
X79530000Y-91100000D01*
X79530000Y-89730000D02*
X79530000Y-92470000D01*
X79530000Y-92470000D02*
X86070000Y-92470000D01*
X86070000Y-89730000D02*
X79530000Y-89730000D01*
X86070000Y-92470000D02*
X86070000Y-89730000D01*
X86840000Y-91100000D02*
X86070000Y-91100000D01*
X71040000Y-75310000D02*
X71500000Y-75310000D01*
X71040000Y-88730000D02*
X71500000Y-88730000D01*
X73700000Y-75310000D02*
X82830000Y-75310000D01*
X80720000Y-75000000D02*
X82250000Y-75000000D01*
X82830000Y-75310000D02*
X82830000Y-88730000D01*
X82830000Y-88730000D02*
X73700000Y-88730000D01*
X82560000Y-73300000D02*
X83330000Y-73300000D01*
X83330000Y-71930000D02*
X83330000Y-74670000D01*
X83330000Y-74670000D02*
X89870000Y-74670000D01*
X89870000Y-71930000D02*
X83330000Y-71930000D01*
X89870000Y-74670000D02*
X89870000Y-71930000D01*
X90640000Y-73300000D02*
X89870000Y-73300000D01*
X86515000Y-79460000D02*
X86515000Y-84760000D01*
X86515000Y-84760000D02*
X94255000Y-84760000D01*
X94255000Y-79460000D02*
X86515000Y-79460000D01*
X94255000Y-81110000D02*
X94255000Y-79460000D01*
X94255000Y-84760000D02*
X94255000Y-83110000D01*
X94255000Y-83110000D02*
G75*
G02*
X94255000Y-81110000I0J1000000D01*
G01*
X100140000Y-92100000D02*
X99120000Y-92100000D01*
X99120000Y-93570000D02*
X99120000Y-90630000D01*
X99120000Y-90630000D02*
X93680000Y-90630000D01*
X98340000Y-93570000D02*
X98340000Y-90630000D01*
X98220000Y-93570000D02*
X98220000Y-90630000D01*
X98100000Y-93570000D02*
X98100000Y-90630000D01*
X93680000Y-93570000D02*
X99120000Y-93570000D01*
X93680000Y-90630000D02*
X93680000Y-93570000D01*
X92660000Y-92100000D02*
X93680000Y-92100000D01*
%LPC*%
D14*
X103100000Y-70700000D03*
D15*
X103100000Y-80860000D03*
D16*
X69000000Y-93700000D03*
D17*
X69000000Y-93700000D03*
D14*
X98200000Y-78300000D03*
D15*
X98200000Y-88460000D03*
D18*
X96160000Y-74570000D03*
D19*
X96160000Y-73300000D03*
X96160000Y-72030000D03*
D20*
X133260000Y-70700000D03*
D21*
X130720000Y-70700000D03*
X128180000Y-70700000D03*
X125640000Y-70700000D03*
X123100000Y-70700000D03*
X120560000Y-70700000D03*
X118020000Y-70700000D03*
X115480000Y-70700000D03*
X115480000Y-93560000D03*
X118020000Y-93560000D03*
X120560000Y-93560000D03*
X123100000Y-93560000D03*
X125640000Y-93560000D03*
X128180000Y-93560000D03*
X130720000Y-93560000D03*
X133260000Y-93560000D03*
D14*
X87880000Y-91100000D03*
D15*
X77720000Y-91100000D03*
D22*
X72600000Y-76940000D03*
X72600000Y-87100000D03*
D23*
X81490000Y-78840000D03*
D24*
X78950000Y-80110000D03*
X81490000Y-81380000D03*
X78950000Y-82650000D03*
X81490000Y-83920000D03*
X78950000Y-85190000D03*
D14*
X81520000Y-73300000D03*
D15*
X91680000Y-73300000D03*
D25*
X92925000Y-78300000D03*
D15*
X90385000Y-78300000D03*
X87845000Y-78300000D03*
X87845000Y-85920000D03*
X90385000Y-85920000D03*
X92925000Y-85920000D03*
D26*
X91320000Y-92100000D03*
D27*
X101480000Y-92100000D03*
D16*
X132150000Y-82000000D03*
D17*
X132150000Y-82000000D03*
D16*
X69000000Y-70400000D03*
D17*
X69000000Y-70400000D03*
%LPD*%
M02*
