%TF.GenerationSoftware,KiCad,Pcbnew,8.0.1*%
%TF.CreationDate,2024-04-29T21:46:59+02:00*%
%TF.ProjectId,P1-lezer,50312d6c-657a-4657-922e-6b696361645f,rev?*%
%TF.SameCoordinates,Original*%
%TF.FileFunction,Drillmap*%
%TF.FilePolarity,Positive*%
%FSLAX45Y45*%
G04 Gerber Fmt 4.5, Leading zero omitted, Abs format (unit mm)*
G04 Created by KiCad (PCBNEW 8.0.1) date 2024-04-29 21:46:59*
%MOMM*%
%LPD*%
G01*
G04 APERTURE LIST*
%ADD10C,0.050000*%
%ADD11C,0.200000*%
%ADD12C,0.325000*%
G04 APERTURE END LIST*
D10*
X6560000Y-6700000D02*
X13560000Y-6700000D01*
X13560000Y-9700000D01*
X6560000Y-9700000D01*
X6560000Y-6700000D01*
D11*
D12*
X7097500Y-7531500D02*
X7422500Y-7856500D01*
X7422500Y-7531500D02*
X7097500Y-7856500D01*
X7097500Y-8547500D02*
X7422500Y-8872500D01*
X7422500Y-8547500D02*
X7097500Y-8872500D01*
D11*
X6818277Y-10013984D02*
X6818277Y-9813984D01*
X6818277Y-9813984D02*
X6865896Y-9813984D01*
X6865896Y-9813984D02*
X6894467Y-9823508D01*
X6894467Y-9823508D02*
X6913515Y-9842555D01*
X6913515Y-9842555D02*
X6923039Y-9861603D01*
X6923039Y-9861603D02*
X6932562Y-9899698D01*
X6932562Y-9899698D02*
X6932562Y-9928270D01*
X6932562Y-9928270D02*
X6923039Y-9966365D01*
X6923039Y-9966365D02*
X6913515Y-9985412D01*
X6913515Y-9985412D02*
X6894467Y-10004460D01*
X6894467Y-10004460D02*
X6865896Y-10013984D01*
X6865896Y-10013984D02*
X6818277Y-10013984D01*
X7018277Y-10013984D02*
X7018277Y-9880650D01*
X7018277Y-9918746D02*
X7027801Y-9899698D01*
X7027801Y-9899698D02*
X7037324Y-9890174D01*
X7037324Y-9890174D02*
X7056372Y-9880650D01*
X7056372Y-9880650D02*
X7075420Y-9880650D01*
X7142086Y-10013984D02*
X7142086Y-9880650D01*
X7142086Y-9813984D02*
X7132562Y-9823508D01*
X7132562Y-9823508D02*
X7142086Y-9833031D01*
X7142086Y-9833031D02*
X7151610Y-9823508D01*
X7151610Y-9823508D02*
X7142086Y-9813984D01*
X7142086Y-9813984D02*
X7142086Y-9833031D01*
X7265896Y-10013984D02*
X7246848Y-10004460D01*
X7246848Y-10004460D02*
X7237324Y-9985412D01*
X7237324Y-9985412D02*
X7237324Y-9813984D01*
X7370658Y-10013984D02*
X7351610Y-10004460D01*
X7351610Y-10004460D02*
X7342086Y-9985412D01*
X7342086Y-9985412D02*
X7342086Y-9813984D01*
X7599229Y-10013984D02*
X7599229Y-9813984D01*
X7599229Y-9813984D02*
X7665896Y-9956841D01*
X7665896Y-9956841D02*
X7732562Y-9813984D01*
X7732562Y-9813984D02*
X7732562Y-10013984D01*
X7913515Y-10013984D02*
X7913515Y-9909222D01*
X7913515Y-9909222D02*
X7903991Y-9890174D01*
X7903991Y-9890174D02*
X7884943Y-9880650D01*
X7884943Y-9880650D02*
X7846848Y-9880650D01*
X7846848Y-9880650D02*
X7827801Y-9890174D01*
X7913515Y-10004460D02*
X7894467Y-10013984D01*
X7894467Y-10013984D02*
X7846848Y-10013984D01*
X7846848Y-10013984D02*
X7827801Y-10004460D01*
X7827801Y-10004460D02*
X7818277Y-9985412D01*
X7818277Y-9985412D02*
X7818277Y-9966365D01*
X7818277Y-9966365D02*
X7827801Y-9947317D01*
X7827801Y-9947317D02*
X7846848Y-9937793D01*
X7846848Y-9937793D02*
X7894467Y-9937793D01*
X7894467Y-9937793D02*
X7913515Y-9928270D01*
X8008753Y-9880650D02*
X8008753Y-10080650D01*
X8008753Y-9890174D02*
X8027801Y-9880650D01*
X8027801Y-9880650D02*
X8065896Y-9880650D01*
X8065896Y-9880650D02*
X8084943Y-9890174D01*
X8084943Y-9890174D02*
X8094467Y-9899698D01*
X8094467Y-9899698D02*
X8103991Y-9918746D01*
X8103991Y-9918746D02*
X8103991Y-9975889D01*
X8103991Y-9975889D02*
X8094467Y-9994936D01*
X8094467Y-9994936D02*
X8084943Y-10004460D01*
X8084943Y-10004460D02*
X8065896Y-10013984D01*
X8065896Y-10013984D02*
X8027801Y-10013984D01*
X8027801Y-10013984D02*
X8008753Y-10004460D01*
X8189705Y-9994936D02*
X8199229Y-10004460D01*
X8199229Y-10004460D02*
X8189705Y-10013984D01*
X8189705Y-10013984D02*
X8180182Y-10004460D01*
X8180182Y-10004460D02*
X8189705Y-9994936D01*
X8189705Y-9994936D02*
X8189705Y-10013984D01*
X8189705Y-9890174D02*
X8199229Y-9899698D01*
X8199229Y-9899698D02*
X8189705Y-9909222D01*
X8189705Y-9909222D02*
X8180182Y-9899698D01*
X8180182Y-9899698D02*
X8189705Y-9890174D01*
X8189705Y-9890174D02*
X8189705Y-9909222D01*
X6357500Y-10242500D02*
X6557500Y-10442500D01*
X6557500Y-10242500D02*
X6357500Y-10442500D01*
X6799229Y-10233984D02*
X6923039Y-10233984D01*
X6923039Y-10233984D02*
X6856372Y-10310174D01*
X6856372Y-10310174D02*
X6884943Y-10310174D01*
X6884943Y-10310174D02*
X6903991Y-10319698D01*
X6903991Y-10319698D02*
X6913515Y-10329222D01*
X6913515Y-10329222D02*
X6923039Y-10348270D01*
X6923039Y-10348270D02*
X6923039Y-10395889D01*
X6923039Y-10395889D02*
X6913515Y-10414936D01*
X6913515Y-10414936D02*
X6903991Y-10424460D01*
X6903991Y-10424460D02*
X6884943Y-10433984D01*
X6884943Y-10433984D02*
X6827801Y-10433984D01*
X6827801Y-10433984D02*
X6808753Y-10424460D01*
X6808753Y-10424460D02*
X6799229Y-10414936D01*
X7008753Y-10414936D02*
X7018277Y-10424460D01*
X7018277Y-10424460D02*
X7008753Y-10433984D01*
X7008753Y-10433984D02*
X6999229Y-10424460D01*
X6999229Y-10424460D02*
X7008753Y-10414936D01*
X7008753Y-10414936D02*
X7008753Y-10433984D01*
X7094467Y-10253031D02*
X7103991Y-10243508D01*
X7103991Y-10243508D02*
X7123039Y-10233984D01*
X7123039Y-10233984D02*
X7170658Y-10233984D01*
X7170658Y-10233984D02*
X7189705Y-10243508D01*
X7189705Y-10243508D02*
X7199229Y-10253031D01*
X7199229Y-10253031D02*
X7208753Y-10272079D01*
X7208753Y-10272079D02*
X7208753Y-10291127D01*
X7208753Y-10291127D02*
X7199229Y-10319698D01*
X7199229Y-10319698D02*
X7084943Y-10433984D01*
X7084943Y-10433984D02*
X7208753Y-10433984D01*
X7389705Y-10233984D02*
X7294467Y-10233984D01*
X7294467Y-10233984D02*
X7284943Y-10329222D01*
X7284943Y-10329222D02*
X7294467Y-10319698D01*
X7294467Y-10319698D02*
X7313515Y-10310174D01*
X7313515Y-10310174D02*
X7361134Y-10310174D01*
X7361134Y-10310174D02*
X7380182Y-10319698D01*
X7380182Y-10319698D02*
X7389705Y-10329222D01*
X7389705Y-10329222D02*
X7399229Y-10348270D01*
X7399229Y-10348270D02*
X7399229Y-10395889D01*
X7399229Y-10395889D02*
X7389705Y-10414936D01*
X7389705Y-10414936D02*
X7380182Y-10424460D01*
X7380182Y-10424460D02*
X7361134Y-10433984D01*
X7361134Y-10433984D02*
X7313515Y-10433984D01*
X7313515Y-10433984D02*
X7294467Y-10424460D01*
X7294467Y-10424460D02*
X7284943Y-10414936D01*
X7523039Y-10233984D02*
X7542086Y-10233984D01*
X7542086Y-10233984D02*
X7561134Y-10243508D01*
X7561134Y-10243508D02*
X7570658Y-10253031D01*
X7570658Y-10253031D02*
X7580182Y-10272079D01*
X7580182Y-10272079D02*
X7589705Y-10310174D01*
X7589705Y-10310174D02*
X7589705Y-10357793D01*
X7589705Y-10357793D02*
X7580182Y-10395889D01*
X7580182Y-10395889D02*
X7570658Y-10414936D01*
X7570658Y-10414936D02*
X7561134Y-10424460D01*
X7561134Y-10424460D02*
X7542086Y-10433984D01*
X7542086Y-10433984D02*
X7523039Y-10433984D01*
X7523039Y-10433984D02*
X7503991Y-10424460D01*
X7503991Y-10424460D02*
X7494467Y-10414936D01*
X7494467Y-10414936D02*
X7484943Y-10395889D01*
X7484943Y-10395889D02*
X7475420Y-10357793D01*
X7475420Y-10357793D02*
X7475420Y-10310174D01*
X7475420Y-10310174D02*
X7484943Y-10272079D01*
X7484943Y-10272079D02*
X7494467Y-10253031D01*
X7494467Y-10253031D02*
X7503991Y-10243508D01*
X7503991Y-10243508D02*
X7523039Y-10233984D01*
X7675420Y-10433984D02*
X7675420Y-10300650D01*
X7675420Y-10319698D02*
X7684943Y-10310174D01*
X7684943Y-10310174D02*
X7703991Y-10300650D01*
X7703991Y-10300650D02*
X7732563Y-10300650D01*
X7732563Y-10300650D02*
X7751610Y-10310174D01*
X7751610Y-10310174D02*
X7761134Y-10329222D01*
X7761134Y-10329222D02*
X7761134Y-10433984D01*
X7761134Y-10329222D02*
X7770658Y-10310174D01*
X7770658Y-10310174D02*
X7789705Y-10300650D01*
X7789705Y-10300650D02*
X7818277Y-10300650D01*
X7818277Y-10300650D02*
X7837324Y-10310174D01*
X7837324Y-10310174D02*
X7846848Y-10329222D01*
X7846848Y-10329222D02*
X7846848Y-10433984D01*
X7942086Y-10433984D02*
X7942086Y-10300650D01*
X7942086Y-10319698D02*
X7951610Y-10310174D01*
X7951610Y-10310174D02*
X7970658Y-10300650D01*
X7970658Y-10300650D02*
X7999229Y-10300650D01*
X7999229Y-10300650D02*
X8018277Y-10310174D01*
X8018277Y-10310174D02*
X8027801Y-10329222D01*
X8027801Y-10329222D02*
X8027801Y-10433984D01*
X8027801Y-10329222D02*
X8037324Y-10310174D01*
X8037324Y-10310174D02*
X8056372Y-10300650D01*
X8056372Y-10300650D02*
X8084943Y-10300650D01*
X8084943Y-10300650D02*
X8103991Y-10310174D01*
X8103991Y-10310174D02*
X8113515Y-10329222D01*
X8113515Y-10329222D02*
X8113515Y-10433984D01*
X8503991Y-10224460D02*
X8332563Y-10481603D01*
X8761134Y-10233984D02*
X8780182Y-10233984D01*
X8780182Y-10233984D02*
X8799229Y-10243508D01*
X8799229Y-10243508D02*
X8808753Y-10253031D01*
X8808753Y-10253031D02*
X8818277Y-10272079D01*
X8818277Y-10272079D02*
X8827801Y-10310174D01*
X8827801Y-10310174D02*
X8827801Y-10357793D01*
X8827801Y-10357793D02*
X8818277Y-10395889D01*
X8818277Y-10395889D02*
X8808753Y-10414936D01*
X8808753Y-10414936D02*
X8799229Y-10424460D01*
X8799229Y-10424460D02*
X8780182Y-10433984D01*
X8780182Y-10433984D02*
X8761134Y-10433984D01*
X8761134Y-10433984D02*
X8742087Y-10424460D01*
X8742087Y-10424460D02*
X8732563Y-10414936D01*
X8732563Y-10414936D02*
X8723039Y-10395889D01*
X8723039Y-10395889D02*
X8713515Y-10357793D01*
X8713515Y-10357793D02*
X8713515Y-10310174D01*
X8713515Y-10310174D02*
X8723039Y-10272079D01*
X8723039Y-10272079D02*
X8732563Y-10253031D01*
X8732563Y-10253031D02*
X8742087Y-10243508D01*
X8742087Y-10243508D02*
X8761134Y-10233984D01*
X8913515Y-10414936D02*
X8923039Y-10424460D01*
X8923039Y-10424460D02*
X8913515Y-10433984D01*
X8913515Y-10433984D02*
X8903991Y-10424460D01*
X8903991Y-10424460D02*
X8913515Y-10414936D01*
X8913515Y-10414936D02*
X8913515Y-10433984D01*
X9113515Y-10433984D02*
X8999229Y-10433984D01*
X9056372Y-10433984D02*
X9056372Y-10233984D01*
X9056372Y-10233984D02*
X9037325Y-10262555D01*
X9037325Y-10262555D02*
X9018277Y-10281603D01*
X9018277Y-10281603D02*
X8999229Y-10291127D01*
X9189706Y-10253031D02*
X9199229Y-10243508D01*
X9199229Y-10243508D02*
X9218277Y-10233984D01*
X9218277Y-10233984D02*
X9265896Y-10233984D01*
X9265896Y-10233984D02*
X9284944Y-10243508D01*
X9284944Y-10243508D02*
X9294468Y-10253031D01*
X9294468Y-10253031D02*
X9303991Y-10272079D01*
X9303991Y-10272079D02*
X9303991Y-10291127D01*
X9303991Y-10291127D02*
X9294468Y-10319698D01*
X9294468Y-10319698D02*
X9180182Y-10433984D01*
X9180182Y-10433984D02*
X9303991Y-10433984D01*
X9418277Y-10319698D02*
X9399229Y-10310174D01*
X9399229Y-10310174D02*
X9389706Y-10300650D01*
X9389706Y-10300650D02*
X9380182Y-10281603D01*
X9380182Y-10281603D02*
X9380182Y-10272079D01*
X9380182Y-10272079D02*
X9389706Y-10253031D01*
X9389706Y-10253031D02*
X9399229Y-10243508D01*
X9399229Y-10243508D02*
X9418277Y-10233984D01*
X9418277Y-10233984D02*
X9456372Y-10233984D01*
X9456372Y-10233984D02*
X9475420Y-10243508D01*
X9475420Y-10243508D02*
X9484944Y-10253031D01*
X9484944Y-10253031D02*
X9494468Y-10272079D01*
X9494468Y-10272079D02*
X9494468Y-10281603D01*
X9494468Y-10281603D02*
X9484944Y-10300650D01*
X9484944Y-10300650D02*
X9475420Y-10310174D01*
X9475420Y-10310174D02*
X9456372Y-10319698D01*
X9456372Y-10319698D02*
X9418277Y-10319698D01*
X9418277Y-10319698D02*
X9399229Y-10329222D01*
X9399229Y-10329222D02*
X9389706Y-10338746D01*
X9389706Y-10338746D02*
X9380182Y-10357793D01*
X9380182Y-10357793D02*
X9380182Y-10395889D01*
X9380182Y-10395889D02*
X9389706Y-10414936D01*
X9389706Y-10414936D02*
X9399229Y-10424460D01*
X9399229Y-10424460D02*
X9418277Y-10433984D01*
X9418277Y-10433984D02*
X9456372Y-10433984D01*
X9456372Y-10433984D02*
X9475420Y-10424460D01*
X9475420Y-10424460D02*
X9484944Y-10414936D01*
X9484944Y-10414936D02*
X9494468Y-10395889D01*
X9494468Y-10395889D02*
X9494468Y-10357793D01*
X9494468Y-10357793D02*
X9484944Y-10338746D01*
X9484944Y-10338746D02*
X9475420Y-10329222D01*
X9475420Y-10329222D02*
X9456372Y-10319698D01*
X9618277Y-10233984D02*
X9637325Y-10233984D01*
X9637325Y-10233984D02*
X9656372Y-10243508D01*
X9656372Y-10243508D02*
X9665896Y-10253031D01*
X9665896Y-10253031D02*
X9675420Y-10272079D01*
X9675420Y-10272079D02*
X9684944Y-10310174D01*
X9684944Y-10310174D02*
X9684944Y-10357793D01*
X9684944Y-10357793D02*
X9675420Y-10395889D01*
X9675420Y-10395889D02*
X9665896Y-10414936D01*
X9665896Y-10414936D02*
X9656372Y-10424460D01*
X9656372Y-10424460D02*
X9637325Y-10433984D01*
X9637325Y-10433984D02*
X9618277Y-10433984D01*
X9618277Y-10433984D02*
X9599229Y-10424460D01*
X9599229Y-10424460D02*
X9589706Y-10414936D01*
X9589706Y-10414936D02*
X9580182Y-10395889D01*
X9580182Y-10395889D02*
X9570658Y-10357793D01*
X9570658Y-10357793D02*
X9570658Y-10310174D01*
X9570658Y-10310174D02*
X9580182Y-10272079D01*
X9580182Y-10272079D02*
X9589706Y-10253031D01*
X9589706Y-10253031D02*
X9599229Y-10243508D01*
X9599229Y-10243508D02*
X9618277Y-10233984D01*
X9761134Y-10233984D02*
X9761134Y-10272079D01*
X9837325Y-10233984D02*
X9837325Y-10272079D01*
X10132563Y-10510174D02*
X10123039Y-10500650D01*
X10123039Y-10500650D02*
X10103991Y-10472079D01*
X10103991Y-10472079D02*
X10094468Y-10453031D01*
X10094468Y-10453031D02*
X10084944Y-10424460D01*
X10084944Y-10424460D02*
X10075420Y-10376841D01*
X10075420Y-10376841D02*
X10075420Y-10338746D01*
X10075420Y-10338746D02*
X10084944Y-10291127D01*
X10084944Y-10291127D02*
X10094468Y-10262555D01*
X10094468Y-10262555D02*
X10103991Y-10243508D01*
X10103991Y-10243508D02*
X10123039Y-10214936D01*
X10123039Y-10214936D02*
X10132563Y-10205412D01*
X10199230Y-10253031D02*
X10208753Y-10243508D01*
X10208753Y-10243508D02*
X10227801Y-10233984D01*
X10227801Y-10233984D02*
X10275420Y-10233984D01*
X10275420Y-10233984D02*
X10294468Y-10243508D01*
X10294468Y-10243508D02*
X10303991Y-10253031D01*
X10303991Y-10253031D02*
X10313515Y-10272079D01*
X10313515Y-10272079D02*
X10313515Y-10291127D01*
X10313515Y-10291127D02*
X10303991Y-10319698D01*
X10303991Y-10319698D02*
X10189706Y-10433984D01*
X10189706Y-10433984D02*
X10313515Y-10433984D01*
X10551611Y-10433984D02*
X10551611Y-10233984D01*
X10637325Y-10433984D02*
X10637325Y-10329222D01*
X10637325Y-10329222D02*
X10627801Y-10310174D01*
X10627801Y-10310174D02*
X10608753Y-10300650D01*
X10608753Y-10300650D02*
X10580182Y-10300650D01*
X10580182Y-10300650D02*
X10561134Y-10310174D01*
X10561134Y-10310174D02*
X10551611Y-10319698D01*
X10761134Y-10433984D02*
X10742087Y-10424460D01*
X10742087Y-10424460D02*
X10732563Y-10414936D01*
X10732563Y-10414936D02*
X10723039Y-10395889D01*
X10723039Y-10395889D02*
X10723039Y-10338746D01*
X10723039Y-10338746D02*
X10732563Y-10319698D01*
X10732563Y-10319698D02*
X10742087Y-10310174D01*
X10742087Y-10310174D02*
X10761134Y-10300650D01*
X10761134Y-10300650D02*
X10789706Y-10300650D01*
X10789706Y-10300650D02*
X10808753Y-10310174D01*
X10808753Y-10310174D02*
X10818277Y-10319698D01*
X10818277Y-10319698D02*
X10827801Y-10338746D01*
X10827801Y-10338746D02*
X10827801Y-10395889D01*
X10827801Y-10395889D02*
X10818277Y-10414936D01*
X10818277Y-10414936D02*
X10808753Y-10424460D01*
X10808753Y-10424460D02*
X10789706Y-10433984D01*
X10789706Y-10433984D02*
X10761134Y-10433984D01*
X10942087Y-10433984D02*
X10923039Y-10424460D01*
X10923039Y-10424460D02*
X10913515Y-10405412D01*
X10913515Y-10405412D02*
X10913515Y-10233984D01*
X11094468Y-10424460D02*
X11075420Y-10433984D01*
X11075420Y-10433984D02*
X11037325Y-10433984D01*
X11037325Y-10433984D02*
X11018277Y-10424460D01*
X11018277Y-10424460D02*
X11008753Y-10405412D01*
X11008753Y-10405412D02*
X11008753Y-10329222D01*
X11008753Y-10329222D02*
X11018277Y-10310174D01*
X11018277Y-10310174D02*
X11037325Y-10300650D01*
X11037325Y-10300650D02*
X11075420Y-10300650D01*
X11075420Y-10300650D02*
X11094468Y-10310174D01*
X11094468Y-10310174D02*
X11103992Y-10329222D01*
X11103992Y-10329222D02*
X11103992Y-10348270D01*
X11103992Y-10348270D02*
X11008753Y-10367317D01*
X11180182Y-10424460D02*
X11199230Y-10433984D01*
X11199230Y-10433984D02*
X11237325Y-10433984D01*
X11237325Y-10433984D02*
X11256372Y-10424460D01*
X11256372Y-10424460D02*
X11265896Y-10405412D01*
X11265896Y-10405412D02*
X11265896Y-10395889D01*
X11265896Y-10395889D02*
X11256372Y-10376841D01*
X11256372Y-10376841D02*
X11237325Y-10367317D01*
X11237325Y-10367317D02*
X11208753Y-10367317D01*
X11208753Y-10367317D02*
X11189706Y-10357793D01*
X11189706Y-10357793D02*
X11180182Y-10338746D01*
X11180182Y-10338746D02*
X11180182Y-10329222D01*
X11180182Y-10329222D02*
X11189706Y-10310174D01*
X11189706Y-10310174D02*
X11208753Y-10300650D01*
X11208753Y-10300650D02*
X11237325Y-10300650D01*
X11237325Y-10300650D02*
X11256372Y-10310174D01*
X11332563Y-10510174D02*
X11342087Y-10500650D01*
X11342087Y-10500650D02*
X11361134Y-10472079D01*
X11361134Y-10472079D02*
X11370658Y-10453031D01*
X11370658Y-10453031D02*
X11380182Y-10424460D01*
X11380182Y-10424460D02*
X11389706Y-10376841D01*
X11389706Y-10376841D02*
X11389706Y-10338746D01*
X11389706Y-10338746D02*
X11380182Y-10291127D01*
X11380182Y-10291127D02*
X11370658Y-10262555D01*
X11370658Y-10262555D02*
X11361134Y-10243508D01*
X11361134Y-10243508D02*
X11342087Y-10214936D01*
X11342087Y-10214936D02*
X11332563Y-10205412D01*
X11694468Y-10510174D02*
X11684944Y-10500650D01*
X11684944Y-10500650D02*
X11665896Y-10472079D01*
X11665896Y-10472079D02*
X11656372Y-10453031D01*
X11656372Y-10453031D02*
X11646849Y-10424460D01*
X11646849Y-10424460D02*
X11637325Y-10376841D01*
X11637325Y-10376841D02*
X11637325Y-10338746D01*
X11637325Y-10338746D02*
X11646849Y-10291127D01*
X11646849Y-10291127D02*
X11656372Y-10262555D01*
X11656372Y-10262555D02*
X11665896Y-10243508D01*
X11665896Y-10243508D02*
X11684944Y-10214936D01*
X11684944Y-10214936D02*
X11694468Y-10205412D01*
X11770658Y-10300650D02*
X11770658Y-10433984D01*
X11770658Y-10319698D02*
X11780182Y-10310174D01*
X11780182Y-10310174D02*
X11799230Y-10300650D01*
X11799230Y-10300650D02*
X11827801Y-10300650D01*
X11827801Y-10300650D02*
X11846849Y-10310174D01*
X11846849Y-10310174D02*
X11856372Y-10329222D01*
X11856372Y-10329222D02*
X11856372Y-10433984D01*
X11980182Y-10433984D02*
X11961134Y-10424460D01*
X11961134Y-10424460D02*
X11951611Y-10414936D01*
X11951611Y-10414936D02*
X11942087Y-10395889D01*
X11942087Y-10395889D02*
X11942087Y-10338746D01*
X11942087Y-10338746D02*
X11951611Y-10319698D01*
X11951611Y-10319698D02*
X11961134Y-10310174D01*
X11961134Y-10310174D02*
X11980182Y-10300650D01*
X11980182Y-10300650D02*
X12008753Y-10300650D01*
X12008753Y-10300650D02*
X12027801Y-10310174D01*
X12027801Y-10310174D02*
X12037325Y-10319698D01*
X12037325Y-10319698D02*
X12046849Y-10338746D01*
X12046849Y-10338746D02*
X12046849Y-10395889D01*
X12046849Y-10395889D02*
X12037325Y-10414936D01*
X12037325Y-10414936D02*
X12027801Y-10424460D01*
X12027801Y-10424460D02*
X12008753Y-10433984D01*
X12008753Y-10433984D02*
X11980182Y-10433984D01*
X12103992Y-10300650D02*
X12180182Y-10300650D01*
X12132563Y-10233984D02*
X12132563Y-10405412D01*
X12132563Y-10405412D02*
X12142087Y-10424460D01*
X12142087Y-10424460D02*
X12161134Y-10433984D01*
X12161134Y-10433984D02*
X12180182Y-10433984D01*
X12399230Y-10300650D02*
X12399230Y-10500650D01*
X12399230Y-10310174D02*
X12418277Y-10300650D01*
X12418277Y-10300650D02*
X12456373Y-10300650D01*
X12456373Y-10300650D02*
X12475420Y-10310174D01*
X12475420Y-10310174D02*
X12484944Y-10319698D01*
X12484944Y-10319698D02*
X12494468Y-10338746D01*
X12494468Y-10338746D02*
X12494468Y-10395889D01*
X12494468Y-10395889D02*
X12484944Y-10414936D01*
X12484944Y-10414936D02*
X12475420Y-10424460D01*
X12475420Y-10424460D02*
X12456373Y-10433984D01*
X12456373Y-10433984D02*
X12418277Y-10433984D01*
X12418277Y-10433984D02*
X12399230Y-10424460D01*
X12608753Y-10433984D02*
X12589706Y-10424460D01*
X12589706Y-10424460D02*
X12580182Y-10405412D01*
X12580182Y-10405412D02*
X12580182Y-10233984D01*
X12770658Y-10433984D02*
X12770658Y-10329222D01*
X12770658Y-10329222D02*
X12761134Y-10310174D01*
X12761134Y-10310174D02*
X12742087Y-10300650D01*
X12742087Y-10300650D02*
X12703992Y-10300650D01*
X12703992Y-10300650D02*
X12684944Y-10310174D01*
X12770658Y-10424460D02*
X12751611Y-10433984D01*
X12751611Y-10433984D02*
X12703992Y-10433984D01*
X12703992Y-10433984D02*
X12684944Y-10424460D01*
X12684944Y-10424460D02*
X12675420Y-10405412D01*
X12675420Y-10405412D02*
X12675420Y-10386365D01*
X12675420Y-10386365D02*
X12684944Y-10367317D01*
X12684944Y-10367317D02*
X12703992Y-10357793D01*
X12703992Y-10357793D02*
X12751611Y-10357793D01*
X12751611Y-10357793D02*
X12770658Y-10348270D01*
X12837325Y-10300650D02*
X12913515Y-10300650D01*
X12865896Y-10233984D02*
X12865896Y-10405412D01*
X12865896Y-10405412D02*
X12875420Y-10424460D01*
X12875420Y-10424460D02*
X12894468Y-10433984D01*
X12894468Y-10433984D02*
X12913515Y-10433984D01*
X13056373Y-10424460D02*
X13037325Y-10433984D01*
X13037325Y-10433984D02*
X12999230Y-10433984D01*
X12999230Y-10433984D02*
X12980182Y-10424460D01*
X12980182Y-10424460D02*
X12970658Y-10405412D01*
X12970658Y-10405412D02*
X12970658Y-10329222D01*
X12970658Y-10329222D02*
X12980182Y-10310174D01*
X12980182Y-10310174D02*
X12999230Y-10300650D01*
X12999230Y-10300650D02*
X13037325Y-10300650D01*
X13037325Y-10300650D02*
X13056373Y-10310174D01*
X13056373Y-10310174D02*
X13065896Y-10329222D01*
X13065896Y-10329222D02*
X13065896Y-10348270D01*
X13065896Y-10348270D02*
X12970658Y-10367317D01*
X13237325Y-10433984D02*
X13237325Y-10233984D01*
X13237325Y-10424460D02*
X13218277Y-10433984D01*
X13218277Y-10433984D02*
X13180182Y-10433984D01*
X13180182Y-10433984D02*
X13161134Y-10424460D01*
X13161134Y-10424460D02*
X13151611Y-10414936D01*
X13151611Y-10414936D02*
X13142087Y-10395889D01*
X13142087Y-10395889D02*
X13142087Y-10338746D01*
X13142087Y-10338746D02*
X13151611Y-10319698D01*
X13151611Y-10319698D02*
X13161134Y-10310174D01*
X13161134Y-10310174D02*
X13180182Y-10300650D01*
X13180182Y-10300650D02*
X13218277Y-10300650D01*
X13218277Y-10300650D02*
X13237325Y-10310174D01*
X13313515Y-10510174D02*
X13323039Y-10500650D01*
X13323039Y-10500650D02*
X13342087Y-10472079D01*
X13342087Y-10472079D02*
X13351611Y-10453031D01*
X13351611Y-10453031D02*
X13361134Y-10424460D01*
X13361134Y-10424460D02*
X13370658Y-10376841D01*
X13370658Y-10376841D02*
X13370658Y-10338746D01*
X13370658Y-10338746D02*
X13361134Y-10291127D01*
X13361134Y-10291127D02*
X13351611Y-10262555D01*
X13351611Y-10262555D02*
X13342087Y-10243508D01*
X13342087Y-10243508D02*
X13323039Y-10214936D01*
X13323039Y-10214936D02*
X13313515Y-10205412D01*
M02*
